<?xml version="1.0" standalone="no"?>
<!DOCTYPE svg PUBLIC "-//W3C//DTD SVG 20010904//EN"
 "http://www.w3.org/TR/2001/REC-SVG-20010904/DTD/svg10.dtd">
<svg version="1.0" xmlns="http://www.w3.org/2000/svg"
 width="1442.000000pt" height="7974.000000pt" viewBox="0 0 1442.000000 7974.000000"
 preserveAspectRatio="xMidYMid meet">
<metadata>
Created by potrace 1.12, written by Peter Selinger 2001-2015
</metadata>
<g transform="translate(0.000000,7974.000000) scale(0.100000,-0.100000)"
fill="#000000" stroke="none">
<path d="M170 78980 c0 -67 4 -110 10 -110 6 0 10 20 10 45 l0 45 44 0 c77 0
118 59 72 105 -21 21 -35 25 -81 25 l-55 0 0 -110z"/>
<path d="M969 79071 c-21 -17 -24 -28 -24 -89 0 -55 4 -74 19 -91 56 -62 128
17 111 121 -12 71 -59 97 -106 59z"/>
<path d="M541 79004 c-28 -35 -26 -77 3 -111 22 -26 27 -27 55 -16 24 9 31 9
31 -1 0 -31 -54 -48 -77 -25 -6 6 -17 9 -24 7 -20 -7 27 -48 54 -48 12 0 33 7
45 16 20 14 22 23 22 110 0 56 -4 94 -10 94 -5 0 -10 -5 -10 -10 0 -7 -6 -7
-19 0 -31 16 -48 12 -70 -16z"/>
<path d="M1530 78420 c0 -38 -12 -52 -25 -30 -11 18 -43 10 -64 -16 -28 -36
-27 -79 4 -109 28 -29 42 -31 67 -8 17 15 18 15 18 0 0 -10 5 -17 10 -17 6 0
10 43 10 110 0 67 -4 110 -10 110 -5 0 -10 -18 -10 -40z"/>
<path d="M230 78382 c-17 -14 -23 -29 -23 -62 0 -33 6 -48 23 -62 51 -41 110
-8 110 62 0 70 -59 103 -110 62z"/>
<path d="M1280 78382 c-32 -26 -32 -98 0 -124 51 -41 110 -8 110 62 0 70 -59
103 -110 62z"/>
<path d="M710 65950 c0 -91 3 -110 15 -110 11 0 15 11 15 42 0 33 3 39 12 30
35 -35 88 7 88 68 0 61 -53 103 -88 68 -9 -9 -12 -9 -12 0 0 7 -7 12 -15 12
-12 0 -15 -19 -15 -110z"/>
<path d="M1060 66040 c-41 -41 -15 -140 36 -140 8 0 24 5 35 10 22 12 27 -8 7
-28 -14 -14 -68 -16 -68 -2 0 6 -7 10 -15 10 -22 0 -18 -17 7 -34 31 -22 64
-20 88 4 17 17 20 33 20 110 0 53 -4 90 -10 90 -5 0 -10 -5 -10 -10 0 -7 -6
-7 -19 0 -29 15 -49 12 -71 -10z"/>
<path d="M870 65684 c-276 -53 -486 -210 -600 -448 -61 -128 -74 -190 -75
-351 0 -119 3 -151 23 -215 103 -326 360 -543 688 -579 43 -5 80 -14 82 -20 2
-7 9 -5 19 4 8 9 33 15 57 15 69 0 194 36 291 85 411 204 563 726 326 1124
-99 167 -250 287 -443 352 -81 28 -108 32 -218 35 -69 1 -136 0 -150 -2z m240
-15 c175 -28 313 -100 440 -228 121 -123 183 -235 216 -398 22 -106 15 -280
-16 -378 -103 -327 -379 -545 -713 -562 -183 -10 -337 31 -481 128 -473 316
-469 1010 7 1320 159 103 365 148 547 118z"/>
<path d="M855 65625 c-87 -16 -136 -34 -228 -82 -86 -45 -225 -178 -276 -265
-97 -166 -130 -346 -97 -520 37 -190 134 -351 281 -463 134 -101 251 -144 421
-152 140 -7 235 12 359 72 162 79 271 188 350 350 60 124 79 219 72 359 -3 73
-13 135 -27 181 -114 366 -482 590 -855 520z m298 -21 c95 -21 238 -91 308
-151 151 -130 233 -280 260 -477 17 -128 -6 -274 -65 -399 -158 -341 -555
-507 -910 -380 -174 62 -331 202 -410 365 -61 127 -80 220 -74 361 15 328 229
593 549 677 93 24 243 26 342 4z"/>
<path d="M991 63758 c-1 -12 -9 -18 -26 -18 -30 0 -31 -5 -5 -72 11 -29 20
-56 20 -59 0 -3 -37 -9 -82 -12 -187 -15 -341 -82 -394 -173 -27 -47 -30 -83
-10 -123 17 -33 83 -94 124 -115 56 -29 204 -66 288 -73 l84 -6 -2 -171 c-3
-169 -3 -171 -25 -174 -13 -2 -23 -5 -23 -6 0 -2 9 -29 20 -61 11 -32 20 -60
20 -62 0 -1 -79 -3 -175 -3 l-175 0 0 -245 0 -245 178 -2 177 -3 3 -172 2
-173 -25 0 c-30 0 -30 -1 -5 -69 12 -29 19 -56 16 -58 -2 -3 -33 -8 -68 -13
-229 -28 -374 -147 -339 -277 29 -106 167 -185 364 -208 l57 -6 -2 -262 -3
-262 -22 -3 c-13 -2 -23 -5 -23 -6 0 -2 9 -29 20 -61 11 -32 18 -60 16 -62 -2
-2 -43 -8 -92 -13 -240 -27 -404 -125 -404 -242 0 -38 33 -97 70 -126 74 -58
220 -103 373 -117 l67 -7 0 -169 0 -169 -25 0 c-30 0 -30 -2 -5 -75 11 -32 20
-60 20 -62 0 -1 -79 -3 -175 -3 l-175 0 0 -245 0 -245 110 0 110 0 -34 -67
c-130 -260 -192 -575 -153 -779 38 -200 159 -409 380 -655 77 -87 84 -97 70
-111 -14 -14 -9 -19 46 -44 l62 -27 -53 -29 c-71 -39 -104 -72 -124 -125 -14
-37 -15 -50 -5 -84 32 -107 171 -189 351 -207 l75 -7 0 -265 c0 -241 -1 -265
-17 -265 -28 0 -29 -9 -8 -70 11 -32 20 -59 20 -60 0 -1 -50 -5 -111 -9 -343
-22 -598 -113 -626 -224 -15 -60 62 -136 185 -182 83 -32 271 -69 390 -76 66
-5 102 -11 102 -18 0 -7 -9 -54 -21 -106 -11 -52 -30 -150 -42 -219 l-22 -126
-3 -14810 c-1 -10433 1 -14825 8 -14862 15 -69 78 -195 134 -265 138 -173 421
-333 778 -440 72 -22 77 -25 71 -47 l-6 -24 71 7 70 7 -8 -35 c-16 -74 26
-162 98 -206 23 -14 41 -27 41 -30 -1 -3 -66 -65 -144 -138 -145 -134 -472
-479 -463 -488 3 -2 50 44 104 103 155 170 249 266 387 395 l127 120 50 -13
51 -14 -47 -55 c-43 -51 -45 -54 -25 -62 12 -4 21 -10 21 -13 0 -3 -15 -50
-34 -104 -44 -127 -92 -319 -111 -446 -13 -88 -15 -1027 -15 -7777 0 -5540 3
-7692 11 -7730 15 -71 86 -219 141 -294 67 -90 156 -181 247 -254 63 -51 77
-66 63 -71 -9 -4 -51 -17 -92 -29 -103 -31 -160 -61 -203 -109 -48 -54 -50
-96 -6 -146 88 -100 302 -161 604 -171 371 -13 701 77 755 206 24 57 -14 119
-104 170 l-51 30 49 0 c46 0 48 1 42 24 -6 24 4 28 929 336 l935 312 48 -30
c170 -108 445 -104 616 9 48 33 96 100 96 137 0 26 5 27 60 7 58 -20 80 -19
80 4 0 17 10 20 78 25 729 57 1236 163 1677 351 284 121 426 223 609 435 l90
105 260 5 261 5 0 245 0 245 -199 3 -198 2 5 23 c3 12 9 44 13 71 6 46 6 48
-15 41 -14 -4 -23 -2 -26 7 -2 7 -14 99 -27 203 l-23 190 -3 2298 -2 2297 27
1 c16 0 22 3 16 6 -17 6 -17 70 0 76 9 4 9 6 0 6 -7 1 -13 8 -13 17 0 11 6 15
20 11 11 -3 18 -1 14 4 -9 16 -32 10 -48 -13 -15 -20 -16 175 -16 2087 0 1310
-4 2145 -10 2203 -30 285 -197 509 -513 690 -277 158 -705 278 -1197 337 -74
8 -154 18 -177 21 l-43 5 0 134 0 135 -277 2 -277 3 -23 59 c-27 71 -28 72
-48 56 -14 -11 -19 -10 -34 6 -40 42 -291 343 -291 348 0 3 34 6 75 6 l75 0 0
245 0 245 -325 0 -325 0 -33 46 c-59 84 -55 81 -71 61 -13 -17 -42 4 -386 270
-318 246 -369 289 -349 293 l24 6 0 239 0 240 -177 3 c-98 1 -178 4 -178 6 0
1 9 29 20 61 25 72 25 75 0 75 -19 0 -20 7 -20 169 l0 170 57 6 c276 28 443
121 443 246 0 40 -6 52 -41 93 -69 78 -191 126 -367 146 -106 11 -287 0 -320
-20 -12 -8 -3 -8 33 -3 28 5 118 8 200 7 123 0 164 -4 228 -22 344 -98 340
-313 -8 -408 -79 -21 -299 -30 -394 -15 -321 50 -446 236 -241 359 30 18 79
40 108 49 59 19 72 37 15 21 -72 -19 -175 -80 -204 -121 -39 -54 -44 -87 -21
-141 44 -98 199 -167 430 -191 l62 -7 0 -169 c0 -162 -1 -169 -20 -169 -25 0
-25 -16 0 -82 11 -29 20 -54 20 -55 0 -2 -81 -3 -180 -3 l-180 0 0 -245 0
-245 119 0 119 0 -49 -109 c-66 -147 -134 -352 -167 -496 l-27 -120 -3 -6045
c-2 -5472 -1 -6053 13 -6125 32 -163 138 -331 290 -458 103 -86 173 -130 340
-212 195 -96 353 -150 688 -236 32 -9 36 -13 31 -33 -5 -22 -4 -23 43 -15 88
14 93 13 83 -20 -10 -37 2 -92 28 -128 l21 -28 -932 -311 c-849 -283 -933
-309 -939 -292 -10 25 -14 24 -74 -23 l-53 -41 -88 21 c-106 24 -235 41 -320
41 -35 0 -63 3 -63 8 0 4 9 31 20 60 25 65 25 72 0 72 -20 0 -20 7 -20 6665
l0 6665 30 0 c51 0 179 30 234 54 94 42 165 125 166 194 0 57 -69 142 -148
182 -57 28 -184 60 -239 60 -49 0 -49 0 -17 79 19 46 18 61 -6 61 -19 0 -20 7
-20 265 l0 265 185 0 185 0 0 245 0 245 -175 0 -175 0 21 53 c12 28 23 57 26
64 3 7 -6 15 -19 18 -22 6 -23 9 -21 83 2 42 6 118 9 168 l6 91 96 11 c173 20
290 62 362 131 129 123 25 271 -231 330 -101 24 -251 35 -299 22 -28 -7 -12
-9 72 -10 342 -3 576 -152 475 -302 -46 -69 -169 -127 -319 -150 -94 -15 -315
-6 -393 15 -345 95 -352 312 -14 406 41 11 86 20 101 20 16 0 28 5 28 10 0 13
-50 6 -145 -22 -201 -58 -290 -170 -222 -280 12 -20 34 -46 49 -57 71 -56 211
-100 368 -116 l55 -6 -6 -137 c-4 -75 -7 -152 -8 -169 -1 -26 -5 -33 -21 -33
-24 0 -26 -21 -5 -80 8 -23 15 -46 15 -51 0 -5 -81 -9 -180 -9 l-180 0 0 -245
0 -245 99 0 100 0 -31 -62 c-78 -158 -94 -269 -58 -411 21 -86 21 -89 3 -102
-17 -13 -15 -16 24 -57 24 -24 43 -46 43 -50 0 -3 -19 -11 -42 -17 -120 -31
-228 -129 -228 -207 0 -110 118 -205 295 -239 42 -8 90 -15 106 -15 l29 0 0
-6665 c0 -6658 0 -6665 -20 -6665 -25 0 -25 -16 0 -80 11 -28 20 -53 20 -55 0
-3 -30 -5 -66 -5 -36 0 -107 -5 -159 -12 l-94 -11 -58 43 c-153 116 -302 288
-367 423 -72 148 -66 -216 -66 4095 0 3119 2 3892 13 3892 8 0 11 14 9 45 -2
25 -8 42 -13 39 -5 -3 -9 1519 -9 3727 0 3342 2 3743 16 3838 21 145 46 250
100 419 44 139 46 144 70 138 22 -6 24 -4 24 33 0 21 3 52 6 68 l6 29 86 0
c153 -1 278 53 339 146 39 59 39 137 1 196 l-28 41 33 5 c17 3 46 7 62 8 18 2
29 8 28 16 -2 6 -4 17 -5 22 -2 6 269 137 602 292 l604 281 76 -13 c124 -21
465 -25 606 -6 440 58 614 240 350 366 -75 36 -227 77 -314 86 -34 4 -65 10
-67 14 -2 4 18 17 45 30 28 13 50 26 50 28 0 3 -7 13 -15 21 -13 15 16 48 271
318 281 299 285 302 317 295 57 -13 289 -8 342 7 82 23 158 66 202 114 54 58
63 102 36 167 l-20 47 65 -5 c65 -5 65 -5 59 19 -6 23 -1 26 125 69 504 169
799 336 1146 647 l92 83 290 0 290 0 0 245 0 245 -298 0 -298 0 -32 66 c-32
65 -33 66 -53 48 -19 -17 -23 -14 -162 122 -356 348 -437 428 -437 431 0 2 25
3 55 3 l55 0 0 245 0 245 -282 2 -282 3 -24 60 c-29 72 -28 71 -47 55 -20 -16
-15 -20 -203 195 l-140 160 74 3 74 3 0 244 0 245 -190 0 c-104 0 -190 3 -190
8 1 9 19 91 26 115 4 13 -1 17 -20 17 -14 0 -26 6 -26 13 -1 6 -9 82 -20 167
-10 85 -17 156 -16 157 1 1 62 7 136 13 214 17 417 65 505 120 52 32 95 86 95
120 0 40 -50 95 -119 130 -119 59 -275 94 -500 110 -73 5 -135 11 -137 13 -2
2 5 30 16 62 11 32 20 59 20 61 0 1 -10 4 -22 6 -21 3 -23 9 -26 76 -3 64 -1
72 15 72 15 0 18 7 15 45 -3 26 -9 43 -15 42 -9 -1 -13 41 -15 144 l-3 147 63
7 c279 30 442 171 366 315 -41 76 -124 122 -296 167 l-32 8 39 45 c46 52 48
58 22 68 -18 6 -12 26 86 279 l106 273 226 2 226 3 0 245 0 245 -327 3 -327 2
-33 55 c-35 58 -44 64 -62 40 -9 -11 -55 21 -260 183 -235 186 -248 197 -218
200 l32 3 -2 242 -3 242 -177 3 c-98 1 -178 4 -178 6 0 1 9 29 20 61 11 32 20
60 20 62 0 1 -9 3 -20 3 -19 0 -20 7 -20 174 l0 173 74 7 c187 17 341 89 385
180 26 53 26 77 1 126 -48 94 -246 179 -417 180 l-52 0 15 48 c28 92 28 92 6
92 -28 0 -31 30 -34 306 l-3 220 80 11 c195 27 321 115 332 231 4 41 1 53 -29
96 -43 64 -120 110 -228 137 -71 18 -103 21 -200 16 -63 -2 -121 -6 -129 -8
-9 -3 -23 17 -39 56 -32 75 -29 72 -52 57 -17 -10 -36 8 -190 183 l-171 195
76 0 75 0 0 250 0 250 -180 0 c-99 0 -180 2 -180 3 0 2 9 30 20 62 11 32 20
60 20 62 0 1 -11 3 -25 3 -25 0 -25 1 -25 83 0 46 -3 124 -6 174 l-7 90 84 6
c259 19 447 143 415 273 -10 40 -80 108 -141 138 -72 35 -186 64 -286 72 -43
4 -79 8 -79 9 0 1 6 20 13 41 29 84 30 94 3 94 l-24 0 -6 198 c-4 108 -8 226
-9 262 l-2 65 65 7 c36 4 85 13 110 19 120 32 232 120 245 192 26 139 -150
260 -401 274 l-104 6 0 69 c0 66 -1 68 -23 63 -22 -6 -26 5 -105 249 -45 140
-85 261 -88 269 -4 11 14 15 88 21 201 14 415 69 504 129 27 18 56 49 68 71
19 39 19 39 0 75 -57 105 -264 178 -581 203 -84 7 -153 15 -153 19 0 3 9 31
19 62 11 32 17 58 13 58 -4 1 -14 2 -22 3 -12 1 -16 18 -18 74 -3 64 -1 72 15
72 15 0 18 7 15 44 -3 33 -7 43 -18 39 -12 -4 -14 21 -14 151 l0 156 48 0 c59
0 186 31 241 59 52 27 108 76 127 112 30 59 9 158 -42 198 -13 10 -24 21 -24
24 0 2 28 7 62 11 34 3 63 8 66 10 2 2 -1 13 -7 24 -9 17 -4 23 42 47 269 146
472 335 642 598 l50 77 248 0 247 0 -2 243 -3 242 -315 3 -315 2 -34 58 c-19
31 -36 59 -38 61 -1 2 -11 -3 -20 -12 -17 -14 -41 4 -348 265 -181 155 -331
285 -333 289 -2 5 12 9 32 9 l36 0 0 245 0 245 -267 2 -266 3 -20 60 c-24 73
-23 72 -46 58 -17 -11 -34 7 -158 170 l-139 182 88 3 88 3 0 244 0 245 -175 0
c-96 0 -175 4 -175 8 0 5 9 34 19 65 20 58 19 67 -11 67 -17 0 -18 12 -18 170
0 131 3 170 13 170 47 0 194 24 252 41 126 37 224 108 241 174 33 131 -135
244 -410 275 -50 6 -92 13 -94 15 -2 2 3 25 12 51 21 61 20 74 -3 74 -21 0
-24 28 -37 367 l-6 161 49 7 c147 19 233 50 297 106 57 50 76 85 76 139 0 125
-152 222 -384 245 l-68 7 6 31 c20 100 20 105 -6 100 -24 -5 -24 -4 -42 149
-10 84 -20 162 -23 174 -4 20 0 21 114 27 372 20 649 137 617 262 -10 41 -89
102 -173 134 -108 42 -250 69 -428 83 -84 7 -153 15 -153 18 0 4 9 32 19 63
11 32 17 58 13 58 -4 1 -14 2 -22 3 -12 1 -16 18 -18 74 -3 64 -1 72 15 72 15
0 18 7 15 44 -3 33 -7 43 -18 39 -12 -4 -14 21 -14 151 l0 156 48 0 c123 1
283 60 345 129 68 75 67 158 -4 230 l-38 40 57 7 c70 8 75 11 62 34 -9 16 -5
22 17 36 304 187 466 345 619 605 l47 79 238 0 239 0 0 245 0 245 -315 0 -315
0 -28 46 c-46 79 -46 78 -69 64 -19 -12 -47 10 -354 271 l-334 284 43 3 42 3
-2 242 -3 242 -266 3 -266 2 -18 61 c-20 66 -29 76 -50 59 -12 -10 -39 21
-151 172 l-136 183 91 3 91 3 0 244 0 245 -179 0 -180 0 20 57 c24 71 24 83
-1 83 -19 0 -20 7 -20 169 l0 169 63 7 c231 24 385 93 429 192 18 40 19 51 8
87 -15 51 -68 102 -142 139 -63 30 -203 67 -258 67 -19 0 -51 3 -72 6 l-36 6
19 56 c24 68 24 72 0 72 -11 0 -22 3 -24 8 -3 4 -8 123 -12 264 l-7 256 49 7
c248 32 395 142 369 278 -15 78 -128 161 -262 193 -70 17 -260 23 -300 10 -19
-6 -23 0 -41 61 -11 38 -24 67 -29 66 -5 -1 -16 -4 -24 -7 -11 -3 -54 50 -148
181 -72 102 -130 188 -127 191 2 3 51 11 108 18 267 35 457 130 457 229 0 74
-100 142 -281 190 -97 25 -314 55 -406 55 l-52 0 20 57 c24 70 24 73 -1 73
-18 0 -20 7 -20 75 0 54 4 75 13 75 8 0 11 14 9 45 -2 25 -8 42 -13 39 -5 -3
-9 60 -9 149 l0 154 73 6 c93 7 195 41 260 86 183 128 96 316 -175 381 l-67
16 39 44 c42 48 50 70 25 70 -8 0 -15 6 -15 13 0 6 47 131 104 277 l103 265
227 3 226 2 0 245 0 245 -293 0 -294 0 -28 65 c-27 64 -28 65 -47 48 -18 -16
-25 -10 -202 173 l-183 189 63 3 64 3 0 244 0 245 -179 0 -180 0 20 57 c24 71
24 83 -1 83 -19 0 -20 7 -20 169 l0 169 63 7 c231 24 385 93 429 192 18 40 19
51 8 87 -15 51 -68 102 -142 139 -63 30 -204 67 -259 67 -20 0 -50 3 -67 6
l-30 6 19 56 c24 69 24 72 -1 72 -19 0 -20 7 -20 93 1 67 3 87 11 75 12 -21
32 -23 48 -5 8 11 6 13 -11 13 -14 -1 -24 6 -26 18 -6 27 13 42 33 26 8 -7 15
-8 15 -2 0 5 -7 13 -16 16 -21 8 -20 8 -38 -10 -15 -14 -16 -1 -16 144 l0 159
93 15 c120 20 194 49 250 98 76 67 95 136 58 208 -49 95 -154 147 -363 177
l-37 6 19 50 c25 63 25 79 0 79 -19 0 -20 7 -20 175 l0 175 180 0 180 0 0 245
0 245 -179 0 -180 0 20 57 c24 70 24 73 -1 73 -19 0 -20 7 -20 174 l0 173 79
7 c379 31 551 251 311 398 -71 43 -244 88 -341 88 -27 0 -49 1 -49 3 0 1 9 26
20 55 25 65 25 82 1 82 -11 0 -22 8 -24 18 -4 16 -5 16 -6 0z m231 -197 c306
-79 359 -264 107 -374 -218 -96 -569 -79 -745 38 -61 40 -99 106 -88 152 22
93 160 173 349 203 91 14 288 4 377 -19z m126 -1178 l2 -233 -355 0 -355 0 0
235 0 235 353 -2 352 -3 3 -232z m-207 -757 c181 -39 295 -153 259 -261 -14
-43 -87 -110 -148 -136 -157 -68 -391 -65 -531 5 -61 31 -108 71 -126 107 -21
40 -19 108 5 146 36 60 145 121 255 143 65 13 215 11 286 -4z m31 -1160 c306
-59 414 -228 225 -352 -104 -68 -256 -99 -452 -91 -140 5 -215 21 -311 66
-255 119 -152 322 194 381 78 13 266 11 344 -4z m173 -1191 l0 -230 -352 -3
-353 -2 0 235 0 235 353 -2 352 -3 0 -230z m10 -397 c224 -228 231 -236 217
-250 -19 -19 -15 -26 36 -52 l47 -25 -52 -1 -53 0 0 -245 0 -245 105 0 c58 0
105 -2 105 -4 0 -2 -27 -59 -59 -127 -47 -99 -104 -252 -147 -396 -2 -7 -13
-12 -25 -10 -21 2 -22 -1 -20 -64 l2 -66 -88 -6 c-48 -4 -110 -13 -136 -21
l-48 -14 -25 51 c-38 75 -44 81 -61 60 -12 -17 -20 -11 -94 67 -175 184 -332
435 -374 595 -37 139 -29 319 21 512 24 92 91 268 134 353 l20 40 173 0 172 0
150 -152z m913 -575 l2 -233 -355 0 -355 0 0 235 0 235 353 -2 352 -3 3 -232z
m-461 -262 c-3 -11 -49 -133 -102 -270 -79 -203 -101 -251 -116 -251 -11 0
-19 6 -19 14 0 7 20 74 46 147 58 171 157 379 180 379 11 0 15 -6 11 -19z
m-162 -687 c82 -20 154 -56 198 -101 125 -124 20 -277 -225 -327 -272 -56
-568 54 -568 211 0 75 41 128 139 178 121 61 300 76 456 39z m120 -1160 c132
-17 238 -45 321 -85 67 -31 124 -87 124 -120 0 -79 -131 -157 -335 -199 -404
-84 -931 -27 -1098 119 -30 27 -37 40 -37 71 0 49 25 79 97 117 198 105 569
144 928 97z m3 -649 c116 -160 138 -196 126 -206 -21 -18 -18 -23 38 -62 33
-24 46 -38 37 -41 -143 -51 -206 -92 -238 -158 -26 -55 -26 -80 0 -135 45 -93
173 -156 361 -178 51 -6 57 -9 62 -33 3 -15 8 -134 11 -264 7 -237 7 -238 -14
-238 -26 0 -26 -6 -1 -71 12 -28 19 -54 16 -56 -3 -3 -42 -9 -88 -14 -234 -26
-398 -125 -398 -241 0 -38 33 -97 70 -126 74 -58 220 -103 373 -117 l67 -7 0
-169 0 -169 -25 0 c-30 0 -30 -2 -5 -75 11 -32 20 -60 20 -62 0 -1 -79 -3
-175 -3 l-175 0 0 -245 0 -245 156 0 156 0 -6 -35 c-64 -339 -83 -885 -41
-1165 62 -410 246 -864 557 -1374 74 -120 78 -130 63 -146 -16 -17 -14 -21 34
-56 l51 -38 -73 -26 c-134 -47 -210 -125 -209 -213 2 -114 164 -219 364 -234
l78 -6 -2 -266 c-3 -266 -3 -266 -25 -269 l-22 -3 22 -63 23 -62 -155 -12
c-332 -25 -556 -104 -600 -210 -30 -72 50 -147 214 -201 50 -16 125 -35 167
-42 l77 -13 -102 -105 c-57 -58 -124 -136 -150 -172 -64 -91 -133 -240 -152
-328 -13 -65 -15 -1241 -15 -10995 0 -7590 3 -10940 11 -10982 24 -138 97
-305 196 -449 45 -65 53 -83 44 -97 -15 -25 -17 -23 41 -58 49 -30 51 -33 33
-46 -60 -41 -85 -62 -101 -86 l-18 -26 -57 39 c-65 44 -69 45 -69 24 0 -28
-26 -26 -140 10 -478 155 -773 386 -844 661 -15 56 -16 732 -16 7370 0 6152 2
7305 14 7289 9 -13 19 -16 32 -11 18 8 18 9 -4 17 -30 11 -28 29 3 29 14 0 25
4 25 9 0 13 -29 35 -37 27 -3 -3 -1 -6 5 -6 7 0 12 -4 12 -10 0 -5 -7 -10 -15
-10 -8 0 -15 6 -15 13 0 8 -4 7 -10 -3 -6 -10 -9 2619 -7 7475 2 7146 3 7495
20 7595 22 130 67 352 74 363 2 4 51 7 108 7 l104 0 139 -195z m555 -324 c91
-24 145 -50 197 -97 103 -93 64 -214 -93 -290 -88 -42 -184 -58 -316 -51 -225
10 -381 103 -381 225 0 76 57 141 165 187 112 47 299 59 428 26z m49 -1155
c306 -59 414 -228 225 -352 -104 -68 -256 -99 -452 -91 -140 5 -215 21 -311
66 -255 119 -152 322 194 381 78 13 266 11 344 -4z m173 -1191 l0 -230 -352
-3 -353 -2 0 235 0 235 353 -2 352 -3 0 -230z m-47 -432 c132 -177 139 -189
124 -206 -14 -16 -15 -20 -2 -27 8 -5 30 -20 49 -34 l35 -26 -87 0 -87 0 0
-245 0 -245 185 0 c151 0 185 -3 185 -14 0 -47 40 -1399 46 -1528 l6 -158 -26
0 -25 0 24 -64 24 -64 -60 -6 c-32 -4 -63 -5 -68 -2 -4 3 -14 33 -21 66 -10
49 -16 60 -29 55 -9 -4 -20 -7 -24 -8 -14 -3 -201 316 -301 513 -151 297 -239
521 -295 752 -53 215 -65 334 -65 633 -1 273 8 402 45 653 10 73 19 135 19
138 0 2 47 4 104 4 l104 0 140 -187z m752 -538 l0 -235 -350 0 -350 0 0 235 0
235 350 0 350 0 0 -235z m252 -536 c189 -161 345 -293 347 -295 2 -2 -2 -10
-9 -19 -16 -19 -10 -25 43 -47 38 -15 39 -17 15 -17 l-28 -1 0 -244 0 -245 45
-3 46 -3 -302 -270 c-391 -350 -366 -330 -385 -315 -18 15 -21 13 -60 -53 -22
-37 -36 -51 -50 -49 -10 1 -58 8 -106 14 -49 7 -88 15 -88 18 0 4 9 32 19 63
l20 57 -25 0 c-14 0 -24 6 -24 14 0 43 -40 1388 -45 1524 l-7 162 125 0 125 0
344 -291z m1086 -626 l2 -233 -355 0 -355 0 0 235 0 235 353 -2 352 -3 3 -232z
m-488 -253 c0 -17 -94 -163 -161 -252 -113 -149 -249 -267 -439 -382 -66 -40
-76 -43 -84 -28 -5 9 -11 19 -13 22 -3 3 -26 -19 -51 -48 l-47 -53 -50 22 -50
22 55 25 c67 29 66 28 50 47 -16 20 -52 -15 350 344 l325 291 58 0 c32 0 57
-4 57 -10z m-956 -696 c320 -77 344 -311 43 -411 -72 -23 -98 -27 -217 -27
-115 -1 -146 3 -210 22 -148 47 -230 119 -230 204 0 167 330 281 614 212z m88
-1155 c279 -29 488 -122 488 -217 0 -207 -851 -310 -1307 -157 -194 66 -252
148 -162 230 142 128 552 188 981 144z m-246 -463 c8 -6 44 -341 37 -343 -34
-12 -35 -20 -9 -71 14 -28 26 -56 26 -62 0 -5 -16 -10 -36 -10 -124 0 -295
-87 -340 -172 -18 -35 -18 -101 0 -137 16 -30 81 -92 116 -111 48 -26 137 -50
220 -61 l88 -11 6 -227 c4 -124 9 -243 11 -263 5 -35 3 -38 -20 -38 -14 0 -25
-2 -25 -5 0 -3 11 -32 24 -65 l24 -59 -46 -6 c-196 -23 -313 -62 -385 -126
-165 -144 -4 -318 333 -359 46 -5 90 -10 97 -10 10 0 13 -39 13 -170 0 -158
-1 -170 -18 -170 -30 0 -31 -9 -11 -67 10 -31 19 -60 19 -65 0 -4 -79 -8 -175
-8 l-175 0 0 -245 0 -245 155 0 c85 0 155 -3 155 -7 0 -5 -5 -35 -10 -68 -61
-368 -79 -816 -45 -1098 47 -395 225 -865 525 -1386 78 -137 82 -145 64 -158
-21 -16 -23 -13 60 -78 l28 -22 -47 -12 c-142 -36 -235 -124 -235 -223 0 -116
157 -219 358 -235 l72 -6 -2 -266 c-3 -266 -3 -266 -25 -269 l-22 -3 23 -63
23 -63 -110 -7 c-349 -21 -587 -101 -634 -213 -12 -30 -12 -38 3 -69 37 -77
203 -149 412 -180 59 -9 119 -19 134 -22 l26 -7 -45 -75 c-109 -184 -190 -366
-240 -547 l-28 -98 -5 -7135 -5 -7135 -22 -78 c-31 -107 -91 -233 -169 -349
-70 -106 -80 -116 -97 -99 -19 19 -24 13 -47 -51 -12 -35 -23 -64 -24 -65 -1
-1 -24 5 -51 14 -64 20 -223 20 -286 0 l-46 -14 -23 63 c-22 62 -32 75 -45 54
-13 -20 -25 -8 -89 88 -78 116 -136 237 -168 347 l-23 80 0 10975 0 10975 23
75 c50 159 150 311 304 462 l88 87 158 -6 c86 -3 158 -6 158 -7z m255 -510
c125 -27 247 -110 265 -181 24 -95 -57 -187 -208 -236 -64 -21 -92 -24 -218
-24 -125 1 -154 4 -210 23 -163 57 -245 166 -196 260 35 67 140 133 250 157
81 18 235 18 317 1z m123 -1171 c136 -38 234 -103 256 -171 31 -94 -71 -189
-260 -241 -51 -14 -102 -18 -235 -18 -133 0 -184 4 -235 18 -138 38 -238 104
-260 173 -33 100 84 200 290 245 106 24 350 20 444 -6z m116 -1180 l0 -235
-355 0 -355 0 0 235 0 235 355 0 355 0 0 -235z m-40 -436 c124 -165 142 -192
127 -200 -25 -15 -22 -21 31 -54 l47 -30 -82 -3 -83 -3 0 -244 0 -245 180 0
180 0 0 -850 0 -850 -25 0 -25 0 24 -65 24 -65 -23 0 c-12 0 -42 -3 -67 -6
l-44 -6 -13 66 c-14 68 -16 72 -41 56 -17 -11 -34 14 -153 230 -211 381 -366
758 -431 1051 -47 211 -59 362 -53 674 5 267 15 382 53 626 l16 109 107 0 106
0 145 -191z m758 -536 l2 -233 -355 0 -355 0 0 228 c0 126 3 232 6 235 4 4
163 6 353 4 l346 -2 3 -232z m232 -519 c396 -336 365 -306 351 -332 -10 -19
-6 -22 42 -41 49 -19 50 -20 20 -20 l-33 -1 0 -244 0 -245 41 -3 42 -3 -357
-303 c-340 -289 -358 -303 -376 -287 -17 16 -20 14 -52 -45 -29 -54 -36 -60
-58 -56 -14 3 -62 11 -107 18 -46 6 -83 15 -83 18 0 4 9 32 19 63 l20 57 -25
0 -24 0 0 850 0 850 128 0 127 0 325 -276z m1100 -639 l0 -235 -350 0 -350 0
0 235 0 235 350 0 350 0 0 -235z m-509 -277 c-177 -282 -374 -471 -647 -624
-64 -36 -67 -37 -81 -19 -12 18 -16 16 -63 -30 l-49 -48 -41 18 c-22 10 -40
21 -40 24 0 4 25 15 55 26 43 14 54 22 50 34 -4 9 -7 20 -8 25 -1 5 160 148
358 317 l360 308 63 0 64 1 -21 -32z m-1006 -674 c85 -18 179 -68 218 -117 42
-51 48 -119 15 -167 -86 -127 -316 -189 -543 -145 -181 34 -294 127 -282 232
18 162 304 258 592 197z m130 -1160 c197 -26 330 -72 404 -139 33 -30 41 -44
41 -73 0 -99 -216 -190 -529 -222 -462 -46 -961 69 -961 222 0 62 93 128 240
172 202 60 533 76 805 40z m-143 -724 c48 -146 88 -268 88 -271 0 -3 -9 -10
-21 -15 -20 -9 -20 -12 21 -63 23 -29 40 -54 38 -55 -1 -1 -32 -8 -67 -15
-124 -24 -237 -95 -268 -168 -58 -140 109 -284 349 -300 l76 -6 6 -133 c3 -74
9 -195 12 -269 l6 -135 -26 0 -26 0 21 -52 c12 -29 23 -58 25 -63 3 -7 -32
-16 -90 -23 -344 -43 -499 -217 -325 -365 73 -63 248 -117 379 -117 l60 0 0
-83 c0 -46 3 -125 6 -175 l7 -92 -27 0 c-14 0 -26 -1 -26 -3 0 -2 11 -31 24
-65 l25 -62 -175 0 -174 0 0 -250 0 -250 180 0 180 0 0 -4665 c0 -4224 2
-4673 16 -4743 19 -93 68 -202 128 -286 60 -84 193 -208 302 -281 122 -82 363
-201 517 -255 117 -41 128 -47 124 -67 -4 -22 -1 -23 59 -23 l63 0 -15 -35
c-22 -52 -17 -96 15 -146 29 -47 98 -97 164 -120 20 -7 36 -16 35 -20 -6 -14
-550 -589 -558 -589 -5 0 -12 5 -15 11 -12 18 -25 5 -53 -54 l-27 -59 -215 -3
c-223 -3 -334 -16 -480 -56 -136 -38 -241 -106 -256 -165 -19 -75 74 -152 246
-205 69 -21 73 -23 50 -33 -14 -6 -284 -131 -600 -278 -530 -246 -576 -265
-584 -247 -5 10 -12 19 -15 19 -4 0 -27 -20 -51 -45 -24 -25 -48 -45 -53 -45
-4 0 -24 11 -43 23 l-34 24 50 27 c57 31 69 46 48 59 -12 8 -3 28 57 117 84
124 134 224 172 347 l28 88 3 3639 c2 3051 4 3637 16 3621 9 -13 19 -16 32
-11 18 8 18 9 -3 17 -31 11 -29 29 2 29 14 0 25 4 25 9 0 13 -29 35 -37 27 -3
-3 -1 -6 5 -6 7 0 12 -4 12 -10 0 -5 -7 -10 -15 -10 -8 0 -15 6 -15 13 0 8 -4
7 -10 -3 -6 -10 -9 1205 -7 3470 l2 3485 27 101 c47 177 120 344 231 532 l61
103 115 -3 116 -3 87 -265z m392 -437 c238 -59 322 -226 173 -343 -14 -11 -51
-32 -81 -46 -237 -108 -605 -42 -678 123 -26 59 -18 102 29 154 106 117 344
165 557 112z m46 -1155 c204 -34 339 -141 310 -246 -28 -105 -212 -187 -445
-199 -295 -15 -560 102 -542 240 7 53 30 83 96 126 133 86 358 116 581 79z
m200 -1188 l0 -230 -355 0 -355 0 0 230 0 230 355 0 355 0 0 -230z m-50 -372
c58 -66 136 -156 174 -200 64 -74 68 -80 52 -97 -15 -16 -13 -19 27 -41 73
-40 73 -39 -1 -75 -77 -37 -135 -95 -153 -154 -24 -80 41 -175 156 -227 59
-27 170 -54 226 -54 l36 0 6 -122 c4 -66 7 -186 7 -265 0 -136 -1 -143 -20
-143 -11 0 -20 -4 -20 -10 0 -5 9 -32 20 -60 11 -28 20 -54 20 -59 0 -4 -33
-11 -72 -14 -182 -16 -337 -88 -385 -180 -22 -44 -12 -110 24 -155 60 -74 208
-133 371 -148 l72 -7 0 -173 c0 -167 -1 -174 -20 -174 -25 0 -25 -3 -1 -73
l20 -57 -180 0 -179 0 0 -245 0 -245 155 0 c85 0 155 -3 155 -6 0 -3 -8 -60
-17 -127 -24 -173 -23 -488 1 -621 51 -281 185 -523 425 -769 60 -62 65 -69
53 -88 -8 -12 -12 -22 -10 -23 2 -1 27 -13 56 -26 l52 -23 -52 -29 c-66 -36
-95 -63 -119 -110 -74 -145 85 -281 364 -313 l57 -6 0 -265 c0 -257 -1 -264
-20 -264 -25 0 -25 -3 -1 -73 l19 -55 -76 -6 c-316 -24 -489 -64 -605 -138
-53 -34 -77 -71 -77 -118 0 -63 120 -141 278 -181 28 -7 52 -15 51 -18 0 -3
-45 -35 -99 -70 -181 -118 -336 -280 -405 -426 -63 -133 -60 -70 -60 -1350 l0
-1170 23 -79 c63 -218 255 -471 492 -650 36 -27 67 -51 70 -53 2 -2 -1 -13 -8
-24 -11 -17 -9 -21 12 -29 13 -5 40 -12 60 -15 20 -4 36 -10 36 -14 0 -3 -16
-19 -36 -35 -25 -20 -41 -26 -50 -20 -7 5 -34 24 -58 42 -42 31 -45 31 -51 12
-3 -11 -13 -20 -21 -20 -29 0 -261 93 -389 156 -358 176 -571 383 -657 639
l-23 70 -3 4698 -2 4697 97 0 98 -1 105 -121z m653 -382 c191 -37 311 -147
278 -256 -34 -113 -201 -193 -406 -194 -149 0 -271 36 -349 104 -114 101 -81
226 80 302 119 55 256 71 397 44z m106 -1171 c138 -34 253 -114 263 -185 15
-98 -82 -184 -260 -232 -60 -16 -107 -20 -212 -20 -192 0 -330 40 -425 123
-110 97 -36 236 159 299 128 41 339 48 475 15z m141 -1180 l0 -235 -350 0
-350 0 0 235 0 235 350 0 350 0 0 -235z m172 -436 c296 -233 273 -212 259
-237 -10 -19 -7 -22 29 -33 29 -9 37 -15 30 -24 -7 -8 -9 -101 -8 -251 l3
-239 107 -3 107 -3 -54 -107 c-30 -59 -78 -178 -106 -264 -49 -145 -55 -158
-77 -158 -23 0 -23 -1 -17 -64 l7 -63 -83 -7 c-73 -6 -120 -14 -180 -32 -11
-3 -24 13 -44 56 -16 33 -35 60 -42 60 -7 0 -13 -4 -13 -10 0 -29 -38 1 -122
96 -230 261 -337 462 -385 728 -23 126 -23 447 1 610 9 66 19 124 22 128 3 4
77 8 164 8 l159 0 243 -191z m1028 -539 l0 -230 -350 0 -350 0 0 230 0 230
350 0 350 0 0 -230z m-453 -262 c-3 -7 -46 -119 -96 -248 -117 -300 -108 -281
-126 -274 -22 9 -19 25 31 173 61 180 149 361 176 361 12 0 18 -5 15 -12z
m-175 -684 c123 -28 222 -85 253 -145 22 -42 21 -101 -2 -141 -26 -45 -108
-100 -190 -128 -94 -31 -281 -39 -384 -16 -183 41 -294 138 -275 240 15 78
131 161 269 191 87 19 244 18 329 -1z m183 -1168 c236 -41 390 -113 409 -191
21 -85 -140 -174 -399 -221 -127 -24 -566 -27 -685 -6 -204 37 -354 93 -404
153 -16 18 -26 43 -26 61 0 90 212 182 495 217 117 14 501 6 610 -13z m-659
-430 c54 -8 152 -18 217 -22 98 -5 117 -9 117 -23 1 -9 9 -83 19 -166 10 -82
16 -153 14 -157 -2 -5 -13 -8 -24 -8 -24 0 -24 0 11 -70 l30 -60 -165 0 -165
0 0 -245 0 -245 166 0 166 0 -6 -27 c-8 -39 -42 -340 -66 -583 -55 -559 -69
-1009 -49 -1575 18 -515 19 -479 -8 -483 l-22 -3 24 -56 c14 -30 25 -59 25
-62 0 -4 -34 -13 -75 -19 -41 -6 -100 -21 -132 -32 -31 -11 -59 -16 -62 -12
-31 45 -75 102 -79 102 -3 0 -10 -8 -17 -17 -12 -16 -17 -14 -61 20 -226 175
-372 341 -460 522 -84 175 -79 79 -79 1405 l0 1175 28 80 c67 189 205 346 446
506 57 38 105 69 106 69 1 0 46 -6 101 -14z m774 -751 l0 -235 -355 0 -355 0
0 235 0 235 355 0 355 0 0 -235z m2 -431 c156 -179 182 -214 159 -214 -26 0
-7 -27 37 -52 l47 -27 -67 -1 -68 0 0 -245 0 -245 151 0 c138 0 150 -1 145
-17 -2 -10 -16 -61 -30 -113 -81 -303 -258 -740 -536 -1323 -114 -239 -125
-258 -146 -253 -26 7 -29 0 -39 -81 l-7 -51 -56 5 c-31 3 -58 6 -59 7 -1 1 6
31 17 67 11 35 20 65 20 67 0 1 -11 2 -24 2 -22 0 -23 4 -29 78 -4 42 -12 256
-18 474 -19 611 3 1087 82 1778 16 146 32 280 35 298 l6 32 109 0 109 0 162
-186z m826 -541 l2 -233 -355 0 -355 0 0 235 0 235 353 -3 352 -2 3 -232z m31
-395 c466 -454 442 -430 425 -449 -14 -16 -12 -19 38 -42 l53 -25 -47 -1 -48
-1 0 -238 0 -237 -217 -127 c-345 -200 -549 -312 -823 -449 -236 -118 -256
-126 -264 -108 -5 10 -12 19 -15 19 -4 0 -28 -22 -55 -49 l-48 -48 -36 17
c-21 10 -63 26 -96 35 l-58 17 47 48 c45 46 46 49 27 59 -20 10 -16 20 93 243
275 566 461 1027 560 1386 l28 102 140 0 140 0 156 -152z m1139 -765 l2 -233
-355 0 -355 0 0 228 c0 126 3 232 7 235 4 4 162 6 352 5 l346 -3 3 -232z
m-600 -251 c-5 -14 -137 -130 -243 -215 -257 -207 -535 -350 -945 -488 -79
-27 -147 -49 -151 -49 -4 0 -9 10 -12 22 -5 17 -9 19 -21 9 -12 -10 -17 -9
-25 8 -11 19 4 28 228 140 131 65 314 161 406 211 169 93 583 331 620 356 21
15 149 20 143 6z m-1684 -699 c33 -8 81 -25 107 -38 39 -20 53 -23 80 -15 19
6 47 10 63 10 l30 0 -34 -25 c-30 -22 -35 -23 -50 -10 -31 28 -34 15 -3 -17
42 -45 53 -70 53 -120 0 -70 -50 -126 -154 -174 -237 -108 -605 -42 -678 123
-26 59 -18 102 29 154 106 117 344 165 557 112z m-949 -1159 c132 -17 238 -45
321 -85 67 -31 124 -87 124 -120 0 -79 -131 -157 -335 -199 -404 -84 -931 -27
-1098 119 -30 27 -37 40 -37 71 0 49 25 79 97 117 198 105 569 144 928 97z
m-2215 -965 c87 -20 184 -81 212 -134 41 -75 26 -150 -42 -216 -75 -73 -138
-94 -290 -94 -116 0 -129 2 -185 28 -80 38 -121 71 -145 117 -61 120 24 247
200 296 56 15 190 17 250 3z m755 -2354 l0 -230 -352 -3 -353 -2 0 235 0 235
353 -2 352 -3 0 -230z m1305 0 l0 -235 -350 0 -350 0 0 235 0 235 350 0 350 0
0 -235z m-1670 -510 l0 -265 -26 0 c-17 0 -24 -5 -22 -12 19 -50 39 -120 37
-122 -2 -2 -32 -6 -66 -9 l-62 -5 -5 41 c-3 23 -7 53 -9 67 -1 14 -8 24 -15
23 -6 -2 -17 -4 -24 -5 -20 -5 -50 119 -50 212 -1 93 16 158 74 276 l31 64 69
0 68 0 0 -265z m1989 -27 c267 -206 378 -297 375 -308 -3 -8 -6 -19 -7 -24 -1
-5 18 -15 43 -24 25 -8 39 -17 33 -19 -10 -4 -13 -62 -13 -249 l0 -244 278 0
277 0 162 -193 c133 -158 159 -194 147 -203 -21 -17 -18 -21 34 -54 l47 -30
-72 0 -73 0 0 -163 0 -163 -122 -33 c-361 -98 -709 -261 -903 -423 -152 -128
-252 -274 -302 -443 -16 -56 -18 -185 -23 -1950 -5 -1680 -8 -1909 -23 -2065
-38 -386 -73 -615 -176 -1145 -116 -597 -147 -793 -176 -1110 -31 -349 -35
-567 -35 -2120 0 -1538 1 -1572 20 -1654 49 -202 194 -394 425 -561 96 -69
267 -168 373 -217 42 -19 78 -36 80 -37 8 -8 -13 -36 -23 -32 -8 3 -16 -5 -19
-19 l-6 -23 -97 23 c-603 144 -1033 400 -1191 710 -11 22 -31 74 -43 115 l-24
75 0 6070 0 6070 22 101 c43 194 103 372 189 562 l33 72 205 0 205 0 380 -292z
m-1853 -403 c171 -33 284 -118 284 -215 0 -226 -500 -321 -757 -144 -52 36
-93 98 -93 140 1 35 38 101 72 127 117 90 314 127 494 92z m3004 -220 l0 -235
-355 0 -355 0 0 235 0 235 355 0 355 0 0 -235z m798 -972 l2 -233 -355 0 -355
0 0 228 c0 126 3 232 6 235 4 4 163 6 353 4 l346 -2 3 -232z m249 -63 c391
-50 714 -128 970 -236 376 -157 594 -358 685 -629 l23 -70 5 -4495 c6 -4813 3
-4536 50 -4878 13 -95 13 -102 -4 -102 -28 0 -27 -21 3 -75 l31 -54 -158 -3
-157 -3 0 -245 0 -245 34 -5 c33 -5 33 -5 -85 -91 -199 -145 -380 -253 -551
-328 -356 -156 -839 -286 -1422 -381 -193 -31 -231 -35 -231 -22 0 4 -4 13 -9
20 -6 11 -21 7 -69 -17 l-60 -30 -23 34 c-13 19 -27 35 -32 35 -4 0 4 -18 19
-39 74 -113 11 -225 -164 -292 -80 -30 -261 -38 -352 -15 -175 45 -267 137
-246 249 14 74 119 151 247 182 156 36 376 3 460 -71 11 -10 24 -11 50 -4 18
6 51 10 72 10 34 0 37 2 32 23 -6 22 5 28 157 97 341 153 711 346 1053 551
l140 84 375 5 375 5 0 245 0 245 -157 3 c-181 3 -167 -8 -148 109 25 153 51
439 60 668 7 168 10 1655 8 4515 -3 4045 -4 4268 -21 4330 -55 202 -215 402
-441 551 -112 75 -353 194 -506 252 -102 39 -115 46 -112 65 3 21 -1 22 -67
22 -69 0 -71 1 -71 25 0 22 4 25 40 25 21 0 110 -9 197 -20z m-967 -105 l0
-75 180 0 180 0 0 -265 c0 -250 -1 -265 -18 -265 -30 0 -31 -9 -11 -67 24 -70
24 -73 -1 -73 -47 0 -179 -34 -228 -58 -66 -32 -139 -110 -148 -159 -15 -78
37 -159 134 -211 65 -35 164 -62 230 -62 l42 0 -2 -267 c-3 -268 -3 -268 -25
-271 l-22 -3 22 -63 23 -62 -95 -12 c-306 -37 -464 -199 -334 -343 67 -74 246
-139 383 -139 l50 0 0 -175 0 -175 -25 0 c-30 0 -30 3 -5 -60 11 -28 20 -55
20 -60 0 -6 -69 -10 -175 -10 l-175 0 0 -250 c0 -250 0 -250 22 -250 17 0 1
-20 -75 -97 -310 -313 -418 -624 -418 -1205 0 -200 -1 -208 -19 -208 -25 0
-25 -6 4 -72 l25 -55 -57 -7 c-234 -28 -385 -164 -329 -299 19 -43 88 -104
152 -133 54 -25 182 -54 236 -54 l29 0 0 -265 c0 -258 -1 -265 -20 -265 -24 0
-25 -15 -6 -61 34 -83 37 -79 -51 -79 -247 -1 -554 -84 -627 -171 -36 -42 -41
-71 -20 -114 30 -64 128 -115 297 -158 l86 -22 -70 -55 c-179 -140 -317 -321
-386 -505 -17 -48 -18 -128 -21 -1819 -3 -2028 -11 -1842 93 -2051 69 -139
160 -260 299 -398 80 -80 105 -112 97 -120 -18 -18 -13 -23 37 -42 66 -25 68
-30 28 -55 l-36 -22 -54 47 c-50 43 -55 44 -61 26 -3 -12 -11 -21 -16 -21 -15
0 -225 107 -308 158 -117 70 -218 147 -310 236 -99 96 -159 178 -205 278 -71
153 -68 46 -63 1914 3 1151 8 1720 16 1809 38 437 78 705 186 1254 104 533
145 796 182 1171 15 156 18 385 23 2070 6 2099 1 1928 70 2077 122 264 432
489 896 653 119 42 338 108 362 109 8 1 12 -20 12 -74z m842 -25 c3 0 8 9 11
21 7 25 5 25 167 -38 137 -54 303 -136 412 -204 276 -171 450 -389 488 -609 8
-47 10 -1301 8 -4540 -4 -4866 1 -4467 -53 -4880 -23 -176 -13 -160 -99 -160
-83 0 -77 -5 -91 93 -7 46 -17 58 -30 36 -4 -5 -11 -9 -16 -7 -5 2 -74 122
-153 268 l-143 265 113 3 114 3 0 249 0 250 -254 0 -254 0 -6 28 c-25 101 -26
102 -50 96 -21 -5 -39 19 -195 260 -94 145 -171 267 -171 270 0 3 45 6 100 6
l100 0 -2 248 -3 247 -275 3 -275 2 -24 65 c-21 60 -24 64 -43 54 -25 -14 -18
-21 -192 191 l-136 165 80 3 80 3 0 244 0 245 -190 0 c-104 0 -190 3 -190 8 1
4 7 33 14 64 14 59 10 73 -18 62 -9 -3 -16 -3 -16 0 0 14 -31 282 -36 314 l-5
32 46 0 c153 0 417 51 526 101 120 55 168 135 123 204 -58 89 -314 167 -591
182 -68 3 -123 9 -123 12 0 3 9 30 20 59 26 67 25 72 -5 72 -24 0 -25 2 -25
75 0 65 2 75 18 75 14 0 17 7 14 45 -3 26 -9 43 -15 42 -9 -1 -12 39 -12 143
l0 145 30 3 c70 6 190 35 239 56 94 42 165 125 166 194 0 59 -76 150 -158 186
l-43 19 57 24 c69 28 70 29 54 48 -17 20 -55 -17 355 339 l340 295 313 1 312
0 0 245 0 245 -242 2 -243 3 -10 65 c-10 61 -12 65 -35 62 -23 -2 -34 14 -118
166 -50 93 -92 172 -92 175 0 4 50 7 110 7 l110 0 0 250 0 250 -175 0 c-96 0
-175 4 -175 9 0 5 6 24 14 42 30 73 30 79 2 79 l-26 0 0 175 0 175 50 0 c170
0 367 87 417 183 21 42 12 108 -21 152 -53 69 -189 128 -342 147 -52 7 -94 15
-94 18 0 4 9 32 19 63 11 32 17 58 13 58 -4 1 -14 2 -22 3 -13 1 -15 39 -18
269 l-2 267 42 0 c97 0 227 47 298 107 37 31 69 94 70 136 0 68 -62 145 -154
190 -48 24 -180 57 -226 57 -25 0 -25 3 -1 73 20 58 19 67 -11 67 -16 0 -18
10 -17 113 1 68 4 97 8 73 8 -54 28 -58 23 -5 -3 32 -1 40 9 37 9 -3 14 -19
14 -41 0 -26 4 -37 15 -37 12 0 14 10 12 45 -2 25 -8 43 -12 40 -14 -9 -40 6
-40 23 0 13 -3 12 -15 -4 -13 -17 -14 -3 -12 131 l2 150 178 3 177 2 0 66 0
65 53 -41 c30 -22 56 -40 59 -40z m-312 -757 c264 -73 316 -267 101 -382 -180
-96 -458 -75 -600 45 -65 54 -82 142 -41 208 75 122 338 185 540 129z m25
-1159 c134 -28 252 -101 275 -170 16 -48 4 -90 -41 -139 -149 -162 -618 -180
-811 -32 -61 47 -83 82 -83 131 0 166 344 276 660 210z m165 -1184 l0 -230
-355 0 -355 0 0 230 0 230 355 0 355 0 0 -230z m-136 -426 c53 -96 96 -179 96
-184 0 -5 -8 -14 -17 -19 -16 -9 -12 -15 32 -55 l50 -45 -112 -1 -113 0 0
-244 0 -245 41 -3 40 -3 -348 -302 c-325 -282 -349 -301 -365 -286 -10 9 -20
14 -21 12 -2 -2 -18 -30 -36 -62 -24 -42 -37 -56 -49 -53 -53 16 -114 26 -164
26 -65 0 -65 -1 -43 80 8 30 15 56 15 58 0 1 -11 2 -25 2 l-25 0 0 209 c0 568
110 880 420 1194 l97 97 215 0 216 0 96 -176z m656 -549 l0 -235 -355 0 -355
0 0 235 0 235 355 0 355 0 0 -235z m-1524 -940 c171 -33 284 -118 284 -215 0
-226 -500 -321 -757 -144 -120 83 -118 207 4 284 127 81 297 108 469 75z m204
-1174 c235 -41 391 -122 390 -203 -1 -52 -43 -93 -142 -137 -142 -64 -330 -94
-593 -94 -279 0 -475 35 -618 110 -79 42 -107 73 -107 118 0 103 206 192 523
225 130 14 415 4 547 -19z m-442 -448 c67 -3 122 -10 122 -15 0 -15 30 -281
35 -310 3 -22 1 -28 -14 -28 -31 0 -31 -11 0 -71 l29 -59 -165 0 -165 0 0
-245 0 -245 182 0 181 0 -7 -182 c-16 -436 -71 -838 -157 -1136 -33 -117 -47
-146 -100 -217 -75 -101 -98 -233 -75 -440 8 -77 20 -207 26 -290 24 -344 78
-818 146 -1299 19 -137 33 -255 30 -262 -3 -8 -12 -14 -21 -14 -19 0 -20 2 15
-61 16 -30 30 -57 30 -61 0 -5 -13 -8 -28 -8 -24 0 -71 -11 -158 -36 -18 -5
-27 3 -54 50 -33 58 -39 63 -57 45 -17 -17 -39 0 -144 108 -170 175 -274 334
-332 503 l-32 95 -3 940 c-2 803 -1 937 11 921 10 -14 20 -17 33 -12 18 8 18
9 -3 17 -31 11 -29 29 2 29 14 0 25 4 25 9 0 13 -29 35 -37 27 -3 -3 -1 -6 5
-6 7 0 12 -4 12 -10 0 -5 -7 -10 -15 -10 -8 0 -15 6 -15 13 0 8 -4 7 -10 -3
-6 -10 -10 272 -10 805 0 914 -3 873 69 1020 64 130 181 267 351 410 55 46 55
46 115 41 33 -4 115 -9 183 -13z m560 -730 l2 -233 -355 0 -355 0 0 228 c0
126 3 232 7 235 4 4 162 6 352 5 l346 -3 3 -232z m-11 -435 c149 -179 160
-194 145 -211 -8 -9 -13 -19 -11 -20 2 -2 24 -16 49 -30 l45 -27 -72 0 -73 0
0 -250 0 -250 166 0 166 0 -6 -37 c-61 -408 -140 -735 -235 -980 -56 -144 -75
-176 -138 -245 -67 -73 -113 -167 -182 -373 -106 -320 -188 -719 -236 -1156
l-6 -56 -38 0 -37 0 -28 196 c-76 537 -123 947 -156 1366 -11 143 -24 297 -30
343 -17 154 13 295 86 392 52 68 81 146 124 325 71 298 113 634 126 1003 3 97
7 183 10 190 2 8 29 12 87 12 l84 0 160 -192z m803 -538 l0 -230 -355 0 -355
0 0 230 0 230 355 0 355 0 0 -230z m-153 -342 c33 -51 113 -176 178 -277 114
-176 118 -184 99 -198 -21 -16 -20 -17 54 -72 l27 -20 -97 -1 -98 0 0 -250 0
-250 95 0 c52 0 95 -2 95 -5 0 -3 -35 -58 -78 -123 -268 -399 -465 -720 -558
-905 -124 -246 -266 -468 -406 -634 -69 -82 -81 -92 -93 -73 -12 20 -23 9 -49
-51 -23 -53 -29 -60 -49 -56 -12 4 -42 9 -67 12 -25 4 -55 8 -68 11 l-22 4 25
50 c31 60 32 80 4 80 -24 0 -24 -9 17 295 59 430 160 833 279 1117 25 60 53
106 89 146 78 87 91 109 140 228 99 245 186 585 242 952 l17 112 82 0 83 0 59
-92z m883 -818 l0 -230 -355 0 -355 0 0 230 0 230 355 0 355 0 0 -230z m-87
-522 c144 -267 147 -273 127 -288 -20 -15 -19 -16 27 -55 l48 -40 -110 -5
-110 -5 -3 -241 -2 -240 -198 -116 c-392 -230 -706 -393 -1047 -543 l-130 -57
-14 22 c-14 21 -15 21 -62 -26 l-48 -48 -51 24 c-27 13 -50 26 -50 30 0 4 23
19 51 35 45 24 49 29 36 42 -14 14 -6 26 67 117 158 196 240 324 421 666 110
209 203 360 451 738 l173 262 138 0 139 0 147 -272z m697 -638 l0 -230 -350 0
-350 0 0 230 0 230 350 0 350 0 0 -230z m960 0 l0 -230 -350 0 -350 0 0 230 0
230 350 0 350 0 0 -230z m-552 -292 c-63 -80 -202 -220 -282 -284 -143 -115
-438 -250 -750 -344 -326 -97 -724 -169 -1111 -200 -71 -5 -160 -12 -196 -15
-56 -5 -67 -3 -73 11 -4 9 -4 19 -2 22 3 2 90 18 193 33 685 106 1307 288
1658 486 110 62 361 229 440 292 44 35 57 40 103 40 l54 1 -34 -42z m-5618
-1618 c217 -23 375 -72 454 -141 40 -35 46 -46 46 -79 0 -86 -122 -160 -337
-204 -346 -72 -829 -15 -977 115 -69 61 -70 115 -2 172 65 54 220 107 371 126
50 6 101 13 115 15 53 7 239 5 330 -4z"/>
<path d="M1887 23907 c-24 -60 -26 -62 -59 -60 -129 9 -249 5 -305 -10 -123
-32 -207 -87 -244 -159 -24 -47 -24 -89 0 -137 56 -109 208 -175 406 -175 153
0 270 35 350 106 135 118 78 270 -130 348 l-29 11 54 30 c29 16 56 31 58 34 7
6 -37 53 -60 66 -13 7 -20 -2 -41 -54z m-49 -82 c130 -31 241 -112 256 -187
22 -109 -99 -215 -284 -250 -30 -6 -104 -8 -165 -5 -87 4 -125 11 -183 32 -89
34 -167 99 -182 153 -29 106 76 215 248 256 76 19 232 19 310 1z"/>
<path d="M290 3455 l0 -3365 6980 0 6980 0 0 3365 0 3365 -6980 0 -6980 0 0
-3365z m1320 3220 l0 -135 -650 0 -650 0 0 135 0 135 650 0 650 0 0 -135z
m12630 0 l0 -135 -6305 0 -6305 0 0 135 0 135 6305 0 6305 0 0 -135z m-12630
-285 l0 -130 -650 0 -650 0 0 130 0 130 650 0 650 0 0 -130z m1390 0 l0 -130
-685 0 -685 0 0 130 0 130 685 0 685 0 0 -130z m1160 0 l0 -130 -570 0 -570 0
0 130 0 130 570 0 570 0 0 -130z m1370 0 l0 -130 -675 0 -675 0 0 130 0 130
675 0 675 0 0 -130z m1150 0 l0 -130 -565 0 -565 0 0 130 0 130 565 0 565 0 0
-130z m800 0 l0 -130 -390 0 -390 0 0 130 0 130 390 0 390 0 0 -130z m780 0
l0 -130 -380 0 -380 0 0 130 0 130 380 0 380 0 0 -130z m620 0 l0 -130 -300 0
-300 0 0 130 0 130 300 0 300 0 0 -130z m610 0 l0 -130 -295 0 -295 0 0 130 0
130 295 0 295 0 0 -130z m530 0 l0 -130 -255 0 -255 0 0 130 0 130 255 0 255
0 0 -130z m620 0 l0 -130 -300 0 -300 0 0 130 0 130 300 0 300 0 0 -130z m610
0 l0 -130 -295 0 -295 0 0 130 0 130 295 0 295 0 0 -130z m610 0 l0 -130 -295
0 -295 0 0 130 0 130 295 0 295 0 0 -130z m540 0 l0 -130 -260 0 -260 0 0 130
0 130 260 0 260 0 0 -130z m610 0 l0 -130 -295 0 -295 0 0 130 0 130 295 0
295 0 0 -130z m610 0 l0 -130 -295 0 -295 0 0 130 0 130 295 0 295 0 0 -130z
m620 0 l0 -130 -300 0 -300 0 0 130 0 130 300 0 300 0 0 -130z m-12630 -280
l0 -130 -650 0 -650 0 0 130 0 130 650 0 650 0 0 -130z m1390 0 l0 -130 -685
0 -685 0 0 130 0 130 685 0 685 0 0 -130z m1160 0 l0 -130 -570 0 -570 0 0
130 0 130 570 0 570 0 0 -130z m1370 0 l0 -130 -675 0 -675 0 0 130 0 130 675
0 675 0 0 -130z m1150 0 l0 -130 -565 0 -565 0 0 130 0 130 565 0 565 0 0
-130z m800 0 l0 -130 -390 0 -390 0 0 130 0 130 390 0 390 0 0 -130z m780 0
l0 -130 -380 0 -380 0 0 130 0 130 380 0 380 0 0 -130z m620 0 l0 -130 -300 0
-300 0 0 130 0 130 300 0 300 0 0 -130z m610 0 l0 -130 -295 0 -295 0 0 130 0
130 295 0 295 0 0 -130z m530 0 l0 -130 -255 0 -255 0 0 130 0 130 255 0 255
0 0 -130z m620 0 l0 -130 -300 0 -300 0 0 130 0 130 300 0 300 0 0 -130z m610
0 l0 -130 -295 0 -295 0 0 130 0 130 295 0 295 0 0 -130z m610 0 l0 -130 -295
0 -295 0 0 130 0 130 295 0 295 0 0 -130z m540 0 l0 -130 -260 0 -260 0 0 130
0 130 260 0 260 0 0 -130z m610 0 l0 -130 -295 0 -295 0 0 130 0 130 295 0
295 0 0 -130z m610 0 l0 -130 -295 0 -295 0 0 130 0 130 295 0 295 0 0 -130z
m620 0 l0 -130 -300 0 -300 0 0 130 0 130 300 0 300 0 0 -130z m-12630 -280
l0 -130 -650 0 -650 0 0 130 0 130 650 0 650 0 0 -130z m1390 0 l0 -130 -685
0 -685 0 0 130 0 130 685 0 685 0 0 -130z m1160 0 l0 -130 -570 0 -570 0 0
130 0 130 570 0 570 0 0 -130z m1370 0 l0 -130 -675 0 -675 0 0 130 0 130 675
0 675 0 0 -130z m1150 0 l0 -130 -565 0 -565 0 0 130 0 130 565 0 565 0 0
-130z m800 0 l0 -130 -390 0 -390 0 0 130 0 130 390 0 390 0 0 -130z m780 0
l0 -130 -380 0 -380 0 0 130 0 130 380 0 380 0 0 -130z m620 0 l0 -130 -300 0
-300 0 0 130 0 130 300 0 300 0 0 -130z m610 0 l0 -130 -295 0 -295 0 0 130 0
130 295 0 295 0 0 -130z m530 0 l0 -130 -255 0 -255 0 0 130 0 130 255 0 255
0 0 -130z m620 0 l0 -130 -300 0 -300 0 0 130 0 130 300 0 300 0 0 -130z m610
0 l0 -130 -295 0 -295 0 0 130 0 130 295 0 295 0 0 -130z m610 0 l0 -130 -295
0 -295 0 0 130 0 130 295 0 295 0 0 -130z m540 0 l0 -130 -260 0 -260 0 0 130
0 130 260 0 260 0 0 -130z m610 0 l0 -130 -295 0 -295 0 0 130 0 130 295 0
295 0 0 -130z m610 0 l0 -130 -295 0 -295 0 0 130 0 130 295 0 295 0 0 -130z
m620 0 l0 -130 -300 0 -300 0 0 130 0 130 300 0 300 0 0 -130z m-12630 -280
l0 -130 -650 0 -650 0 0 130 0 130 650 0 650 0 0 -130z m1390 0 l0 -130 -685
0 -685 0 0 130 0 130 685 0 685 0 0 -130z m1160 0 l0 -130 -570 0 -570 0 0
130 0 130 570 0 570 0 0 -130z m1370 0 l0 -130 -675 0 -675 0 0 130 0 130 675
0 675 0 0 -130z m1150 0 l0 -130 -565 0 -565 0 0 130 0 130 565 0 565 0 0
-130z m800 0 l0 -130 -390 0 -390 0 0 130 0 130 390 0 390 0 0 -130z m780 0
l0 -130 -380 0 -380 0 0 130 0 130 380 0 380 0 0 -130z m620 0 l0 -130 -300 0
-300 0 0 130 0 130 300 0 300 0 0 -130z m610 0 l0 -130 -295 0 -295 0 0 130 0
130 295 0 295 0 0 -130z m530 0 l0 -130 -255 0 -255 0 0 130 0 130 255 0 255
0 0 -130z m620 0 l0 -130 -300 0 -300 0 0 130 0 130 300 0 300 0 0 -130z m610
0 l0 -130 -295 0 -295 0 0 130 0 130 295 0 295 0 0 -130z m610 0 l0 -130 -295
0 -295 0 0 130 0 130 295 0 295 0 0 -130z m540 0 l0 -130 -260 0 -260 0 0 130
0 130 260 0 260 0 0 -130z m610 0 l0 -130 -295 0 -295 0 0 130 0 130 295 0
295 0 0 -130z m610 0 l0 -130 -295 0 -295 0 0 130 0 130 295 0 295 0 0 -130z
m620 0 l0 -130 -300 0 -300 0 0 130 0 130 300 0 300 0 0 -130z m-12630 -280
l0 -130 -650 0 -650 0 0 130 0 130 650 0 650 0 0 -130z m1390 0 l0 -130 -685
0 -685 0 0 130 0 130 685 0 685 0 0 -130z m1160 0 l0 -130 -570 0 -570 0 0
130 0 130 570 0 570 0 0 -130z m1370 0 l0 -130 -675 0 -675 0 0 130 0 130 675
0 675 0 0 -130z m1150 0 l0 -130 -565 0 -565 0 0 130 0 130 565 0 565 0 0
-130z m800 0 l0 -130 -390 0 -390 0 0 130 0 130 390 0 390 0 0 -130z m780 0
l0 -130 -380 0 -380 0 0 130 0 130 380 0 380 0 0 -130z m620 0 l0 -130 -300 0
-300 0 0 130 0 130 300 0 300 0 0 -130z m610 0 l0 -130 -295 0 -295 0 0 130 0
130 295 0 295 0 0 -130z m530 0 l0 -130 -255 0 -255 0 0 130 0 130 255 0 255
0 0 -130z m620 0 l0 -130 -300 0 -300 0 0 130 0 130 300 0 300 0 0 -130z m610
0 l0 -130 -295 0 -295 0 0 130 0 130 295 0 295 0 0 -130z m610 0 l0 -130 -295
0 -295 0 0 130 0 130 295 0 295 0 0 -130z m540 0 l0 -130 -260 0 -260 0 0 130
0 130 260 0 260 0 0 -130z m610 0 l0 -130 -295 0 -295 0 0 130 0 130 295 0
295 0 0 -130z m610 0 l0 -130 -295 0 -295 0 0 130 0 130 295 0 295 0 0 -130z
m620 0 l0 -130 -300 0 -300 0 0 130 0 130 300 0 300 0 0 -130z m-12630 -280
l0 -130 -650 0 -650 0 0 130 0 130 650 0 650 0 0 -130z m1390 0 l0 -130 -685
0 -685 0 0 130 0 130 685 0 685 0 0 -130z m1160 0 l0 -130 -570 0 -570 0 0
130 0 130 570 0 570 0 0 -130z m1370 0 l0 -130 -675 0 -675 0 0 130 0 130 675
0 675 0 0 -130z m1150 0 l0 -130 -565 0 -565 0 0 130 0 130 565 0 565 0 0
-130z m800 0 l0 -130 -390 0 -390 0 0 130 0 130 390 0 390 0 0 -130z m780 0
l0 -130 -380 0 -380 0 0 130 0 130 380 0 380 0 0 -130z m620 0 l0 -130 -300 0
-300 0 0 130 0 130 300 0 300 0 0 -130z m610 0 l0 -130 -295 0 -295 0 0 130 0
130 295 0 295 0 0 -130z m530 0 l0 -130 -255 0 -255 0 0 130 0 130 255 0 255
0 0 -130z m620 0 l0 -130 -300 0 -300 0 0 130 0 130 300 0 300 0 0 -130z m610
0 l0 -130 -295 0 -295 0 0 130 0 130 295 0 295 0 0 -130z m610 0 l0 -130 -295
0 -295 0 0 130 0 130 295 0 295 0 0 -130z m540 0 l0 -130 -260 0 -260 0 0 130
0 130 260 0 260 0 0 -130z m610 0 l0 -130 -295 0 -295 0 0 130 0 130 295 0
295 0 0 -130z m610 0 l0 -130 -295 0 -295 0 0 130 0 130 295 0 295 0 0 -130z
m620 0 l0 -130 -300 0 -300 0 0 130 0 130 300 0 300 0 0 -130z m-12630 -280
l0 -130 -650 0 -650 0 0 130 0 130 650 0 650 0 0 -130z m1390 0 l0 -130 -685
0 -685 0 0 130 0 130 685 0 685 0 0 -130z m1160 0 l0 -130 -570 0 -570 0 0
130 0 130 570 0 570 0 0 -130z m1370 0 l0 -130 -675 0 -675 0 0 130 0 130 675
0 675 0 0 -130z m1150 0 l0 -130 -565 0 -565 0 0 130 0 130 565 0 565 0 0
-130z m800 0 l0 -130 -390 0 -390 0 0 130 0 130 390 0 390 0 0 -130z m780 0
l0 -130 -380 0 -380 0 0 130 0 130 380 0 380 0 0 -130z m620 0 l0 -130 -300 0
-300 0 0 130 0 130 300 0 300 0 0 -130z m610 0 l0 -130 -295 0 -295 0 0 130 0
130 295 0 295 0 0 -130z m530 0 l0 -130 -255 0 -255 0 0 130 0 130 255 0 255
0 0 -130z m620 0 l0 -130 -300 0 -300 0 0 130 0 130 300 0 300 0 0 -130z m610
0 l0 -130 -295 0 -295 0 0 130 0 130 295 0 295 0 0 -130z m610 0 l0 -130 -295
0 -295 0 0 130 0 130 295 0 295 0 0 -130z m540 0 l0 -130 -260 0 -260 0 0 130
0 130 260 0 260 0 0 -130z m610 0 l0 -130 -295 0 -295 0 0 130 0 130 295 0
295 0 0 -130z m610 0 l0 -130 -295 0 -295 0 0 130 0 130 295 0 295 0 0 -130z
m620 0 l0 -130 -300 0 -300 0 0 130 0 130 300 0 300 0 0 -130z m-12630 -280
l0 -130 -650 0 -650 0 0 130 0 130 650 0 650 0 0 -130z m1390 0 l0 -130 -685
0 -685 0 0 130 0 130 685 0 685 0 0 -130z m1160 0 l0 -130 -570 0 -570 0 0
130 0 130 570 0 570 0 0 -130z m1370 0 l0 -130 -675 0 -675 0 0 130 0 130 675
0 675 0 0 -130z m1150 0 l0 -130 -565 0 -565 0 0 130 0 130 565 0 565 0 0
-130z m800 0 l0 -130 -390 0 -390 0 0 130 0 130 390 0 390 0 0 -130z m780 0
l0 -130 -380 0 -380 0 0 130 0 130 380 0 380 0 0 -130z m620 0 l0 -130 -300 0
-300 0 0 130 0 130 300 0 300 0 0 -130z m610 0 l0 -130 -295 0 -295 0 0 130 0
130 295 0 295 0 0 -130z m530 0 l0 -130 -255 0 -255 0 0 130 0 130 255 0 255
0 0 -130z m620 0 l0 -130 -300 0 -300 0 0 130 0 130 300 0 300 0 0 -130z m610
0 l0 -130 -295 0 -295 0 0 130 0 130 295 0 295 0 0 -130z m610 0 l0 -130 -295
0 -295 0 0 130 0 130 295 0 295 0 0 -130z m540 0 l0 -130 -260 0 -260 0 0 130
0 130 260 0 260 0 0 -130z m610 0 l0 -130 -295 0 -295 0 0 130 0 130 295 0
295 0 0 -130z m610 0 l0 -130 -295 0 -295 0 0 130 0 130 295 0 295 0 0 -130z
m620 0 l0 -130 -300 0 -300 0 0 130 0 130 300 0 300 0 0 -130z m-12630 -280
l0 -130 -650 0 -650 0 0 130 0 130 650 0 650 0 0 -130z m1390 0 l0 -130 -685
0 -685 0 0 130 0 130 685 0 685 0 0 -130z m1160 0 l0 -130 -570 0 -570 0 0
130 0 130 570 0 570 0 0 -130z m1370 0 l0 -130 -675 0 -675 0 0 130 0 130 675
0 675 0 0 -130z m1150 0 l0 -130 -565 0 -565 0 0 130 0 130 565 0 565 0 0
-130z m800 0 l0 -130 -390 0 -390 0 0 130 0 130 390 0 390 0 0 -130z m780 0
l0 -130 -380 0 -380 0 0 130 0 130 380 0 380 0 0 -130z m620 0 l0 -130 -300 0
-300 0 0 130 0 130 300 0 300 0 0 -130z m610 0 l0 -130 -295 0 -295 0 0 130 0
130 295 0 295 0 0 -130z m530 0 l0 -130 -255 0 -255 0 0 130 0 130 255 0 255
0 0 -130z m620 0 l0 -130 -300 0 -300 0 0 130 0 130 300 0 300 0 0 -130z m610
0 l0 -130 -295 0 -295 0 0 130 0 130 295 0 295 0 0 -130z m610 0 l0 -130 -295
0 -295 0 0 130 0 130 295 0 295 0 0 -130z m540 0 l0 -130 -260 0 -260 0 0 130
0 130 260 0 260 0 0 -130z m610 0 l0 -130 -295 0 -295 0 0 130 0 130 295 0
295 0 0 -130z m610 0 l0 -130 -295 0 -295 0 0 130 0 130 295 0 295 0 0 -130z
m620 0 l0 -130 -300 0 -300 0 0 130 0 130 300 0 300 0 0 -130z m-12630 -280
l0 -130 -650 0 -650 0 0 130 0 130 650 0 650 0 0 -130z m1390 0 l0 -130 -685
0 -685 0 0 130 0 130 685 0 685 0 0 -130z m1160 0 l0 -130 -570 0 -570 0 0
130 0 130 570 0 570 0 0 -130z m1370 0 l0 -130 -675 0 -675 0 0 130 0 130 675
0 675 0 0 -130z m1150 0 l0 -130 -565 0 -565 0 0 130 0 130 565 0 565 0 0
-130z m800 0 l0 -130 -390 0 -390 0 0 130 0 130 390 0 390 0 0 -130z m780 0
l0 -130 -380 0 -380 0 0 130 0 130 380 0 380 0 0 -130z m620 0 l0 -130 -300 0
-300 0 0 130 0 130 300 0 300 0 0 -130z m610 0 l0 -130 -295 0 -295 0 0 130 0
130 295 0 295 0 0 -130z m530 0 l0 -130 -255 0 -255 0 0 130 0 130 255 0 255
0 0 -130z m620 0 l0 -130 -300 0 -300 0 0 130 0 130 300 0 300 0 0 -130z m610
0 l0 -130 -295 0 -295 0 0 130 0 130 295 0 295 0 0 -130z m610 0 l0 -130 -295
0 -295 0 0 130 0 130 295 0 295 0 0 -130z m540 0 l0 -130 -260 0 -260 0 0 130
0 130 260 0 260 0 0 -130z m610 0 l0 -130 -295 0 -295 0 0 130 0 130 295 0
295 0 0 -130z m610 0 l0 -130 -295 0 -295 0 0 130 0 130 295 0 295 0 0 -130z
m620 0 l0 -130 -300 0 -300 0 0 130 0 130 300 0 300 0 0 -130z m-12630 -280
l0 -130 -650 0 -650 0 0 130 0 130 650 0 650 0 0 -130z m1390 0 l0 -130 -685
0 -685 0 0 130 0 130 685 0 685 0 0 -130z m1160 0 l0 -130 -570 0 -570 0 0
130 0 130 570 0 570 0 0 -130z m1370 0 l0 -130 -675 0 -675 0 0 130 0 130 675
0 675 0 0 -130z m1150 0 l0 -130 -565 0 -565 0 0 130 0 130 565 0 565 0 0
-130z m800 0 l0 -130 -390 0 -390 0 0 130 0 130 390 0 390 0 0 -130z m780 0
l0 -130 -380 0 -380 0 0 130 0 130 380 0 380 0 0 -130z m620 0 l0 -130 -300 0
-300 0 0 130 0 130 300 0 300 0 0 -130z m610 0 l0 -130 -295 0 -295 0 0 130 0
130 295 0 295 0 0 -130z m530 0 l0 -130 -255 0 -255 0 0 130 0 130 255 0 255
0 0 -130z m620 0 l0 -130 -300 0 -300 0 0 130 0 130 300 0 300 0 0 -130z m610
0 l0 -130 -295 0 -295 0 0 130 0 130 295 0 295 0 0 -130z m610 0 l0 -130 -295
0 -295 0 0 130 0 130 295 0 295 0 0 -130z m540 0 l0 -130 -260 0 -260 0 0 130
0 130 260 0 260 0 0 -130z m610 0 l0 -130 -295 0 -295 0 0 130 0 130 295 0
295 0 0 -130z m610 0 l0 -130 -295 0 -295 0 0 130 0 130 295 0 295 0 0 -130z
m620 0 l0 -130 -300 0 -300 0 0 130 0 130 300 0 300 0 0 -130z m-12630 -280
l0 -130 -650 0 -650 0 0 130 0 130 650 0 650 0 0 -130z m1390 0 l0 -130 -685
0 -685 0 0 130 0 130 685 0 685 0 0 -130z m1160 0 l0 -130 -570 0 -570 0 0
130 0 130 570 0 570 0 0 -130z m1370 0 l0 -130 -675 0 -675 0 0 130 0 130 675
0 675 0 0 -130z m1150 0 l0 -130 -565 0 -565 0 0 130 0 130 565 0 565 0 0
-130z m800 0 l0 -130 -390 0 -390 0 0 130 0 130 390 0 390 0 0 -130z m780 0
l0 -130 -380 0 -380 0 0 130 0 130 380 0 380 0 0 -130z m620 0 l0 -130 -300 0
-300 0 0 130 0 130 300 0 300 0 0 -130z m610 0 l0 -130 -295 0 -295 0 0 130 0
130 295 0 295 0 0 -130z m530 0 l0 -130 -255 0 -255 0 0 130 0 130 255 0 255
0 0 -130z m620 0 l0 -130 -300 0 -300 0 0 130 0 130 300 0 300 0 0 -130z m610
0 l0 -130 -295 0 -295 0 0 130 0 130 295 0 295 0 0 -130z m610 0 l0 -130 -295
0 -295 0 0 130 0 130 295 0 295 0 0 -130z m540 0 l0 -130 -260 0 -260 0 0 130
0 130 260 0 260 0 0 -130z m610 0 l0 -130 -295 0 -295 0 0 130 0 130 295 0
295 0 0 -130z m610 0 l0 -130 -295 0 -295 0 0 130 0 130 295 0 295 0 0 -130z
m620 0 l0 -130 -300 0 -300 0 0 130 0 130 300 0 300 0 0 -130z m-12630 -280
l0 -130 -650 0 -650 0 0 130 0 130 650 0 650 0 0 -130z m1390 0 l0 -130 -685
0 -685 0 0 130 0 130 685 0 685 0 0 -130z m1160 0 l0 -130 -570 0 -570 0 0
130 0 130 570 0 570 0 0 -130z m1370 0 l0 -130 -675 0 -675 0 0 130 0 130 675
0 675 0 0 -130z m1150 0 l0 -130 -565 0 -565 0 0 130 0 130 565 0 565 0 0
-130z m800 0 l0 -130 -390 0 -390 0 0 130 0 130 390 0 390 0 0 -130z m780 0
l0 -130 -380 0 -380 0 0 130 0 130 380 0 380 0 0 -130z m620 0 l0 -130 -300 0
-300 0 0 130 0 130 300 0 300 0 0 -130z m610 0 l0 -130 -295 0 -295 0 0 130 0
130 295 0 295 0 0 -130z m530 0 l0 -130 -255 0 -255 0 0 130 0 130 255 0 255
0 0 -130z m620 0 l0 -130 -300 0 -300 0 0 130 0 130 300 0 300 0 0 -130z m610
0 l0 -130 -295 0 -295 0 0 130 0 130 295 0 295 0 0 -130z m610 0 l0 -130 -295
0 -295 0 0 130 0 130 295 0 295 0 0 -130z m540 0 l0 -130 -260 0 -260 0 0 130
0 130 260 0 260 0 0 -130z m610 0 l0 -130 -295 0 -295 0 0 130 0 130 295 0
295 0 0 -130z m610 0 l0 -130 -295 0 -295 0 0 130 0 130 295 0 295 0 0 -130z
m620 0 l0 -130 -300 0 -300 0 0 130 0 130 300 0 300 0 0 -130z m-12630 -280
l0 -130 -650 0 -650 0 0 130 0 130 650 0 650 0 0 -130z m1390 0 l0 -130 -685
0 -685 0 0 130 0 130 685 0 685 0 0 -130z m1160 0 l0 -130 -570 0 -570 0 0
130 0 130 570 0 570 0 0 -130z m1370 0 l0 -130 -675 0 -675 0 0 130 0 130 675
0 675 0 0 -130z m1150 0 l0 -130 -565 0 -565 0 0 130 0 130 565 0 565 0 0
-130z m800 0 l0 -130 -390 0 -390 0 0 130 0 130 390 0 390 0 0 -130z m780 0
l0 -130 -380 0 -380 0 0 130 0 130 380 0 380 0 0 -130z m620 0 l0 -130 -300 0
-300 0 0 130 0 130 300 0 300 0 0 -130z m610 0 l0 -130 -295 0 -295 0 0 130 0
130 295 0 295 0 0 -130z m530 0 l0 -130 -255 0 -255 0 0 130 0 130 255 0 255
0 0 -130z m620 0 l0 -130 -300 0 -300 0 0 130 0 130 300 0 300 0 0 -130z m610
0 l0 -130 -295 0 -295 0 0 130 0 130 295 0 295 0 0 -130z m610 0 l0 -130 -295
0 -295 0 0 130 0 130 295 0 295 0 0 -130z m540 0 l0 -130 -260 0 -260 0 0 130
0 130 260 0 260 0 0 -130z m610 0 l0 -130 -295 0 -295 0 0 130 0 130 295 0
295 0 0 -130z m610 0 l0 -130 -295 0 -295 0 0 130 0 130 295 0 295 0 0 -130z
m620 0 l0 -130 -300 0 -300 0 0 130 0 130 300 0 300 0 0 -130z m-12630 -280
l0 -130 -650 0 -650 0 0 130 0 130 650 0 650 0 0 -130z m1390 0 l0 -130 -685
0 -685 0 0 130 0 130 685 0 685 0 0 -130z m1160 0 l0 -130 -570 0 -570 0 0
130 0 130 570 0 570 0 0 -130z m1370 0 l0 -130 -675 0 -675 0 0 130 0 130 675
0 675 0 0 -130z m1150 0 l0 -130 -565 0 -565 0 0 130 0 130 565 0 565 0 0
-130z m800 0 l0 -130 -390 0 -390 0 0 130 0 130 390 0 390 0 0 -130z m780 0
l0 -130 -380 0 -380 0 0 130 0 130 380 0 380 0 0 -130z m620 0 l0 -130 -300 0
-300 0 0 130 0 130 300 0 300 0 0 -130z m610 0 l0 -130 -295 0 -295 0 0 130 0
130 295 0 295 0 0 -130z m530 0 l0 -130 -255 0 -255 0 0 130 0 130 255 0 255
0 0 -130z m620 0 l0 -130 -300 0 -300 0 0 130 0 130 300 0 300 0 0 -130z m610
0 l0 -130 -295 0 -295 0 0 130 0 130 295 0 295 0 0 -130z m610 0 l0 -130 -295
0 -295 0 0 130 0 130 295 0 295 0 0 -130z m540 0 l0 -130 -260 0 -260 0 0 130
0 130 260 0 260 0 0 -130z m610 0 l0 -130 -295 0 -295 0 0 130 0 130 295 0
295 0 0 -130z m610 0 l0 -130 -295 0 -295 0 0 130 0 130 295 0 295 0 0 -130z
m620 0 l0 -130 -300 0 -300 0 0 130 0 130 300 0 300 0 0 -130z m-12630 -280
l0 -130 -650 0 -650 0 0 130 0 130 650 0 650 0 0 -130z m1390 0 l0 -130 -685
0 -685 0 0 130 0 130 685 0 685 0 0 -130z m1160 0 l0 -130 -570 0 -570 0 0
130 0 130 570 0 570 0 0 -130z m1370 0 l0 -130 -675 0 -675 0 0 130 0 130 675
0 675 0 0 -130z m1150 0 l0 -130 -565 0 -565 0 0 130 0 130 565 0 565 0 0
-130z m800 0 l0 -130 -390 0 -390 0 0 130 0 130 390 0 390 0 0 -130z m780 0
l0 -130 -380 0 -380 0 0 130 0 130 380 0 380 0 0 -130z m620 0 l0 -130 -300 0
-300 0 0 130 0 130 300 0 300 0 0 -130z m610 0 l0 -130 -295 0 -295 0 0 130 0
130 295 0 295 0 0 -130z m530 0 l0 -130 -255 0 -255 0 0 130 0 130 255 0 255
0 0 -130z m620 0 l0 -130 -300 0 -300 0 0 130 0 130 300 0 300 0 0 -130z m610
0 l0 -130 -295 0 -295 0 0 130 0 130 295 0 295 0 0 -130z m610 0 l0 -130 -295
0 -295 0 0 130 0 130 295 0 295 0 0 -130z m540 0 l0 -130 -260 0 -260 0 0 130
0 130 260 0 260 0 0 -130z m610 0 l0 -130 -295 0 -295 0 0 130 0 130 295 0
295 0 0 -130z m610 0 l0 -130 -295 0 -295 0 0 130 0 130 295 0 295 0 0 -130z
m620 0 l0 -130 -300 0 -300 0 0 130 0 130 300 0 300 0 0 -130z m-12630 -280
l0 -130 -650 0 -650 0 0 130 0 130 650 0 650 0 0 -130z m1390 0 l0 -130 -685
0 -685 0 0 130 0 130 685 0 685 0 0 -130z m1160 0 l0 -130 -570 0 -570 0 0
130 0 130 570 0 570 0 0 -130z m1370 0 l0 -130 -675 0 -675 0 0 130 0 130 675
0 675 0 0 -130z m1150 0 l0 -130 -565 0 -565 0 0 130 0 130 565 0 565 0 0
-130z m800 0 l0 -130 -390 0 -390 0 0 130 0 130 390 0 390 0 0 -130z m780 0
l0 -130 -380 0 -380 0 0 130 0 130 380 0 380 0 0 -130z m620 0 l0 -130 -300 0
-300 0 0 130 0 130 300 0 300 0 0 -130z m610 0 l0 -130 -295 0 -295 0 0 130 0
130 295 0 295 0 0 -130z m530 0 l0 -130 -255 0 -255 0 0 130 0 130 255 0 255
0 0 -130z m620 0 l0 -130 -300 0 -300 0 0 130 0 130 300 0 300 0 0 -130z m610
0 l0 -130 -295 0 -295 0 0 130 0 130 295 0 295 0 0 -130z m610 0 l0 -130 -295
0 -295 0 0 130 0 130 295 0 295 0 0 -130z m540 0 l0 -130 -260 0 -260 0 0 130
0 130 260 0 260 0 0 -130z m610 0 l0 -130 -295 0 -295 0 0 130 0 130 295 0
295 0 0 -130z m610 0 l0 -130 -295 0 -295 0 0 130 0 130 295 0 295 0 0 -130z
m620 0 l0 -130 -300 0 -300 0 0 130 0 130 300 0 300 0 0 -130z m-12630 -280
l0 -130 -650 0 -650 0 0 130 0 130 650 0 650 0 0 -130z m1390 0 l0 -130 -685
0 -685 0 0 130 0 130 685 0 685 0 0 -130z m1160 0 l0 -130 -570 0 -570 0 0
130 0 130 570 0 570 0 0 -130z m1370 0 l0 -130 -675 0 -675 0 0 130 0 130 675
0 675 0 0 -130z m1150 0 l0 -130 -565 0 -565 0 0 130 0 130 565 0 565 0 0
-130z m800 0 l0 -130 -390 0 -390 0 0 130 0 130 390 0 390 0 0 -130z m780 0
l0 -130 -380 0 -380 0 0 130 0 130 380 0 380 0 0 -130z m620 0 l0 -130 -300 0
-300 0 0 130 0 130 300 0 300 0 0 -130z m610 0 l0 -130 -295 0 -295 0 0 130 0
130 295 0 295 0 0 -130z m530 0 l0 -130 -255 0 -255 0 0 130 0 130 255 0 255
0 0 -130z m620 0 l0 -130 -300 0 -300 0 0 130 0 130 300 0 300 0 0 -130z m610
0 l0 -130 -295 0 -295 0 0 130 0 130 295 0 295 0 0 -130z m610 0 l0 -130 -295
0 -295 0 0 130 0 130 295 0 295 0 0 -130z m540 0 l0 -130 -260 0 -260 0 0 130
0 130 260 0 260 0 0 -130z m610 0 l0 -130 -295 0 -295 0 0 130 0 130 295 0
295 0 0 -130z m610 0 l0 -130 -295 0 -295 0 0 130 0 130 295 0 295 0 0 -130z
m620 0 l0 -130 -300 0 -300 0 0 130 0 130 300 0 300 0 0 -130z m-12630 -280
l0 -130 -650 0 -650 0 0 130 0 130 650 0 650 0 0 -130z m1390 0 l0 -130 -685
0 -685 0 0 130 0 130 685 0 685 0 0 -130z m1160 0 l0 -130 -570 0 -570 0 0
130 0 130 570 0 570 0 0 -130z m1370 0 l0 -130 -675 0 -675 0 0 130 0 130 675
0 675 0 0 -130z m1150 0 l0 -130 -565 0 -565 0 0 130 0 130 565 0 565 0 0
-130z m800 0 l0 -130 -390 0 -390 0 0 130 0 130 390 0 390 0 0 -130z m780 0
l0 -130 -380 0 -380 0 0 130 0 130 380 0 380 0 0 -130z m620 0 l0 -130 -300 0
-300 0 0 130 0 130 300 0 300 0 0 -130z m610 0 l0 -130 -295 0 -295 0 0 130 0
130 295 0 295 0 0 -130z m530 0 l0 -130 -255 0 -255 0 0 130 0 130 255 0 255
0 0 -130z m620 0 l0 -130 -300 0 -300 0 0 130 0 130 300 0 300 0 0 -130z m610
0 l0 -130 -295 0 -295 0 0 130 0 130 295 0 295 0 0 -130z m610 0 l0 -130 -295
0 -295 0 0 130 0 130 295 0 295 0 0 -130z m540 0 l0 -130 -260 0 -260 0 0 130
0 130 260 0 260 0 0 -130z m610 0 l0 -130 -295 0 -295 0 0 130 0 130 295 0
295 0 0 -130z m610 0 l0 -130 -295 0 -295 0 0 130 0 130 295 0 295 0 0 -130z
m620 0 l0 -130 -300 0 -300 0 0 130 0 130 300 0 300 0 0 -130z m-12630 -280
l0 -130 -650 0 -650 0 0 130 0 130 650 0 650 0 0 -130z m1390 0 l0 -130 -685
0 -685 0 0 130 0 130 685 0 685 0 0 -130z m1160 0 l0 -130 -570 0 -570 0 0
130 0 130 570 0 570 0 0 -130z m1370 0 l0 -130 -675 0 -675 0 0 130 0 130 675
0 675 0 0 -130z m1150 0 l0 -130 -565 0 -565 0 0 130 0 130 565 0 565 0 0
-130z m800 0 l0 -130 -390 0 -390 0 0 130 0 130 390 0 390 0 0 -130z m780 0
l0 -130 -380 0 -380 0 0 130 0 130 380 0 380 0 0 -130z m620 0 l0 -130 -300 0
-300 0 0 130 0 130 300 0 300 0 0 -130z m610 0 l0 -130 -295 0 -295 0 0 130 0
130 295 0 295 0 0 -130z m530 0 l0 -130 -255 0 -255 0 0 130 0 130 255 0 255
0 0 -130z m620 0 l0 -130 -300 0 -300 0 0 130 0 130 300 0 300 0 0 -130z m610
0 l0 -130 -295 0 -295 0 0 130 0 130 295 0 295 0 0 -130z m610 0 l0 -130 -295
0 -295 0 0 130 0 130 295 0 295 0 0 -130z m540 0 l0 -130 -260 0 -260 0 0 130
0 130 260 0 260 0 0 -130z m610 0 l0 -130 -295 0 -295 0 0 130 0 130 295 0
295 0 0 -130z m610 0 l0 -130 -295 0 -295 0 0 130 0 130 295 0 295 0 0 -130z
m620 0 l0 -130 -300 0 -300 0 0 130 0 130 300 0 300 0 0 -130z m-12630 -280
l0 -130 -650 0 -650 0 0 130 0 130 650 0 650 0 0 -130z m1390 0 l0 -130 -685
0 -685 0 0 130 0 130 685 0 685 0 0 -130z m1160 0 l0 -130 -570 0 -570 0 0
130 0 130 570 0 570 0 0 -130z m1370 0 l0 -130 -675 0 -675 0 0 130 0 130 675
0 675 0 0 -130z m1150 0 l0 -130 -565 0 -565 0 0 130 0 130 565 0 565 0 0
-130z m800 0 l0 -130 -390 0 -390 0 0 130 0 130 390 0 390 0 0 -130z m780 0
l0 -130 -380 0 -380 0 0 130 0 130 380 0 380 0 0 -130z m620 0 l0 -130 -300 0
-300 0 0 130 0 130 300 0 300 0 0 -130z m610 0 l0 -130 -295 0 -295 0 0 130 0
130 295 0 295 0 0 -130z m530 0 l0 -130 -255 0 -255 0 0 130 0 130 255 0 255
0 0 -130z m620 0 l0 -130 -300 0 -300 0 0 130 0 130 300 0 300 0 0 -130z m610
0 l0 -130 -295 0 -295 0 0 130 0 130 295 0 295 0 0 -130z m610 0 l0 -130 -295
0 -295 0 0 130 0 130 295 0 295 0 0 -130z m540 0 l0 -130 -260 0 -260 0 0 130
0 130 260 0 260 0 0 -130z m610 0 l0 -130 -295 0 -295 0 0 130 0 130 295 0
295 0 0 -130z m610 0 l0 -130 -295 0 -295 0 0 130 0 130 295 0 295 0 0 -130z
m620 0 l0 -130 -300 0 -300 0 0 130 0 130 300 0 300 0 0 -130z m-12630 -280
l0 -130 -650 0 -650 0 0 130 0 130 650 0 650 0 0 -130z m1390 0 l0 -130 -685
0 -685 0 0 130 0 130 685 0 685 0 0 -130z m1160 0 l0 -130 -570 0 -570 0 0
130 0 130 570 0 570 0 0 -130z m1370 0 l0 -130 -675 0 -675 0 0 130 0 130 675
0 675 0 0 -130z m1150 0 l0 -130 -565 0 -565 0 0 130 0 130 565 0 565 0 0
-130z m800 0 l0 -130 -390 0 -390 0 0 130 0 130 390 0 390 0 0 -130z m780 0
l0 -130 -380 0 -380 0 0 130 0 130 380 0 380 0 0 -130z m620 0 l0 -130 -300 0
-300 0 0 130 0 130 300 0 300 0 0 -130z m610 0 l0 -130 -295 0 -295 0 0 130 0
130 295 0 295 0 0 -130z m530 0 l0 -130 -255 0 -255 0 0 130 0 130 255 0 255
0 0 -130z m620 0 l0 -130 -300 0 -300 0 0 130 0 130 300 0 300 0 0 -130z m610
0 l0 -130 -295 0 -295 0 0 130 0 130 295 0 295 0 0 -130z m610 0 l0 -130 -295
0 -295 0 0 130 0 130 295 0 295 0 0 -130z m540 0 l0 -130 -260 0 -260 0 0 130
0 130 260 0 260 0 0 -130z m610 0 l0 -130 -295 0 -295 0 0 130 0 130 295 0
295 0 0 -130z m610 0 l0 -130 -295 0 -295 0 0 130 0 130 295 0 295 0 0 -130z
m620 0 l0 -130 -300 0 -300 0 0 130 0 130 300 0 300 0 0 -130z m-12630 -280
l0 -130 -650 0 -650 0 0 130 0 130 650 0 650 0 0 -130z m1390 0 l0 -130 -685
0 -685 0 0 130 0 130 685 0 685 0 0 -130z m1160 0 l0 -130 -570 0 -570 0 0
130 0 130 570 0 570 0 0 -130z m1370 0 l0 -130 -675 0 -675 0 0 130 0 130 675
0 675 0 0 -130z m1150 0 l0 -130 -565 0 -565 0 0 130 0 130 565 0 565 0 0
-130z m800 0 l0 -130 -390 0 -390 0 0 130 0 130 390 0 390 0 0 -130z m780 0
l0 -130 -380 0 -380 0 0 130 0 130 380 0 380 0 0 -130z m620 0 l0 -130 -300 0
-300 0 0 130 0 130 300 0 300 0 0 -130z m610 0 l0 -130 -295 0 -295 0 0 130 0
130 295 0 295 0 0 -130z m530 0 l0 -130 -255 0 -255 0 0 130 0 130 255 0 255
0 0 -130z m620 0 l0 -130 -300 0 -300 0 0 130 0 130 300 0 300 0 0 -130z m610
0 l0 -130 -295 0 -295 0 0 130 0 130 295 0 295 0 0 -130z m610 0 l0 -130 -295
0 -295 0 0 130 0 130 295 0 295 0 0 -130z m540 0 l0 -130 -260 0 -260 0 0 130
0 130 260 0 260 0 0 -130z m610 0 l0 -130 -295 0 -295 0 0 130 0 130 295 0
295 0 0 -130z m610 0 l0 -130 -295 0 -295 0 0 130 0 130 295 0 295 0 0 -130z
m620 0 l0 -130 -300 0 -300 0 0 130 0 130 300 0 300 0 0 -130z"/>
</g>
</svg>
