<?xml version="1.0" standalone="no"?>
<!DOCTYPE svg PUBLIC "-//W3C//DTD SVG 20010904//EN"
 "http://www.w3.org/TR/2001/REC-SVG-20010904/DTD/svg10.dtd">
<svg version="1.0" xmlns="http://www.w3.org/2000/svg"
 width="935.000000pt" height="7650.000000pt" viewBox="0 0 935.000000 7650.000000"
 preserveAspectRatio="xMidYMid meet">
<metadata>
Created by potrace 1.12, written by Peter Selinger 2001-2015
</metadata>
<g transform="translate(0.000000,7650.000000) scale(0.100000,-0.100000)"
fill="#000000" stroke="none">
<path d="M170 75740 c0 -67 4 -110 10 -110 6 0 10 20 10 44 l0 44 56 4 c61 5
84 23 84 65 0 42 -33 63 -100 63 l-60 0 0 -110z"/>
<path d="M974 75836 c-16 -12 -19 -27 -19 -96 0 -88 12 -110 60 -110 41 0 60
35 60 110 0 53 -4 73 -19 89 -22 24 -54 27 -82 7z"/>
<path d="M549 75769 c-27 -27 -26 -92 2 -120 17 -17 28 -20 56 -14 32 6 34 5
23 -14 -12 -23 -58 -29 -78 -9 -15 15 -24 6 -16 -15 8 -21 58 -31 84 -17 30
16 40 50 40 133 l0 72 -46 2 c-33 1 -51 -4 -65 -18z"/>
<path d="M1540 75179 c0 -35 -3 -40 -17 -34 -40 17 -52 16 -72 -4 -28 -28 -29
-93 -1 -121 23 -23 33 -24 63 -9 16 9 22 9 25 0 2 -6 8 -11 13 -11 5 0 9 50 9
110 0 67 -4 110 -10 110 -5 0 -10 -18 -10 -41z"/>
<path d="M235 75135 c-16 -15 -25 -36 -25 -55 0 -35 38 -80 68 -80 38 0 67 34
67 80 0 72 -62 104 -110 55z"/>
<path d="M1285 75135 c-16 -15 -25 -36 -25 -55 0 -35 38 -80 68 -80 38 0 67
34 67 80 0 72 -62 104 -110 55z"/>
<path d="M1570 62840 c0 -38 -12 -52 -25 -30 -10 16 -44 11 -65 -10 -29 -29
-27 -90 3 -118 26 -25 47 -28 66 -9 11 10 14 10 18 0 14 -38 23 0 23 97 0 67
-4 110 -10 110 -5 0 -10 -18 -10 -40z"/>
<path d="M720 62710 c0 -67 4 -110 10 -110 6 0 10 18 10 40 0 44 2 45 29 28
15 -9 24 -8 45 5 67 44 21 180 -47 137 -15 -9 -22 -10 -25 -1 -2 6 -8 11 -13
11 -5 0 -9 -49 -9 -110z"/>
<path d="M1006 62799 c-20 -16 -26 -29 -26 -59 0 -30 6 -43 26 -59 54 -42 107
-12 107 59 0 71 -53 101 -107 59z"/>
<path d="M5582 62431 c-121 -35 -213 -116 -227 -201 -6 -33 -2 -51 19 -94 28
-56 62 -88 133 -125 48 -24 152 -51 201 -51 l32 0 -2 -172 c-3 -171 -3 -173
-25 -176 -13 -2 -23 -5 -23 -6 0 -2 9 -29 20 -61 11 -32 20 -60 20 -62 0 -1
-79 -3 -175 -3 l-175 0 0 -245 0 -245 178 -2 177 -3 0 -170 c0 -169 0 -170
-22 -173 -28 -4 -28 -8 -3 -72 11 -28 20 -53 20 -55 0 -3 -79 -5 -175 -5
l-175 0 0 -250 0 -249 98 -3 99 -3 -113 -175 c-63 -96 -117 -174 -121 -173 -5
1 -15 4 -25 8 -13 5 -19 -4 -29 -52 -7 -32 -17 -64 -22 -70 -7 -10 -71 -13
-258 -13 l-249 0 0 -244 0 -245 40 -3 40 -3 -221 -189 c-204 -174 -223 -188
-242 -176 -23 14 -23 15 -69 -64 l-28 -46 -310 0 -310 0 0 -245 0 -245 75 0
c41 0 75 -4 75 -8 0 -7 -279 -351 -423 -521 -23 -28 -30 -31 -42 -21 -20 17
-25 10 -51 -58 l-21 -57 -276 -3 -277 -2 0 -245 0 -245 80 0 c44 0 80 -4 80
-9 0 -5 -11 -29 -25 -52 -46 -81 -68 -163 -63 -242 2 -42 12 -88 22 -110 25
-52 137 -169 210 -221 107 -76 284 -156 424 -192 64 -16 72 -21 72 -43 0 -23
1 -23 69 -17 l68 7 5 -56 c5 -63 37 -111 103 -156 74 -51 129 -64 260 -64 100
1 129 5 177 24 109 43 199 153 185 227 l-5 26 56 -7 c30 -4 61 -9 69 -12 9 -3
13 3 13 21 0 14 2 26 4 26 23 0 249 48 361 77 476 121 829 308 1006 530 33 41
59 77 59 81 0 4 -10 -6 -22 -23 -12 -16 -56 -65 -96 -107 -215 -223 -590 -396
-1087 -502 -246 -53 -235 -52 -235 -27 0 28 -13 27 -75 -9 l-52 -30 -27 40
c-14 22 -44 53 -66 69 l-40 28 60 27 c54 24 58 29 48 46 -11 16 -2 30 68 107
154 168 283 342 343 461 35 69 16 48 -27 -30 -73 -134 -191 -287 -336 -435
-65 -67 -71 -71 -87 -57 -17 15 -20 12 -49 -45 -16 -34 -34 -61 -39 -61 -5 0
-27 6 -49 14 -22 8 -65 17 -96 21 -31 4 -56 8 -56 10 0 1 9 28 20 60 11 32 20
60 20 62 0 1 -9 3 -20 3 -20 0 -20 7 -20 381 0 346 1 379 16 365 18 -18 24
-19 44 -6 12 8 11 10 -6 10 -12 0 -24 7 -28 15 -4 11 1 15 19 15 29 0 34 24 8
35 -12 4 -24 -1 -35 -15 -17 -21 -18 -3 -18 439 l0 461 180 0 180 0 0 245 0
245 -32 1 c-31 0 -29 1 20 20 51 20 53 22 37 39 -16 18 -15 20 16 48 19 16
124 106 234 201 l200 171 313 0 312 0 0 245 0 245 -97 0 -98 1 25 21 c14 11
36 29 49 39 22 18 23 21 8 37 -15 16 -8 30 101 200 l117 182 136 0 c131 0 136
-1 148 -22 l11 -23 -6 22 c-5 22 -3 22 108 25 l113 3 0 245 0 245 -177 3 -178
2 20 53 c25 65 25 77 0 77 -19 0 -20 7 -20 175 l0 175 180 0 180 0 0 245 0
245 -179 0 -180 0 20 57 c24 69 24 69 -1 76 -19 5 -20 14 -20 176 l0 171 28 0
c48 0 179 38 225 64 110 65 153 166 108 254 -38 74 -117 128 -228 157 -77 20
-222 18 -301 -4z m286 -6 c167 -40 271 -148 242 -254 -49 -181 -396 -258 -616
-137 -78 44 -116 91 -122 155 -6 64 9 101 60 147 99 89 279 126 436 89z m230
-1192 l2 -233 -355 0 -355 0 0 228 c0 126 3 232 7 235 4 4 162 6 352 5 l346
-3 3 -232z m2 -973 l0 -230 -355 0 -355 0 0 230 0 230 355 0 355 0 0 -230z
m-622 -972 l-3 -233 -350 0 -350 0 -3 233 -2 232 355 0 355 0 -2 -232z m-1100
-975 l2 -233 -355 0 -355 0 0 228 c0 126 3 232 7 235 4 4 162 6 352 5 l346 -3
3 -232z m-363 -1093 l0 -845 -22 -3 c-13 -2 -23 -4 -23 -5 0 -1 9 -26 20 -55
11 -29 20 -56 20 -60 0 -5 -34 -14 -75 -21 -86 -14 -183 -59 -219 -102 -14
-16 -28 -29 -33 -29 -4 0 -30 18 -58 40 -47 37 -50 38 -57 19 -9 -24 -24 -21
-103 19 -154 76 -285 185 -356 296 -22 32 -39 55 -39 49 0 -20 100 -151 147
-193 63 -56 171 -127 259 -169 68 -32 70 -35 60 -57 -6 -13 -18 -24 -26 -24
-31 0 -251 80 -331 120 -46 23 -111 62 -144 85 -76 54 -185 168 -210 220 -40
84 -28 199 32 320 40 79 48 85 115 85 l58 0 2 -32 1 -33 4 33 4 32 205 0 204
0 0 245 0 244 -72 3 -73 3 48 28 c51 31 55 38 33 56 -12 10 25 60 221 297
l235 285 86 -3 87 -3 0 -845z m-577 -67 l2 -233 -355 0 -355 0 0 228 c0 126 3
232 7 235 4 4 162 6 352 5 l346 -3 3 -232z m662 -934 c115 -18 218 -79 256
-151 21 -41 18 -114 -8 -160 -46 -82 -193 -148 -327 -148 -188 0 -352 108
-351 232 1 126 146 225 345 237 11 0 49 -4 85 -10z"/>
<path d="M6065 58225 c0 -810 1 -951 5 -520 3 325 6 585 8 579 3 -18 32 -25
50 -14 15 8 14 9 -4 10 -12 0 -24 7 -28 15 -4 11 1 15 19 15 29 0 34 24 8 35
-12 4 -24 -1 -35 -15 -17 -21 -18 1 -21 492 -1 282 -2 14 -2 -597z"/>
<path d="M3540 53045 l0 -2245 1225 0 1225 0 0 2245 0 2245 -1225 0 -1225 0 0
-2245z m1318 2098 l3 -133 -656 0 -655 0 0 128 c0 71 3 132 7 135 3 4 297 6
652 5 l646 -3 3 -132z m1120 0 l3 -133 -556 0 -555 0 0 128 c0 71 3 132 7 135
3 4 252 6 552 5 l546 -3 3 -132z m-1118 -283 l0 -130 -655 0 -655 0 0 130 0
130 655 0 655 0 0 -130z m1120 0 l0 -130 -555 0 -555 0 0 130 0 130 555 0 555
0 0 -130z m-1120 -280 l0 -130 -655 0 -655 0 0 130 0 130 655 0 655 0 0 -130z
m1120 0 l0 -130 -555 0 -555 0 0 130 0 130 555 0 555 0 0 -130z m-1120 -280
l0 -130 -655 0 -655 0 0 130 0 130 655 0 655 0 0 -130z m1120 0 l0 -130 -555
0 -555 0 0 130 0 130 555 0 555 0 0 -130z m-1120 -280 l0 -130 -655 0 -655 0
0 130 0 130 655 0 655 0 0 -130z m1120 0 l0 -130 -555 0 -555 0 0 130 0 130
555 0 555 0 0 -130z m-1120 -280 l0 -130 -655 0 -655 0 0 130 0 130 655 0 655
0 0 -130z m1120 0 l0 -130 -555 0 -555 0 0 130 0 130 555 0 555 0 0 -130z
m-1120 -280 l0 -130 -655 0 -655 0 0 130 0 130 655 0 655 0 0 -130z m1120 0
l0 -130 -555 0 -555 0 0 130 0 130 555 0 555 0 0 -130z m-1120 -280 l0 -130
-655 0 -655 0 0 130 0 130 655 0 655 0 0 -130z m1120 0 l0 -130 -555 0 -555 0
0 130 0 130 555 0 555 0 0 -130z m-1120 -280 l0 -130 -655 0 -655 0 0 130 0
130 655 0 655 0 0 -130z m1120 0 l0 -130 -555 0 -555 0 0 130 0 130 555 0 555
0 0 -130z m-1120 -280 l0 -130 -655 0 -655 0 0 130 0 130 655 0 655 0 0 -130z
m1120 0 l0 -130 -555 0 -555 0 0 130 0 130 555 0 555 0 0 -130z m-1120 -280
l0 -130 -655 0 -655 0 0 130 0 130 655 0 655 0 0 -130z m1120 0 l0 -130 -555
0 -555 0 0 130 0 130 555 0 555 0 0 -130z m-1120 -280 l0 -130 -655 0 -655 0
0 130 0 130 655 0 655 0 0 -130z m1120 0 l0 -130 -555 0 -555 0 0 130 0 130
555 0 555 0 0 -130z m-1120 -280 l0 -130 -655 0 -655 0 0 130 0 130 655 0 655
0 0 -130z m1120 0 l0 -130 -555 0 -555 0 0 130 0 130 555 0 555 0 0 -130z
m-1120 -280 l0 -130 -655 0 -655 0 0 130 0 130 655 0 655 0 0 -130z m1120 0
l0 -130 -555 0 -555 0 0 130 0 130 555 0 555 0 0 -130z m-1120 -280 l0 -130
-655 0 -655 0 0 130 0 130 655 0 655 0 0 -130z m1120 0 l0 -130 -555 0 -555 0
0 130 0 130 555 0 555 0 0 -130z m-1120 -280 l0 -130 -655 0 -655 0 0 130 0
130 655 0 655 0 0 -130z m1120 0 l0 -130 -555 0 -555 0 0 130 0 130 555 0 555
0 0 -130z"/>
<path d="M4765 50636 c-157 -42 -245 -125 -245 -230 0 -60 18 -93 76 -145 55
-48 132 -79 232 -94 l72 -11 -2 -171 c-3 -166 -4 -170 -25 -173 l-22 -3 20
-56 c10 -31 19 -60 19 -65 0 -4 -79 -8 -175 -8 l-175 0 0 -245 0 -244 101 -3
101 -3 -117 -178 c-110 -166 -120 -178 -144 -172 -25 5 -27 2 -41 -57 l-15
-63 -255 -5 -255 -5 0 -245 0 -245 246 -3 247 -2 107 -186 c101 -174 106 -186
91 -203 -16 -18 -14 -21 31 -59 26 -23 45 -42 43 -44 -3 -2 -30 -15 -60 -29
-74 -35 -114 -71 -139 -122 -41 -85 -22 -157 60 -231 71 -64 155 -91 284 -91
129 0 213 27 284 91 63 57 85 102 79 166 -11 112 -130 204 -290 225 -55 7 -56
12 -28 79 24 55 18 64 -44 64 -32 0 -37 -3 -33 -17 23 -81 30 -113 26 -117 -2
-2 -29 -6 -59 -7 l-55 -4 -11 63 c-13 72 -18 80 -39 62 -9 -7 -17 -11 -19 -9
-8 9 -197 341 -202 354 -5 13 10 15 100 15 l106 0 0 250 0 249 -91 3 -91 3 47
34 c46 33 47 34 28 50 -20 16 -17 21 103 204 l123 187 65 0 65 0 4 -57 3 -58
2 58 2 57 185 0 185 0 0 245 0 245 -175 0 c-96 0 -175 4 -175 8 0 5 9 34 19
65 l20 56 -22 3 c-21 3 -22 7 -25 173 l-2 171 72 11 c100 15 177 46 232 94 59
52 76 85 76 147 0 90 -78 174 -205 217 -66 23 -251 29 -320 11z m320 -26 c82
-28 152 -82 176 -133 35 -79 19 -139 -56 -205 -147 -129 -453 -129 -600 0 -75
66 -91 126 -56 205 31 68 140 133 261 157 56 11 216 -3 275 -24z m173 -1177
l2 -233 -355 0 -355 0 0 228 c0 126 3 232 7 235 4 4 162 6 352 5 l346 -3 3
-232z m-628 -973 l0 -230 -355 0 -355 0 0 230 0 230 355 0 355 0 0 -230z m291
-750 c170 -32 283 -152 249 -264 -67 -222 -515 -260 -665 -56 -69 94 -23 216
108 280 96 47 198 60 308 40z"/>
<path d="M3850 46075 l0 -705 910 0 910 0 0 705 0 705 -910 0 -910 0 0 -705z
m690 565 l0 -130 -340 0 -340 0 0 130 0 130 340 0 340 0 0 -130z m1120 0 l0
-130 -555 0 -555 0 0 130 0 130 555 0 555 0 0 -130z m-1120 -280 l0 -130 -340
0 -340 0 0 130 0 130 340 0 340 0 0 -130z m1120 0 l0 -130 -555 0 -555 0 0
130 0 130 555 0 555 0 0 -130z m-1120 -280 l0 -130 -340 0 -340 0 0 130 0 130
340 0 340 0 0 -130z m1120 0 l0 -130 -555 0 -555 0 0 130 0 130 555 0 555 0 0
-130z m-1120 -280 l0 -130 -340 0 -340 0 0 130 0 130 340 0 340 0 0 -130z
m1120 0 l0 -130 -555 0 -555 0 0 130 0 130 555 0 555 0 0 -130z m-1122 -282
l-3 -133 -335 0 -335 0 -3 133 -3 132 341 0 341 0 -3 -132z m1120 0 l-3 -133
-550 0 -550 0 -3 133 -3 132 556 0 556 0 -3 -132z"/>
<path d="M4445 45216 c-109 -29 -182 -75 -220 -140 -84 -144 45 -294 283 -329
l72 -11 -2 -171 c-3 -166 -4 -170 -25 -173 l-22 -3 20 -56 c10 -31 19 -60 19
-65 0 -4 -79 -8 -175 -8 l-175 0 0 -245 0 -245 169 0 170 0 -2 -265 -2 -266
-23 -6 c-25 -6 -24 -14 9 -87 l18 -41 -52 -11 c-138 -28 -225 -83 -269 -167
-42 -83 -4 -188 90 -248 81 -51 168 -72 280 -66 113 6 148 15 222 59 217 131
122 375 -164 420 l-74 12 19 55 c21 59 19 81 -6 81 -12 0 -15 15 -15 86 0 78
1 84 16 70 18 -18 24 -19 44 -6 12 8 11 10 -6 10 -12 0 -24 7 -28 15 -4 11 1
15 19 15 15 0 25 6 25 14 0 22 -31 28 -51 10 -18 -17 -19 -12 -19 149 l0 167
180 0 180 0 0 245 0 245 -175 0 c-109 0 -175 4 -175 10 0 5 9 33 20 62 11 29
20 54 20 55 0 1 -10 3 -22 5 -23 3 -23 5 -26 173 l-2 171 78 11 c96 14 176 48
231 99 54 49 71 82 71 142 0 90 -78 174 -205 217 -66 23 -251 29 -320 11z
m320 -26 c246 -86 260 -302 25 -396 -123 -50 -277 -51 -406 -3 -76 29 -159
108 -169 162 -21 111 74 209 243 252 78 20 228 13 307 -15z m173 -1177 l2
-233 -355 0 -355 0 0 228 c0 126 3 232 7 235 4 4 162 6 352 5 l346 -3 3 -232z
m-197 -953 c242 -75 264 -295 41 -398 -207 -94 -499 -12 -543 152 -40 147 159
287 381 269 36 -3 90 -13 121 -23z"/>
<path d="M3854 42087 c-2 -7 -3 -74 -2 -148 l3 -134 908 -3 907 -2 0 150 0
150 -905 0 c-734 0 -907 -2 -911 -13z m686 -137 l0 -130 -340 0 -340 0 0 130
0 130 340 0 340 0 0 -130z m1120 0 l0 -130 -555 0 -555 0 0 130 0 130 555 0
555 0 0 -130z"/>
<path d="M1823 41595 c-154 -42 -256 -149 -240 -251 18 -109 152 -200 321
-220 l56 -7 0 -173 c0 -167 -1 -174 -20 -174 -25 0 -25 -3 -1 -73 l20 -57
-180 0 -179 0 0 -245 0 -245 105 0 c58 0 105 -2 105 -4 0 -2 -25 -55 -55 -117
-30 -63 -55 -118 -55 -124 0 -5 28 46 63 115 l62 125 165 3 165 2 162 -192
c154 -181 162 -193 146 -210 -9 -10 -14 -20 -12 -21 2 -2 24 -15 48 -28 l44
-24 -69 -5 -69 -5 0 -245 0 -245 350 -5 c193 -3 358 -1 368 3 16 7 17 27 15
250 l-3 242 -277 3 -277 2 -21 57 c-28 74 -28 75 -50 60 -24 -14 -5 -32 -190
188 l-143 170 81 3 82 3 0 244 0 245 -180 0 c-99 0 -180 2 -180 5 0 2 9 27 20
55 11 28 20 55 20 60 0 6 -9 10 -20 10 -19 0 -20 7 -20 173 l0 172 78 13 c151
23 280 113 298 208 20 108 -82 217 -241 259 -73 19 -222 19 -292 0z m268 -9
c78 -17 134 -44 184 -88 48 -42 65 -77 65 -137 0 -40 -6 -57 -32 -92 -101
-131 -372 -175 -553 -91 -110 52 -157 108 -157 187 0 53 20 92 67 133 100 88
265 122 426 88z m229 -1191 l0 -235 -350 0 -350 0 0 235 0 235 350 0 350 0 0
-235z m800 -975 l0 -230 -350 0 -350 0 0 230 0 230 350 0 350 0 0 -230z"/>
<path d="M1595 36140 c0 -1851 1 -2576 2 -1612 3 1752 3 1753 23 1742 14 -7
26 -8 38 -1 15 9 15 10 -4 11 -12 0 -24 7 -28 15 -4 11 1 15 19 15 15 0 25 6
25 14 0 22 -31 28 -51 10 -18 -17 -19 26 -22 1577 -1 877 -2 80 -2 -1771z"/>
<path d="M3110 39156 c0 -3 119 -91 265 -196 146 -105 265 -195 265 -200 0 -5
-4 -12 -10 -15 -20 -12 -9 -23 35 -35 l45 -13 0 -189 0 -189 -62 -27 c-116
-48 -342 -167 -432 -227 -128 -84 -254 -193 -321 -277 -33 -40 -62 -78 -65
-84 -3 -5 6 4 19 20 14 17 72 78 130 137 108 107 246 207 412 297 79 43 295
142 310 142 5 0 9 -22 9 -50 l0 -50 180 0 180 0 0 -265 0 -265 -25 0 c-14 0
-25 -1 -25 -2 0 -2 9 -27 20 -56 33 -87 43 -82 -155 -82 l-175 0 0 -245 0
-245 149 0 c110 0 151 -3 154 -12 4 -10 6 -10 6 0 1 8 25 12 84 12 l84 0 82
-172 c46 -95 85 -178 88 -185 2 -6 -5 -14 -17 -18 -21 -7 -19 -10 26 -56 l48
-49 -117 0 -117 0 0 -245 0 -245 170 0 170 0 2 -52 1 -53 6 50 6 50 69 0 69 0
162 -275 c157 -265 162 -275 142 -289 -19 -14 -18 -16 29 -57 l49 -43 -107 -1
-108 0 0 -245 0 -245 165 0 165 0 1 -32 1 -33 7 30 6 30 82 3 83 3 73 -113
c302 -465 291 -448 271 -463 -18 -14 -18 -16 8 -35 14 -11 37 -29 50 -40 l23
-19 -97 -1 -98 0 0 -245 0 -245 105 0 c58 0 105 -2 105 -4 0 -2 -48 -82 -106
-177 -195 -319 -550 -951 -684 -1219 -70 -140 -12 -39 122 212 231 432 623
1111 676 1171 14 15 31 17 145 15 l130 -3 162 -275 c157 -265 162 -275 142
-289 -19 -14 -18 -16 29 -57 l49 -43 -107 -1 -108 0 -2 -236 -3 -236 -594
-346 c-557 -324 -595 -344 -607 -327 -13 18 -17 16 -61 -34 l-48 -53 -55 26
c-30 14 -61 26 -67 26 -23 0 -14 17 33 60 35 32 43 45 33 51 -8 5 -17 9 -22 9
-4 0 22 59 58 130 36 72 63 130 60 130 -3 0 -32 -54 -65 -121 -57 -112 -63
-120 -85 -115 -21 5 -25 2 -30 -29 -17 -114 -15 -107 -38 -101 -12 3 -41 6
-64 6 l-41 0 18 70 18 70 -24 0 c-22 0 -24 4 -26 48 l-1 47 -6 -50 -6 -50 -39
0 -39 0 -43 125 c-23 69 -43 120 -43 115 -1 -6 17 -64 39 -130 22 -65 38 -120
37 -121 -2 -2 -18 -5 -37 -6 -34 -3 -34 -2 -108 127 -41 72 -110 199 -154 283
-44 83 -82 152 -84 152 -10 0 220 -431 300 -563 9 -15 7 -21 -8 -33 -11 -7
-18 -16 -15 -18 2 -2 25 -21 50 -43 l47 -40 -59 -27 c-57 -26 -116 -74 -136
-109 -9 -18 -13 -17 -71 12 -73 37 -72 37 -72 11 0 -25 3 -26 -175 11 -552
111 -966 329 -1178 619 -17 24 -17 24 0 -9 30 -59 192 -213 292 -280 142 -94
354 -194 523 -247 32 -10 56 -19 54 -21 -5 -5 -299 59 -514 112 -269 66 -453
119 -661 190 -406 139 -654 268 -806 420 -38 39 -59 56 -47 38 58 -83 211
-193 397 -286 343 -171 896 -337 1615 -486 107 -22 259 -54 338 -70 78 -17
145 -31 147 -31 3 0 5 -12 5 -26 0 -23 3 -25 28 -20 15 3 44 8 65 12 l37 6 0
-46 c0 -141 155 -246 366 -246 189 0 340 93 361 224 7 41 2 40 73 21 30 -8 56
-15 57 -15 1 0 3 10 5 23 3 21 11 23 158 39 542 60 1007 174 1385 337 244 106
376 198 571 397 l131 134 267 0 266 0 0 245 0 245 -218 0 -218 0 4 71 c4 70 4
71 -19 67 -22 -3 -25 3 -46 87 -32 129 -71 353 -83 474 -6 62 -10 464 -10
1002 l0 899 27 0 c21 0 24 3 15 12 -16 16 -15 68 1 68 9 0 8 3 -2 9 -18 12 -3
34 18 26 11 -4 13 -3 5 5 -13 13 -44 3 -44 -16 0 -8 -4 -14 -10 -14 -7 0 -10
273 -10 798 0 877 0 879 -61 993 -39 72 -116 145 -207 196 -36 20 -149 74
-252 119 -102 45 -240 107 -308 138 -273 124 -567 214 -992 301 -304 62 -559
98 -790 110 -147 8 -160 11 -160 35 0 24 -14 25 -70 5 -72 -25 -70 -29 -70
105 l0 120 -337 2 -338 3 -39 57 c-37 54 -41 57 -57 42 -21 -19 16 -42 -316
198 -215 156 -243 175 -243 164z m1318 -708 l-3 -233 -350 0 -350 0 -3 233 -2
232 355 0 355 0 -2 -232z m82 -48 c62 -24 70 -25 70 -3 0 14 12 15 113 9 491
-29 919 -107 1212 -221 407 -157 647 -374 737 -667 l23 -73 3 -1795 c3 -1756
0 -1961 -30 -2397 l-12 -173 -72 0 -72 0 -11 50 c-6 28 -11 57 -11 65 0 20
-19 28 -35 15 -11 -9 -17 -6 -28 12 -31 49 -307 521 -307 524 0 2 50 4 110 4
l110 0 0 245 0 245 -255 0 -254 0 -10 38 c-5 20 -12 52 -16 70 -7 34 -14 39
-33 20 -8 -8 -15 -8 -21 -3 -5 6 -86 129 -180 275 l-172 265 106 3 105 3 0
244 0 245 -249 0 -249 0 -11 50 c-6 28 -11 57 -11 65 0 20 -19 28 -35 15 -11
-9 -17 -6 -28 12 -31 49 -307 521 -307 524 0 2 50 4 110 4 l110 0 0 245 0 245
-235 0 -235 0 -4 23 c-3 12 -8 43 -11 69 -6 43 -8 46 -32 45 -24 -2 -32 10
-109 171 l-83 172 119 0 120 0 0 245 0 245 -175 0 c-96 0 -175 4 -175 8 0 5 9
35 20 67 11 32 20 60 20 62 0 1 -11 3 -25 3 -24 0 -25 2 -25 75 0 58 3 75 14
75 11 0 13 10 9 41 -5 36 -4 41 13 37 23 -4 31 -43 14 -64 -10 -11 -9 -14 6
-14 15 0 19 8 19 40 1 35 -2 40 -27 45 -15 4 -28 13 -28 21 0 9 -4 12 -10 9
-6 -4 -10 42 -10 129 l0 136 180 0 180 0 0 110 c0 64 4 110 10 110 5 0 32 -9
60 -20z m1560 -232 c184 -55 342 -116 500 -190 58 -28 172 -79 254 -114 214
-92 301 -140 368 -202 66 -61 97 -110 124 -192 18 -52 19 -152 24 -1905 l6
-1850 27 -145 c15 -80 38 -192 52 -248 25 -105 25 -122 -1 -122 -20 0 -18 -4
21 -63 l35 -52 -140 -3 -140 -3 0 -244 0 -244 27 -3 c24 -3 10 -14 -102 -89
-511 -341 -953 -514 -1725 -678 -265 -56 -248 -54 -255 -31 -8 26 -15 25 -75
-10 l-52 -31 -38 43 -38 43 61 14 c34 7 63 15 65 16 2 2 -1 12 -7 22 -9 18 43
50 577 361 l587 342 378 0 377 0 0 245 0 245 -171 0 -171 0 6 83 c4 45 12 138
18 207 7 84 12 764 15 2077 4 1921 4 1954 -16 2036 -73 306 -297 526 -711 700
-136 57 -105 53 120 -15z m-1642 -880 l-3 -233 -350 0 -350 0 -3 233 -2 232
355 0 355 0 -2 -232z m470 -975 l2 -233 -355 0 -355 0 0 228 c0 126 3 232 7
235 4 4 162 6 352 5 l346 -3 3 -232z m662 -1158 l0 -235 -350 0 -350 0 0 235
0 235 350 0 350 0 0 -235z m738 -1162 l2 -233 -355 0 -355 0 0 228 c0 126 3
232 7 235 4 4 162 6 352 5 l346 -3 3 -232z m662 -1158 l0 -235 -350 0 -350 0
0 235 0 235 350 0 350 0 0 -235z m960 0 l0 -235 -350 0 -350 0 0 235 0 235
350 0 350 0 0 -235z m-549 -262 c-19 -36 -259 -262 -341 -323 -219 -161 -660
-328 -1120 -424 -176 -37 -523 -90 -667 -102 -79 -6 -83 -6 -83 14 0 17 10 22
58 32 303 59 680 154 918 231 386 125 651 255 1014 498 123 83 139 91 183 91
42 0 47 -2 38 -17z m-2631 -674 c116 -18 218 -79 257 -153 20 -38 19 -106 -3
-151 -9 -20 -37 -52 -61 -70 -187 -143 -532 -93 -607 87 -21 50 -20 83 5 136
43 87 165 148 324 160 11 1 49 -3 85 -9z"/>
<path d="M2705 35060 c0 -1633 1 -1973 5 -1130 3 663 6 1200 8 1194 3 -18 32
-25 50 -14 15 8 14 9 -4 10 -12 0 -24 7 -28 15 -4 11 1 15 19 15 15 0 25 6 25
14 0 22 -31 28 -51 10 -18 -17 -19 14 -22 1102 -1 615 -2 68 -2 -1216z"/>
<path d="M1320 30405 l0 -565 3450 0 3450 0 0 565 0 565 -3450 0 -3450 0 0
-565z m688 418 l3 -133 -341 0 -340 0 0 128 c0 71 3 132 7 135 4 4 155 6 337
5 l331 -3 3 -132z m6200 0 l3 -133 -3096 0 -3095 0 0 128 c0 71 3 132 7 135 3
4 1395 6 3092 5 l3086 -3 3 -132z m-6198 -283 l0 -130 -340 0 -340 0 0 130 0
130 340 0 340 0 0 -130z m1160 0 l0 -130 -575 0 -575 0 0 130 0 130 575 0 575
0 0 -130z m1160 0 l0 -130 -575 0 -575 0 0 130 0 130 575 0 575 0 0 -130z
m1150 0 l0 -130 -570 0 -570 0 0 130 0 130 570 0 570 0 0 -130z m1140 0 l0
-130 -565 0 -565 0 0 130 0 130 565 0 565 0 0 -130z m800 0 l0 -130 -395 0
-395 0 0 130 0 130 395 0 395 0 0 -130z m790 0 l0 -130 -390 0 -390 0 0 130 0
130 390 0 390 0 0 -130z m-6200 -280 l0 -130 -340 0 -340 0 0 130 0 130 340 0
340 0 0 -130z m1160 0 l0 -130 -575 0 -575 0 0 130 0 130 575 0 575 0 0 -130z
m1160 0 l0 -130 -575 0 -575 0 0 130 0 130 575 0 575 0 0 -130z m1150 0 l0
-130 -570 0 -570 0 0 130 0 130 570 0 570 0 0 -130z m1140 0 l0 -130 -565 0
-565 0 0 130 0 130 565 0 565 0 0 -130z m800 0 l0 -130 -395 0 -395 0 0 130 0
130 395 0 395 0 0 -130z m790 0 l0 -130 -390 0 -390 0 0 130 0 130 390 0 390
0 0 -130z m-6200 -280 l0 -130 -340 0 -340 0 0 130 0 130 340 0 340 0 0 -130z
m1160 0 l0 -130 -575 0 -575 0 0 130 0 130 575 0 575 0 0 -130z m1160 0 l0
-130 -575 0 -575 0 0 130 0 130 575 0 575 0 0 -130z m1150 0 l0 -130 -570 0
-570 0 0 130 0 130 570 0 570 0 0 -130z m1140 0 l0 -130 -565 0 -565 0 0 130
0 130 565 0 565 0 0 -130z m800 0 l0 -130 -395 0 -395 0 0 130 0 130 395 0
395 0 0 -130z m790 0 l0 -130 -390 0 -390 0 0 130 0 130 390 0 390 0 0 -130z"/>
<path d="M5163 29675 c-108 -29 -186 -84 -224 -157 -45 -88 -2 -189 108 -254
46 -26 177 -64 225 -64 l28 0 0 -171 c0 -162 -1 -171 -20 -176 -25 -7 -25 -7
-1 -76 l20 -57 -180 0 -179 0 0 -245 0 -245 85 0 c47 0 85 -3 85 -6 0 -10
-283 -364 -291 -364 -4 0 -11 5 -14 10 -13 21 -24 8 -45 -55 l-22 -65 -269 0
-269 0 0 -250 0 -250 75 0 c41 0 75 -2 75 -5 0 -5 -404 -500 -436 -534 -11
-12 -16 -12 -29 -1 -20 17 -26 10 -50 -58 l-20 -57 -275 -5 -275 -5 0 -245 0
-245 82 -3 83 -3 -29 -57 c-72 -145 -83 -259 -33 -365 34 -75 126 -177 223
-249 58 -42 67 -53 59 -69 -13 -23 -8 -25 63 -34 31 -4 57 -9 57 -12 0 -2 -9
-21 -20 -43 -110 -215 234 -403 531 -291 149 56 217 188 155 298 -14 24 -22
44 -18 47 4 2 33 7 65 10 53 7 57 9 51 30 -5 20 8 30 111 90 168 99 335 228
455 352 119 124 181 211 245 347 67 140 54 131 -18 -13 -34 -69 -88 -159 -119
-201 -119 -157 -329 -334 -558 -470 -65 -38 -121 -69 -125 -69 -4 0 -13 8 -20
17 -12 16 -17 12 -58 -32 l-45 -50 -29 18 c-15 10 -48 28 -72 39 l-45 21 54
47 c52 46 53 48 32 59 -21 11 -21 13 -6 42 8 17 13 33 11 35 -2 3 -10 -9 -17
-26 -11 -25 -17 -30 -35 -26 -27 7 -31 -2 -41 -74 l-7 -50 -51 7 c-85 13 -196
6 -260 -16 -33 -12 -63 -21 -67 -21 -4 0 -20 27 -35 60 -28 64 -33 67 -53 48
-10 -11 -18 -6 -42 22 -17 19 -46 62 -64 95 -19 33 -35 56 -35 50 0 -14 66
-123 97 -159 22 -27 23 -30 7 -47 -15 -17 -13 -19 47 -49 l62 -32 -29 -24
c-16 -13 -31 -23 -34 -24 -3 0 -25 23 -49 51 -41 48 -45 50 -58 33 -13 -18
-14 -18 -51 1 -20 11 -78 61 -129 110 -113 111 -153 185 -153 281 0 70 27 165
68 239 l27 50 75 2 c41 1 164 2 273 2 l197 1 0 250 0 250 -72 0 -73 0 48 30
c51 33 54 37 32 54 -13 9 23 57 215 291 l231 280 277 5 277 5 0 245 0 245 -75
5 -75 5 47 30 c44 27 46 31 31 47 -14 16 -13 21 13 55 73 97 259 329 268 335
6 4 61 8 123 8 l112 0 10 -37 c22 -85 29 -107 30 -93 0 8 -5 38 -13 67 -8 28
-11 54 -8 57 3 3 68 6 144 6 l138 0 0 245 0 245 -175 0 c-96 0 -175 2 -175 3
0 2 9 30 20 62 11 32 20 59 20 61 0 1 -10 4 -22 6 -23 3 -23 5 -26 176 l-2
172 32 0 c49 0 153 27 201 51 71 37 105 69 133 125 21 43 25 61 19 94 -15 88
-114 172 -240 204 -78 20 -221 20 -292 1z m252 -6 c115 -21 227 -91 255 -159
20 -48 8 -125 -27 -167 -63 -79 -199 -128 -348 -126 -124 1 -234 40 -302 106
-185 177 95 407 422 346z m243 -1196 l2 -233 -355 0 -355 0 0 228 c0 126 3
232 7 235 4 4 162 6 352 5 l346 -3 3 -232z m-738 -973 l0 -230 -355 0 -355 0
0 230 0 230 355 0 355 0 0 -230z m-940 -1160 l0 -230 -355 0 -355 0 0 230 0
230 355 0 355 0 0 -230z m294 -960 c36 -14 77 -40 106 -69 90 -87 90 -175 0
-262 -74 -73 -138 -94 -285 -94 -103 0 -129 4 -179 24 -75 30 -149 101 -167
159 -30 102 51 204 199 253 81 27 244 21 326 -11z"/>
<path d="M3790 24195 l0 -285 965 0 965 0 0 285 0 285 -965 0 -965 0 0 -285z
m688 138 l3 -133 -341 0 -340 0 0 128 c0 71 3 132 7 135 4 4 155 6 337 5 l331
-3 3 -132z m1230 0 l3 -133 -611 0 -610 0 0 128 c0 71 3 132 7 135 3 4 277 6
607 5 l601 -3 3 -132z m-1228 -283 l0 -130 -340 0 -340 0 0 130 0 130 340 0
340 0 0 -130z m620 0 l0 -130 -305 0 -305 0 0 130 0 130 305 0 305 0 0 -130z
m610 0 l0 -130 -300 0 -300 0 0 130 0 130 300 0 300 0 0 -130z"/>
<path d="M5163 23745 c-108 -29 -186 -84 -224 -157 -45 -88 -2 -189 108 -254
46 -26 177 -64 225 -64 l28 0 0 -171 c0 -162 -1 -171 -20 -176 -25 -7 -25 -7
-1 -76 l20 -57 -180 0 -179 0 0 -245 0 -245 85 0 c47 0 85 -3 85 -6 0 -10
-283 -364 -291 -364 -4 0 -11 5 -14 10 -13 21 -24 8 -45 -55 l-22 -65 -269 0
-269 0 0 -250 0 -250 75 0 c41 0 75 -2 75 -5 0 -5 -404 -500 -436 -534 -11
-12 -16 -12 -29 -1 -20 17 -26 10 -50 -58 l-20 -57 -275 -5 -275 -5 0 -245 0
-245 82 -3 83 -3 -29 -57 c-72 -145 -83 -259 -33 -365 34 -75 126 -177 223
-249 58 -42 67 -53 59 -69 -13 -23 -8 -25 63 -34 31 -4 57 -9 57 -12 0 -2 -9
-21 -20 -43 -110 -215 234 -403 531 -291 149 56 217 188 155 298 -14 24 -22
44 -18 47 4 2 33 7 65 10 53 7 57 9 51 30 -5 20 8 30 111 90 168 99 335 228
455 352 119 124 181 211 245 347 67 140 54 131 -18 -13 -34 -69 -88 -159 -119
-201 -119 -157 -329 -334 -558 -470 -65 -38 -121 -69 -125 -69 -4 0 -13 8 -20
17 -12 16 -17 12 -58 -32 l-45 -50 -29 18 c-15 10 -48 28 -72 39 l-45 21 54
47 c52 46 53 48 32 59 -21 11 -21 13 -6 42 8 17 13 33 11 35 -2 3 -10 -9 -17
-26 -11 -25 -17 -30 -35 -26 -27 7 -31 -2 -41 -74 l-7 -50 -51 7 c-85 13 -196
6 -260 -16 -33 -12 -63 -21 -67 -21 -4 0 -20 27 -35 60 -28 64 -33 67 -53 48
-10 -11 -18 -6 -42 22 -17 19 -46 62 -64 95 -19 33 -35 56 -35 50 0 -14 66
-123 97 -159 22 -27 23 -30 7 -47 -15 -17 -13 -19 47 -49 l62 -32 -29 -24
c-16 -13 -31 -23 -34 -24 -3 0 -25 23 -49 51 -41 48 -45 50 -58 33 -13 -18
-14 -18 -51 1 -20 11 -78 61 -129 110 -113 111 -153 185 -153 281 0 70 27 165
68 239 l27 50 75 2 c41 1 164 2 273 2 l197 1 0 250 0 250 -72 0 -73 0 48 30
c51 33 54 37 32 54 -13 9 23 57 215 291 l231 280 277 5 277 5 0 245 0 245 -75
5 -75 5 47 30 c44 27 46 31 31 47 -14 16 -13 21 13 55 73 97 259 329 268 335
6 4 61 8 123 8 l112 0 10 -37 c22 -85 29 -107 30 -93 0 8 -5 38 -13 67 -8 28
-11 54 -8 57 3 3 68 6 144 6 l138 0 0 245 0 245 -175 0 c-96 0 -175 2 -175 3
0 2 9 30 20 62 11 32 20 59 20 61 0 1 -10 4 -22 6 -23 3 -23 5 -26 176 l-2
172 32 0 c49 0 153 27 201 51 71 37 105 69 133 125 21 43 25 61 19 94 -15 88
-114 172 -240 204 -78 20 -221 20 -292 1z m252 -6 c115 -21 227 -91 255 -159
20 -48 8 -125 -27 -167 -63 -79 -199 -128 -348 -126 -124 1 -234 40 -302 106
-185 177 95 407 422 346z m243 -1196 l2 -233 -355 0 -355 0 0 228 c0 126 3
232 7 235 4 4 162 6 352 5 l346 -3 3 -232z m-738 -973 l0 -230 -355 0 -355 0
0 230 0 230 355 0 355 0 0 -230z m-940 -1160 l0 -230 -355 0 -355 0 0 230 0
230 355 0 355 0 0 -230z m294 -960 c36 -14 77 -40 106 -69 90 -87 90 -175 0
-262 -74 -73 -138 -94 -285 -94 -103 0 -129 4 -179 24 -75 30 -149 101 -167
159 -30 102 51 204 199 253 81 27 244 21 326 -11z"/>
<path d="M3790 18265 l0 -285 965 0 965 0 0 285 0 285 -965 0 -965 0 0 -285z
m688 138 l3 -133 -341 0 -340 0 0 128 c0 71 3 132 7 135 4 4 155 6 337 5 l331
-3 3 -132z m1230 0 l3 -133 -611 0 -610 0 0 128 c0 71 3 132 7 135 3 4 277 6
607 5 l601 -3 3 -132z m-1228 -283 l0 -130 -340 0 -340 0 0 130 0 130 340 0
340 0 0 -130z m620 0 l0 -130 -305 0 -305 0 0 130 0 130 305 0 305 0 0 -130z
m610 0 l0 -130 -300 0 -300 0 0 130 0 130 300 0 300 0 0 -130z"/>
<path d="M4592 17811 c-121 -35 -213 -116 -227 -201 -6 -33 -2 -51 19 -94 28
-56 62 -88 133 -125 48 -24 152 -51 201 -51 l32 0 -2 -172 c-3 -171 -3 -173
-25 -176 -13 -2 -23 -5 -23 -6 0 -2 9 -29 20 -61 11 -32 20 -60 20 -62 0 -1
-79 -3 -175 -3 l-175 0 0 -245 0 -245 100 0 c55 0 100 -2 100 -5 0 -2 -52 -83
-115 -180 -105 -160 -117 -175 -139 -169 -20 5 -25 1 -30 -23 -4 -15 -12 -45
-17 -65 l-10 -38 -252 -2 -252 -3 0 -245 0 -245 93 -3 c50 -1 92 -4 92 -6 0
-2 -13 -32 -29 -68 -68 -149 -79 -282 -35 -414 25 -74 26 -78 8 -91 -17 -12
-15 -16 29 -61 l48 -49 -38 -15 c-68 -28 -123 -76 -149 -131 -30 -65 -30 -89
0 -154 72 -153 347 -217 546 -127 59 27 123 82 146 126 21 40 18 127 -6 165
l-19 32 47 6 c77 11 84 14 78 38 -4 18 6 29 57 62 118 76 250 231 282 330 4
11 -9 -8 -28 -43 -60 -108 -122 -178 -224 -253 -77 -58 -100 -66 -116 -45 -12
17 -17 15 -54 -28 -44 -50 -61 -56 -87 -27 -26 28 -123 69 -195 80 -35 6 -66
13 -69 15 -3 3 5 31 17 62 11 31 21 57 21 59 0 2 -10 5 -22 7 -21 3 -23 9 -26
86 -3 81 -2 83 18 72 14 -7 26 -8 38 -1 15 9 15 10 -4 11 -12 0 -24 7 -28 15
-4 11 1 15 19 15 15 0 25 6 25 14 0 18 -30 30 -44 16 -5 -5 -14 -10 -18 -10
-4 0 -8 70 -8 155 l0 155 180 0 180 0 0 250 0 250 -92 0 -93 1 45 39 c42 36
44 40 27 52 -18 13 -11 26 101 199 l119 184 118 0 118 0 33 -95 c18 -52 33
-90 33 -84 1 6 -10 44 -24 84 -14 40 -25 79 -25 87 0 10 29 13 130 13 l130 0
0 245 0 245 -179 0 -180 0 20 57 c24 69 24 69 -1 76 -19 5 -20 14 -20 176 l0
171 28 0 c48 0 179 38 225 64 110 65 153 166 108 254 -38 74 -117 128 -228
157 -77 20 -222 18 -301 -4z m286 -6 c167 -40 271 -148 242 -254 -49 -181
-396 -258 -616 -137 -78 44 -116 91 -122 155 -6 64 9 101 60 147 99 89 279
126 436 89z m230 -1192 l2 -233 -355 0 -355 0 0 228 c0 126 3 232 7 235 4 4
162 6 352 5 l346 -3 3 -232z m-618 -973 l0 -230 -355 0 -355 0 0 230 0 230
355 0 355 0 0 -230z m-360 -515 c0 -258 -1 -265 -20 -265 -11 0 -20 -4 -20
-10 0 -5 9 -32 20 -60 11 -28 20 -52 20 -55 0 -3 -23 -8 -92 -20 l-36 -6 -7
53 c-10 83 -13 90 -35 78 -23 -12 -29 -3 -59 94 -36 118 -23 238 43 382 l35
74 75 0 76 0 0 -265z m135 -429 c171 -45 260 -163 211 -279 -29 -70 -118 -132
-225 -157 -70 -16 -221 -8 -284 16 -64 25 -136 81 -159 124 -63 119 25 247
202 296 60 17 193 17 255 0z"/>
<path d="M3850 13495 l0 -285 350 0 349 0 3 138 3 137 558 3 557 2 0 145 0
145 -910 0 -910 0 0 -285z m688 138 l3 -133 -341 0 -340 0 0 128 c0 71 3 132
7 135 4 4 155 6 337 5 l331 -3 3 -132z m1120 0 l3 -133 -556 0 -555 0 0 128
c0 71 3 132 7 135 3 4 252 6 552 5 l546 -3 3 -132z m-1118 -283 l0 -130 -340
0 -340 0 0 130 0 130 340 0 340 0 0 -130z"/>
<path d="M6085 13046 c-157 -42 -245 -125 -245 -230 0 -60 18 -93 76 -145 55
-48 132 -79 232 -94 l72 -11 -2 -171 c-3 -166 -4 -170 -25 -173 l-22 -3 20
-56 c10 -31 19 -60 19 -65 0 -4 -79 -8 -175 -8 l-175 0 0 -245 0 -244 86 -3
85 -3 -142 -180 c-78 -99 -147 -179 -153 -179 -6 1 -17 3 -24 5 -9 3 -21 -17
-35 -56 l-22 -60 -270 -5 -270 -5 0 -245 0 -245 56 -5 57 -5 -180 -184 c-164
-168 -182 -183 -200 -172 -24 15 -19 20 -57 -56 l-31 -63 -290 0 -290 0 0
-245 0 -245 61 0 62 0 -48 -52 c-27 -29 -150 -156 -274 -282 -207 -211 -226
-228 -245 -216 -11 7 -22 9 -23 4 -2 -5 -16 -34 -31 -64 l-27 -55 -292 -3
-293 -2 0 -245 0 -245 85 0 c47 0 85 -3 85 -6 0 -4 -379 -498 -417 -544 -2 -2
-13 2 -24 9 -12 7 -22 11 -24 9 -1 -2 -12 -33 -24 -70 l-23 -68 -269 0 -269 0
0 -245 0 -245 81 0 c44 0 79 -3 77 -7 -2 -5 -17 -35 -34 -68 -88 -168 -84
-294 13 -390 76 -74 246 -154 462 -216 58 -17 156 -50 216 -74 127 -51 292
-97 418 -115 81 -12 87 -15 87 -37 0 -27 -2 -26 72 -9 31 8 59 11 62 8 3 -3 6
-17 6 -32 0 -40 52 -113 106 -148 60 -40 128 -62 219 -69 185 -14 365 78 397
204 6 24 14 43 18 43 4 0 32 -9 63 -19 l57 -20 0 25 c0 16 6 24 18 24 9 0 94
7 187 15 660 57 1123 184 1458 402 76 49 255 220 276 263 9 17 4 14 -15 -10
-56 -72 -183 -188 -265 -243 -273 -182 -694 -312 -1209 -376 -131 -16 -399
-41 -442 -41 -4 0 -8 11 -8 25 l0 25 -52 -21 c-29 -12 -58 -23 -65 -26 -9 -4
-43 54 -43 73 0 2 29 4 65 4 63 0 65 1 60 23 -5 20 2 25 72 51 121 46 350 165
460 239 145 97 305 253 358 347 13 23 2 11 -63 -71 -137 -174 -370 -335 -679
-470 -73 -33 -138 -59 -144 -59 -7 0 -18 8 -24 17 -12 16 -17 14 -63 -24 l-50
-43 -49 40 c-26 23 -74 50 -105 62 l-58 21 41 49 c39 46 40 50 24 62 -17 12
-17 16 9 81 15 37 25 69 23 71 -2 2 -16 -27 -31 -66 -25 -63 -30 -69 -51 -64
-21 5 -23 2 -27 -55 -2 -33 -6 -63 -9 -65 -2 -3 -49 -6 -104 -7 l-100 -2 -9
67 c-9 63 -10 66 -35 64 -14 -2 -34 -11 -44 -22 -19 -18 -18 -19 24 -62 26
-27 39 -47 34 -53 -6 -4 -32 -17 -60 -27 -34 -12 -69 -37 -107 -76 l-58 -58
-52 27 c-29 15 -56 29 -59 31 -4 1 -9 -6 -12 -18 -7 -26 -16 -25 -184 5 -211
39 -402 83 -450 105 -24 10 -49 17 -56 14 -21 -8 -226 64 -342 121 -175 84
-229 150 -228 275 1 71 23 140 73 228 l30 52 275 0 275 0 0 245 0 244 -82 3
-83 3 54 33 c50 31 52 34 36 51 -15 18 -5 33 202 300 l218 281 268 0 267 0 0
245 0 245 -57 0 -58 1 50 26 c62 32 59 27 44 51 -12 18 11 44 267 306 l279
286 293 0 292 0 0 244 0 245 -52 3 -53 3 45 24 c25 13 46 25 48 26 2 2 -3 12
-10 24 -12 20 0 34 177 211 l190 190 107 0 108 0 2 -1582 c2 -871 4 -1300 5
-955 3 625 3 628 23 617 14 -7 26 -8 38 -1 15 9 15 10 -4 11 -12 0 -24 7 -28
15 -4 11 1 15 19 15 15 0 25 6 25 14 0 18 -30 30 -44 16 -5 -5 -14 -10 -18
-10 -4 0 -8 419 -8 930 l0 930 180 0 180 0 0 250 0 250 -77 0 -78 0 48 30 c52
33 54 37 31 54 -13 10 7 40 137 204 l151 192 154 0 153 0 16 -30 c9 -16 18
-30 21 -30 2 0 0 9 -6 19 -20 38 -13 41 95 41 l105 0 0 245 0 245 -175 0 c-96
0 -175 4 -175 8 0 5 9 34 19 65 l20 56 -22 3 c-21 3 -22 7 -25 173 l-2 171 72
11 c100 15 177 46 232 94 59 52 76 85 76 147 0 90 -78 174 -205 217 -66 23
-251 29 -320 11z m320 -26 c82 -28 152 -82 176 -133 35 -79 19 -139 -56 -205
-147 -129 -453 -129 -600 0 -75 66 -91 126 -56 205 31 68 140 133 261 157 56
11 216 -3 275 -24z m173 -1177 l2 -233 -355 0 -355 0 0 228 c0 126 3 232 7
235 4 4 162 6 352 5 l346 -3 3 -232z m-748 -973 l0 -230 -355 0 -355 0 0 230
0 230 355 0 355 0 0 -230z m-932 -972 l-3 -233 -350 0 -350 0 -3 233 -2 232
355 0 355 0 -2 -232z m-1110 -1160 l-3 -233 -350 0 -350 0 -3 233 -2 232 355
0 355 0 -2 -232z m-880 -1160 l-3 -233 -350 0 -350 0 -3 233 -2 232 355 0 355
0 -2 -232z m1223 -944 c136 -31 229 -119 229 -218 0 -57 -17 -93 -67 -136
-170 -150 -524 -115 -613 61 -95 185 169 357 451 293z m-911 -88 c96 -19 198
-38 225 -41 63 -9 77 -16 65 -35 -7 -12 -23 -11 -112 4 -121 22 -285 66 -348
95 -25 12 -36 19 -25 16 11 -2 99 -20 195 -39z"/>
<path d="M6585 9225 c0 -1245 1 -1486 5 -835 3 503 6 910 8 904 3 -18 32 -25
50 -14 15 8 14 9 -4 10 -12 0 -24 7 -28 15 -4 11 1 15 19 15 15 0 25 6 25 14
0 22 -31 28 -51 10 -18 -17 -19 6 -22 807 -1 453 -2 37 -2 -926z"/>
<path d="M3790 5285 l0 -425 965 0 965 0 0 425 0 425 -965 0 -965 0 0 -425z
m690 285 l0 -130 -340 0 -340 0 0 130 0 130 340 0 340 0 0 -130z m1230 0 l0
-130 -610 0 -610 0 0 130 0 130 610 0 610 0 0 -130z m-1230 -280 l0 -130 -340
0 -340 0 0 130 0 130 340 0 340 0 0 -130z m620 0 l0 -130 -305 0 -305 0 0 130
0 130 305 0 305 0 0 -130z m610 0 l0 -130 -300 0 -300 0 0 130 0 130 300 0
300 0 0 -130z m-1232 -282 l-3 -133 -335 0 -335 0 -3 133 -3 132 341 0 341 0
-3 -132z m620 0 l-3 -133 -300 0 -300 0 -3 133 -3 132 306 0 306 0 -3 -132z
m610 0 l-3 -133 -295 0 -295 0 -3 133 -3 132 301 0 301 0 -3 -132z"/>
<path d="M4592 4701 c-121 -35 -213 -116 -227 -201 -6 -33 -2 -51 19 -94 28
-56 62 -88 133 -125 48 -24 152 -51 201 -51 l32 0 -2 -172 c-3 -171 -3 -173
-25 -176 -13 -2 -23 -5 -23 -6 0 -2 9 -29 20 -61 11 -32 20 -60 20 -62 0 -1
-79 -3 -175 -3 l-175 0 0 -245 0 -245 100 0 c55 0 100 -2 100 -5 0 -2 -52 -83
-115 -180 -105 -160 -117 -175 -139 -169 -20 5 -25 1 -30 -23 -4 -15 -12 -45
-17 -65 l-10 -38 -252 -2 -252 -3 0 -245 0 -245 93 -3 c50 -1 92 -4 92 -6 0
-2 -13 -32 -29 -68 -68 -149 -79 -282 -35 -414 25 -74 26 -78 8 -91 -17 -12
-15 -16 29 -61 l48 -49 -38 -15 c-68 -28 -123 -76 -149 -131 -30 -65 -30 -89
0 -154 72 -153 347 -217 546 -127 59 27 123 82 146 126 21 40 18 127 -6 165
l-19 32 47 6 c77 11 84 14 78 38 -4 18 6 29 57 62 118 76 250 231 282 330 4
11 -9 -8 -28 -43 -60 -108 -122 -178 -224 -253 -77 -58 -100 -66 -116 -45 -12
17 -17 15 -54 -28 -44 -50 -61 -56 -87 -27 -26 28 -123 69 -195 80 -35 6 -66
13 -69 15 -3 3 5 31 17 62 11 31 21 57 21 59 0 2 -10 5 -22 7 -21 3 -23 9 -26
86 -3 81 -2 83 18 72 14 -7 26 -8 38 -1 15 9 15 10 -4 11 -12 0 -24 7 -28 15
-4 11 1 15 19 15 15 0 25 6 25 14 0 18 -30 30 -44 16 -5 -5 -14 -10 -18 -10
-4 0 -8 70 -8 155 l0 155 180 0 180 0 0 250 0 250 -92 0 -93 1 45 39 c42 36
44 40 27 52 -18 13 -11 26 101 199 l119 184 118 0 118 0 33 -95 c18 -52 33
-90 33 -84 1 6 -10 44 -24 84 -14 40 -25 79 -25 87 0 10 29 13 130 13 l130 0
0 245 0 245 -179 0 -180 0 20 57 c24 69 24 69 -1 76 -19 5 -20 14 -20 176 l0
171 28 0 c48 0 179 38 225 64 110 65 153 166 108 254 -38 74 -117 128 -228
157 -77 20 -222 18 -301 -4z m286 -6 c167 -40 271 -148 242 -254 -49 -181
-396 -258 -616 -137 -78 44 -116 91 -122 155 -6 64 9 101 60 147 99 89 279
126 436 89z m230 -1192 l2 -233 -355 0 -355 0 0 228 c0 126 3 232 7 235 4 4
162 6 352 5 l346 -3 3 -232z m-618 -973 l0 -230 -355 0 -355 0 0 230 0 230
355 0 355 0 0 -230z m-360 -515 c0 -258 -1 -265 -20 -265 -11 0 -20 -4 -20
-10 0 -5 9 -32 20 -60 11 -28 20 -52 20 -55 0 -3 -23 -8 -92 -20 l-36 -6 -7
53 c-10 83 -13 90 -35 78 -23 -12 -29 -3 -59 94 -36 118 -23 238 43 382 l35
74 75 0 76 0 0 -265z m135 -429 c171 -45 260 -163 211 -279 -29 -70 -118 -132
-225 -157 -70 -16 -221 -8 -284 16 -64 25 -136 81 -159 124 -63 119 25 247
202 296 60 17 193 17 255 0z"/>
<path d="M3850 385 l0 -285 910 0 910 0 0 285 0 285 -910 0 -910 0 0 -285z
m688 138 l3 -133 -341 0 -340 0 0 128 c0 71 3 132 7 135 4 4 155 6 337 5 l331
-3 3 -132z m1120 0 l3 -133 -556 0 -555 0 0 128 c0 71 3 132 7 135 3 4 252 6
552 5 l546 -3 3 -132z m-1118 -283 l0 -130 -340 0 -340 0 0 130 0 130 340 0
340 0 0 -130z m1120 0 l0 -130 -555 0 -555 0 0 130 0 130 555 0 555 0 0 -130z"/>
</g>
</svg>
