<?xml version="1.0" standalone="no"?>
<!DOCTYPE svg PUBLIC "-//W3C//DTD SVG 20010904//EN"
 "http://www.w3.org/TR/2001/REC-SVG-20010904/DTD/svg10.dtd">
<svg version="1.0" xmlns="http://www.w3.org/2000/svg"
 width="935.000000pt" height="7584.000000pt" viewBox="0 0 935.000000 7584.000000"
 preserveAspectRatio="xMidYMid meet">
<metadata>
Created by potrace 1.12, written by Peter Selinger 2001-2015
</metadata>
<g transform="translate(0.000000,7584.000000) scale(0.100000,-0.100000)"
fill="#000000" stroke="none">
<path d="M170 75070 c0 -67 4 -110 10 -110 6 0 10 20 10 44 l0 44 56 4 c61 5
84 23 84 65 0 42 -33 63 -100 63 l-60 0 0 -110z"/>
<path d="M974 75166 c-16 -12 -19 -27 -19 -96 0 -88 12 -110 60 -110 41 0 60
35 60 110 0 53 -4 73 -19 89 -22 24 -54 27 -82 7z"/>
<path d="M549 75099 c-27 -27 -26 -92 2 -120 17 -17 28 -20 56 -14 32 6 34 5
23 -14 -12 -23 -58 -29 -78 -9 -15 15 -24 6 -16 -15 8 -21 58 -31 84 -17 30
16 40 50 40 133 l0 72 -46 2 c-33 1 -51 -4 -65 -18z"/>
<path d="M1540 74509 c0 -35 -3 -40 -17 -34 -40 17 -52 16 -72 -4 -28 -28 -29
-93 -1 -121 23 -23 33 -24 63 -9 16 9 22 9 25 0 2 -6 8 -11 13 -11 5 0 9 50 9
110 0 67 -4 110 -10 110 -5 0 -10 -18 -10 -41z"/>
<path d="M235 74465 c-16 -15 -25 -36 -25 -55 0 -35 38 -80 68 -80 38 0 67 34
67 80 0 72 -62 104 -110 55z"/>
<path d="M1285 74465 c-16 -15 -25 -36 -25 -55 0 -35 38 -80 68 -80 38 0 67
34 67 80 0 72 -62 104 -110 55z"/>
<path d="M1570 62170 c0 -38 -12 -52 -25 -30 -10 16 -44 11 -65 -10 -29 -29
-27 -90 3 -118 26 -25 47 -28 66 -9 11 10 14 10 18 0 14 -38 23 0 23 97 0 67
-4 110 -10 110 -5 0 -10 -18 -10 -40z"/>
<path d="M720 62040 c0 -67 4 -110 10 -110 6 0 10 18 10 40 0 44 2 45 29 28
15 -9 24 -8 45 5 67 44 21 180 -47 137 -15 -9 -22 -10 -25 -1 -2 6 -8 11 -13
11 -5 0 -9 -49 -9 -110z"/>
<path d="M1006 62129 c-20 -16 -26 -29 -26 -59 0 -30 6 -43 26 -59 54 -42 107
-12 107 59 0 71 -53 101 -107 59z"/>
<path d="M8025 61773 c-109 -15 -233 -64 -292 -116 -170 -149 10 -331 360
-363 l77 -7 0 -169 c0 -161 -1 -170 -20 -175 -25 -7 -25 -7 -1 -76 l20 -57
-180 0 -179 0 0 -245 0 -245 180 0 180 0 0 -175 c0 -168 -1 -175 -20 -175 -25
0 -25 -12 0 -77 l19 -52 -47 -6 c-185 -23 -305 -83 -353 -177 -47 -91 3 -190
128 -253 53 -26 140 -50 226 -60 l47 -6 0 -265 c0 -257 -1 -264 -20 -264 -25
0 -25 -3 -1 -73 l19 -56 -56 -6 c-234 -23 -390 -93 -434 -192 -18 -40 -19 -51
-8 -87 15 -52 71 -106 145 -141 59 -27 199 -61 298 -71 l57 -5 0 -170 c0 -162
-1 -169 -20 -169 -24 0 -25 -14 -5 -70 26 -74 34 -70 -160 -70 l-175 0 0 -245
0 -245 105 0 104 0 -111 -172 c-61 -95 -114 -177 -118 -181 -4 -5 -17 -4 -29
2 -21 12 -26 3 -46 -96 l-7 -33 -254 0 -254 0 0 -245 0 -245 95 0 c52 0 95 -2
95 -5 0 -3 -11 -27 -24 -53 -74 -147 -90 -310 -43 -437 l26 -70 -20 -16 c-20
-15 -20 -16 26 -58 26 -24 45 -44 43 -46 -2 -1 -25 -10 -53 -19 -74 -24 -150
-71 -181 -112 -21 -27 -29 -50 -32 -92 -3 -51 -1 -61 28 -100 57 -79 180 -136
327 -150 l68 -7 3 -262 c2 -250 1 -263 -16 -263 -31 0 -32 -10 -8 -75 l22 -62
-112 -7 c-386 -22 -651 -133 -626 -264 16 -85 217 -175 457 -205 54 -7 100
-17 101 -22 4 -13 -261 -371 -273 -368 -4 1 -15 4 -23 7 -12 5 -20 -9 -34 -59
-10 -36 -21 -67 -25 -69 -3 -2 -37 1 -76 6 -132 18 -321 -22 -417 -88 -189
-132 -78 -339 207 -386 33 -5 71 -13 85 -16 l26 -7 -22 -260 c-12 -143 -23
-261 -23 -262 -1 -2 -10 -3 -21 -3 -24 0 -25 -11 -5 -76 8 -27 15 -50 15 -51
0 -1 -35 -4 -77 -8 -238 -20 -411 -103 -443 -211 -11 -36 -10 -47 8 -87 44
-99 200 -169 432 -192 l55 -6 -3 -169 -3 -170 -24 0 c-30 0 -30 -2 -6 -73 11
-30 17 -58 14 -61 -4 -3 -84 -6 -180 -6 l-173 0 0 -244 0 -245 37 -3 36 -3
-224 -192 c-209 -178 -225 -190 -242 -176 -9 9 -19 14 -20 12 -2 -2 -19 -30
-38 -61 l-34 -58 -312 0 -313 0 0 -245 0 -244 82 -3 81 -3 -227 -275 c-125
-151 -230 -274 -234 -273 -4 1 -14 4 -23 8 -13 5 -22 -7 -40 -59 l-24 -66
-272 0 -273 0 0 -245 0 -245 80 0 80 0 -34 -68 c-51 -101 -69 -174 -63 -248 6
-80 38 -137 126 -225 111 -110 234 -183 421 -250 87 -30 106 -41 108 -59 3
-21 8 -22 67 -18 l64 4 -1 -49 c0 -79 65 -155 174 -200 43 -18 167 -46 223
-49 l40 -3 3 -262 c2 -250 1 -263 -16 -263 -31 0 -32 -10 -8 -75 l23 -62 -120
-7 c-201 -11 -419 -56 -520 -108 -53 -27 -114 -84 -121 -114 -15 -59 52 -130
165 -174 121 -48 333 -85 534 -93 l60 -2 3 -172 2 -173 -25 0 c-30 0 -30 3 -5
-60 11 -28 20 -55 20 -60 0 -5 -17 -12 -37 -15 -167 -24 -245 -51 -309 -108
-55 -48 -74 -84 -74 -137 0 -52 18 -87 70 -134 64 -57 166 -94 313 -112 l47
-5 0 -265 0 -264 -24 0 -25 0 21 -61 c11 -33 18 -62 15 -65 -2 -2 -44 -9 -93
-14 -259 -29 -423 -138 -399 -266 7 -42 54 -97 110 -129 79 -47 177 -73 338
-90 l57 -6 0 -170 c0 -157 -1 -169 -18 -169 -30 0 -31 -9 -11 -67 10 -31 19
-60 19 -65 0 -4 -79 -8 -175 -8 l-175 0 0 -245 0 -245 43 -1 c23 0 106 0 184
1 l143 1 3 -273 2 -273 3 273 2 272 175 0 175 0 0 245 0 245 -175 0 c-96 0
-175 4 -175 8 0 5 9 34 19 65 20 58 19 67 -11 67 -17 0 -18 12 -18 169 l0 170
58 6 c160 17 258 43 337 90 56 32 103 87 110 129 24 128 -140 237 -399 266
-49 5 -91 12 -93 14 -3 3 4 32 15 65 l21 61 -25 0 c-24 0 -24 1 -24 92 0 91 0
91 20 73 16 -14 23 -16 32 -7 9 9 8 12 -4 12 -19 0 -30 24 -21 46 3 9 13 14
24 11 11 -3 17 -1 13 4 -8 14 -25 11 -46 -8 -17 -16 -18 -10 -18 145 l0 161
48 5 c146 18 248 55 312 112 52 47 70 82 70 134 0 53 -19 89 -74 137 -64 57
-142 84 -308 108 -21 3 -38 10 -38 15 0 5 9 32 20 60 25 63 25 60 -5 60 l-25
0 2 173 3 172 125 7 c69 4 152 11 185 17 l60 10 80 -54 c151 -102 299 -246
362 -352 31 -53 42 -57 13 -5 -58 103 -208 253 -364 363 -42 30 -63 50 -55 53
8 3 43 12 77 21 187 47 296 130 276 210 -10 41 -88 101 -173 134 -125 48 -377
91 -536 91 l-53 0 24 64 c24 66 23 76 -8 76 -16 0 -18 9 -18 70 0 49 4 70 13
70 7 0 12 15 12 40 1 27 -3 40 -12 40 -11 0 -13 31 -11 153 l3 152 40 3 c56 3
180 31 223 49 135 56 201 159 163 255 -15 40 -85 104 -136 125 -25 10 -45 21
-45 24 0 4 22 16 49 28 58 24 66 34 46 51 -12 10 -1 27 73 109 160 175 268
325 342 471 58 116 49 112 -13 -5 -82 -155 -194 -308 -356 -485 -54 -59 -62
-64 -80 -52 -11 6 -22 12 -24 12 -2 0 -16 -27 -32 -61 -27 -55 -32 -60 -55
-55 -14 3 -64 11 -111 18 l-87 12 19 54 c24 69 24 72 -1 72 -20 0 -20 7 -20
381 0 346 1 379 16 365 18 -18 24 -19 44 -6 12 8 11 10 -6 10 -12 0 -24 7 -28
15 -4 11 1 15 19 15 15 0 25 6 25 14 0 22 -31 28 -51 10 -18 -17 -19 -5 -19
439 l0 457 180 0 180 0 0 245 0 245 -27 1 c-25 0 -26 1 -8 10 11 5 33 13 49
19 22 8 26 14 18 22 -7 7 -12 17 -12 24 0 6 103 100 229 208 l229 196 136 0
136 0 3 -227 2 -228 3 228 2 227 175 0 175 0 0 245 0 245 -175 0 c-96 0 -175
2 -175 5 0 2 9 27 20 55 11 28 20 57 20 65 0 8 -9 15 -20 15 -18 0 -20 7 -20
88 0 48 3 124 6 169 l7 82 66 6 c222 22 376 90 427 187 69 131 -106 267 -384
298 -40 4 -76 10 -78 13 -3 3 3 22 14 44 34 66 36 83 13 83 -18 0 -21 6 -21
39 0 42 27 380 36 448 l5 41 62 7 c193 21 320 82 369 178 27 55 21 116 -19
165 -35 44 -121 98 -180 115 -24 6 -43 14 -43 18 0 4 23 21 50 39 54 35 59 44
34 58 -14 8 5 40 127 206 l144 197 100 -3 c96 -3 99 -4 106 -28 l7 -25 1 26
c1 26 2 26 104 32 315 20 576 119 587 223 4 39 -1 54 -32 89 -77 88 -310 155
-592 171 l-112 7 22 62 c24 65 23 75 -8 75 -16 0 -18 9 -18 70 0 49 4 70 13
70 7 0 12 15 12 40 1 27 -3 40 -12 40 -11 0 -13 31 -11 153 l3 152 68 7 c147
14 270 71 327 150 29 39 31 49 28 100 -3 41 -11 65 -31 91 -15 20 -23 38 -19
41 4 3 32 8 60 12 57 7 56 7 42 33 -7 15 2 26 55 65 88 64 176 163 219 245 20
38 36 73 36 77 0 5 -18 -24 -39 -63 -50 -95 -117 -172 -208 -240 -71 -54 -74
-55 -88 -37 -14 18 -17 17 -59 -30 l-44 -50 -70 32 c-67 31 -193 62 -252 62
l-29 0 20 57 c24 69 24 69 -1 76 -18 5 -20 14 -20 92 0 79 1 85 16 71 18 -18
24 -19 44 -6 12 8 11 10 -6 10 -12 0 -24 7 -28 15 -4 11 1 15 19 15 15 0 25 6
25 14 0 22 -31 28 -51 10 -18 -17 -19 -12 -19 149 l0 167 180 0 180 0 0 245 0
245 -97 0 -98 1 23 19 c13 11 36 28 50 39 26 19 26 20 8 34 -12 9 -16 19 -11
28 4 8 58 92 119 186 l111 173 116 0 c110 0 117 -1 128 -22 l11 -23 -6 23 c-5
22 -5 22 125 22 l131 0 0 245 0 245 -175 0 c-96 0 -175 2 -175 3 0 2 9 30 20
62 25 73 25 75 -5 75 l-25 0 0 169 0 169 68 7 c314 31 501 164 428 303 -49 94
-192 160 -395 183 -47 5 -86 11 -88 13 -2 1 6 29 17 61 11 32 20 59 20 61 0 1
-10 4 -22 6 -21 3 -23 9 -26 72 -4 84 2 104 24 86 11 -10 18 -10 26 -2 9 9 8
12 -4 12 -19 0 -30 24 -21 46 4 10 13 14 26 10 15 -4 17 -2 8 7 -9 9 -16 9
-31 -1 -11 -6 -22 -12 -25 -12 -3 0 -5 69 -5 154 l0 155 58 6 c235 27 392 142
368 269 -20 106 -151 189 -340 217 -39 5 -71 11 -73 13 -2 2 5 27 17 55 25 65
25 69 -2 73 -23 3 -23 4 -23 173 l0 170 178 3 177 2 0 245 0 245 -175 0 c-96
0 -175 2 -175 3 0 2 9 30 20 62 11 32 20 59 20 61 0 1 -10 4 -22 6 -23 3 -23
5 -26 176 l-2 172 38 0 c65 0 206 28 281 56 75 28 151 86 176 135 60 115 -76
239 -313 285 -68 13 -264 17 -337 7z m389 -32 c44 -12 106 -36 139 -54 192
-105 149 -260 -94 -341 -291 -97 -721 -11 -770 154 -14 47 -7 79 28 120 51 62
154 109 294 135 103 20 300 13 403 -14z m114 -1178 l2 -233 -355 0 -355 0 0
228 c0 126 3 232 7 235 4 4 162 6 352 5 l346 -3 3 -232z m-197 -757 c74 -16
150 -51 198 -92 87 -73 82 -187 -11 -258 -182 -138 -546 -127 -701 22 -120
116 -24 272 199 326 77 19 232 19 315 2z m84 -1170 c235 -65 327 -193 217
-303 -77 -77 -219 -123 -409 -130 -159 -7 -289 13 -385 58 -113 54 -158 102
-158 169 0 90 114 173 290 211 107 24 351 21 445 -5z m113 -1178 l-3 -233
-350 0 -350 0 -3 233 -2 232 355 0 355 0 -2 -232z m-610 -975 l2 -233 -355 0
-355 0 0 228 c0 126 3 232 7 235 4 4 162 6 352 5 l346 -3 3 -232z m-358 -509
c0 -257 -1 -266 -20 -271 -24 -7 -24 -7 -1 -75 l19 -55 -60 -7 c-33 -3 -64 -4
-68 -1 -4 2 -10 32 -14 66 -7 58 -8 61 -31 55 -21 -5 -26 0 -46 51 -48 126
-35 280 36 431 l34 72 76 0 75 0 0 -266z m185 -440 c127 -33 227 -108 241
-182 32 -172 -266 -304 -558 -248 -288 55 -382 257 -175 376 130 75 324 96
492 54z m123 -1160 c197 -29 342 -83 400 -149 52 -58 42 -103 -34 -156 -64
-44 -187 -86 -323 -111 -96 -18 -155 -21 -346 -21 -191 0 -250 3 -346 21 -136
25 -259 67 -323 111 -76 53 -86 98 -34 156 121 138 596 208 1006 149z m-787
-982 c119 -43 192 -99 209 -163 28 -102 -48 -186 -220 -245 -84 -29 -309 -27
-406 3 -134 42 -214 117 -214 200 0 56 19 93 67 131 53 41 94 60 176 83 97 26
304 21 388 -9z m-66 -1156 c235 -65 327 -193 217 -303 -77 -77 -219 -123 -409
-130 -159 -7 -289 13 -385 58 -113 54 -158 102 -158 169 0 90 114 173 290 211
107 24 351 21 445 -5z m93 -1178 l-3 -233 -350 0 -350 0 -3 233 -2 232 355 0
355 0 -2 -232z m-1110 -975 l2 -233 -355 0 -355 0 0 228 c0 126 3 232 7 235 4
4 162 6 352 5 l346 -3 3 -232z m-358 -1093 c0 -843 0 -850 -20 -850 -25 0 -25
-3 -1 -73 l20 -57 -35 0 c-92 0 -243 -48 -335 -107 -26 -17 -27 -16 -75 26
-42 37 -50 40 -60 27 -17 -24 -31 -20 -130 39 -114 68 -227 173 -276 256 -21
35 -38 59 -38 53 0 -23 80 -132 137 -187 67 -66 148 -123 238 -169 54 -28 58
-32 37 -39 -12 -5 -22 -15 -22 -24 0 -22 -18 -19 -122 19 -227 82 -394 198
-488 338 -68 102 -63 208 18 362 l37 71 63 3 62 3 2 -123 2 -123 6 120 5 120
208 3 207 2 0 245 0 245 -77 0 -78 0 45 30 c25 16 50 32 55 34 6 2 1 10 -9 18
-24 19 -44 -9 229 322 l219 266 88 0 88 0 0 -850z m-572 -67 l2 -233 -355 0
-355 0 0 228 c0 126 3 232 7 235 4 4 162 6 352 5 l346 -3 3 -232z m761 -949
c158 -42 251 -121 251 -214 0 -83 -83 -156 -230 -201 -108 -34 -302 -34 -410
0 -91 28 -149 61 -189 107 -143 162 106 348 438 327 47 -3 110 -12 140 -19z
m128 -1160 c199 -29 330 -74 402 -139 74 -67 53 -125 -67 -188 -149 -79 -336
-111 -647 -111 -241 0 -346 12 -505 55 -88 24 -203 82 -230 117 -147 186 485
347 1047 266z m-154 -969 c152 -32 267 -124 267 -215 0 -91 -115 -183 -267
-215 -235 -50 -499 23 -569 157 -57 109 68 239 266 277 72 14 229 12 303 -4z
m96 -1174 c91 -27 141 -52 191 -97 124 -112 35 -242 -212 -311 -49 -13 -101
-17 -233 -17 -132 0 -184 4 -233 17 -193 54 -293 147 -262 241 21 64 110 128
224 161 100 29 147 34 301 30 115 -2 167 -8 224 -24z m99 -1173 l-3 -233 -350
0 -350 0 -3 233 -2 232 355 0 355 0 -2 -232z"/>
<path d="M7275 54228 c-2 -7 -5 -37 -7 -66 l-3 -52 75 1 c41 0 69 3 63 6 -15
6 -18 43 -3 43 5 0 17 -11 26 -25 9 -14 23 -25 31 -25 8 0 3 9 -14 24 -27 23
-27 25 -10 44 17 18 17 21 2 36 -10 10 -33 16 -61 16 -24 0 -47 0 -51 0 -5 0
-11 -26 -14 -57 l-6 -58 -1 57 c-2 53 -17 85 -27 56z"/>
<path d="M5345 46668 c-2 -7 -5 -37 -7 -66 l-3 -52 75 1 c41 0 69 3 63 6 -15
6 -18 43 -3 43 5 0 17 -11 26 -25 9 -14 23 -25 31 -25 8 0 3 9 -14 24 -27 23
-27 25 -10 44 17 18 17 21 2 36 -10 10 -33 16 -61 16 -24 0 -47 0 -51 0 -5 0
-11 -26 -14 -57 l-6 -58 -1 57 c-2 53 -17 85 -27 56z"/>
<path d="M7685 38590 c0 -9770 2 -12287 5 -7450 3 4018 6 7300 8 7294 3 -18
32 -25 50 -14 15 8 14 9 -4 10 -12 0 -24 7 -28 15 -4 11 1 15 19 15 15 0 25 6
25 14 0 22 -31 28 -51 10 -19 -17 -19 178 -22 7422 -1 4091 -2 799 -2 -7316z"/>
<path d="M6575 34770 c0 -6031 1 -8502 2 -5492 l3 5473 20 -11 c14 -7 26 -8
38 -1 15 9 15 10 -4 11 -12 0 -24 7 -28 15 -4 11 1 15 19 15 15 0 25 6 25 14
0 18 -30 30 -44 16 -5 -5 -14 -10 -18 -10 -4 0 -9 2460 -11 5468 -1 3007 -2
533 -2 -5498z"/>
<path d="M5125 43049 c-186 -161 -221 -188 -231 -175 -18 25 -27 19 -60 -42
l-31 -57 -316 -3 -317 -2 0 -245 0 -245 81 0 c44 0 79 -4 77 -9 -1 -5 -104
-132 -227 -281 -160 -195 -226 -269 -234 -261 -21 21 -32 10 -55 -54 l-24 -65
-274 0 -274 0 0 -245 0 -245 81 0 c44 0 79 -3 77 -7 -1 -5 -19 -42 -40 -83
-43 -89 -62 -174 -53 -239 24 -174 290 -386 604 -482 66 -19 70 -23 65 -44 -6
-24 -6 -24 63 -18 l69 6 -4 -42 c-11 -118 149 -230 353 -248 l75 -6 0 -263 c0
-230 -2 -264 -15 -264 -26 0 -27 -24 -6 -81 12 -30 21 -55 21 -56 0 -2 -26 -3
-58 -3 -94 0 -300 -28 -404 -54 -457 -116 -352 -350 190 -421 62 -8 149 -15
193 -15 l79 0 0 -265 c0 -258 -1 -265 -20 -265 -25 0 -25 -12 -1 -83 l20 -57
-30 0 c-50 0 -178 -30 -234 -55 -64 -28 -133 -89 -152 -132 -57 -139 103 -279
342 -300 l75 -6 0 -263 c0 -230 -2 -264 -15 -264 -26 0 -27 -24 -6 -81 12 -30
21 -55 21 -55 0 -1 -35 -4 -77 -8 -192 -17 -349 -83 -403 -171 -87 -141 103
-291 396 -312 l84 -6 0 -173 c0 -167 -1 -174 -20 -174 -25 0 -25 -12 0 -77
l20 -53 -178 -2 -177 -3 0 -245 0 -245 72 -5 72 -5 -131 -150 c-72 -82 -148
-170 -169 -194 -32 -36 -41 -41 -53 -31 -21 17 -30 8 -51 -47 -26 -69 -30 -72
-73 -62 -59 14 -221 10 -290 -6 -136 -32 -237 -106 -263 -194 -34 -113 91
-229 287 -266 43 -9 79 -16 80 -18 1 -1 -21 -119 -50 -262 -49 -246 -53 -260
-75 -263 -22 -4 -23 -6 -16 -73 l7 -69 -71 0 c-99 0 -213 -25 -296 -64 -107
-51 -156 -105 -157 -173 -1 -112 124 -202 328 -238 48 -8 97 -15 110 -15 23 0
24 -2 23 -77 -1 -43 -4 -121 -8 -173 -5 -80 -9 -95 -23 -95 -27 0 -29 -9 -13
-61 8 -27 15 -55 15 -61 0 -10 -43 -13 -180 -13 l-180 0 0 -245 0 -244 59 -3
59 -3 -185 -189 c-136 -138 -188 -185 -196 -177 -21 21 -34 11 -60 -49 l-25
-60 -294 -2 -293 -3 0 -245 0 -245 98 -3 c54 -1 97 -6 95 -10 -79 -160 -93
-211 -93 -332 1 -80 6 -119 21 -162 l21 -58 -21 -14 c-21 -15 -20 -16 29 -59
l49 -44 -66 -22 c-83 -28 -147 -68 -184 -117 -24 -31 -29 -47 -29 -94 0 -47 5
-63 29 -94 56 -74 172 -127 316 -146 41 -5 78 -10 83 -10 4 0 7 -119 7 -265 0
-258 -1 -265 -20 -265 -25 0 -25 -3 -1 -73 l19 -55 -86 -6 c-415 -28 -672
-122 -672 -246 0 -124 251 -216 673 -246 l87 -6 0 -169 c0 -162 -1 -169 -20
-169 -24 0 -25 -14 -5 -70 26 -74 34 -70 -160 -70 l-175 0 0 -245 0 -245 66 0
66 0 -183 -189 c-175 -181 -184 -188 -205 -175 -21 14 -22 12 -49 -51 l-28
-65 -294 0 -293 0 0 -245 0 -245 85 0 c47 0 85 -3 85 -7 0 -5 -93 -127 -206
-273 -185 -238 -209 -265 -233 -263 -25 2 -29 -3 -47 -60 l-20 -62 -272 -3
-272 -2 0 -245 0 -245 81 0 c44 0 79 -3 77 -7 -90 -180 -91 -185 -96 -258 -4
-66 -2 -81 23 -130 98 -202 590 -354 1450 -450 127 -14 235 -27 242 -30 6 -2
9 -13 6 -24 -3 -12 -4 -21 -2 -21 2 0 29 7 59 15 78 21 80 20 80 -23 0 -79 90
-162 220 -204 94 -30 272 -36 377 -13 123 27 208 78 254 151 17 28 20 46 17
91 l-5 55 64 -6 c62 -6 64 -6 61 15 -3 21 9 26 162 70 365 104 617 223 819
385 74 60 176 169 202 217 17 30 3 18 -28 -25 -44 -62 -157 -170 -238 -229
-191 -139 -481 -265 -814 -355 -105 -28 -111 -28 -124 10 -1 5 -29 -8 -60 -28
l-58 -37 -24 29 c-13 16 -49 42 -80 58 -30 16 -55 32 -55 35 0 3 23 16 50 29
53 25 57 29 38 48 -13 13 -15 11 85 129 73 85 168 226 213 315 51 102 41 96
-15 -8 -57 -109 -92 -161 -182 -274 -94 -119 -115 -137 -139 -122 -17 10 -22
6 -46 -48 -15 -33 -29 -60 -33 -60 -3 0 -41 7 -84 15 -43 8 -99 15 -123 15
-24 0 -44 3 -44 8 1 4 7 35 14 70 l14 62 -24 0 c-16 0 -24 6 -25 18 0 13 -2
12 -9 -5 -5 -13 -16 -23 -25 -23 -21 0 -19 -13 11 -71 14 -28 24 -52 22 -54
-2 -2 -39 -10 -83 -19 -44 -9 -92 -19 -107 -22 -23 -5 -30 0 -63 52 -35 54
-38 57 -51 40 -13 -18 -15 -18 -46 6 -63 48 -236 218 -306 300 -38 46 -94 120
-123 164 -79 119 -83 124 -54 70 56 -107 146 -218 322 -393 100 -100 178 -185
173 -188 -23 -14 -6 -33 45 -49 30 -9 55 -19 55 -21 0 -3 -15 -12 -33 -21 -17
-9 -51 -36 -74 -61 l-41 -44 -52 26 c-54 27 -80 27 -80 0 0 -19 12 -20 -290
27 -444 68 -766 153 -960 254 -121 63 -168 109 -205 200 -14 33 -25 52 -25 43
0 -33 63 -140 103 -175 152 -130 505 -241 1052 -328 310 -50 291 -46 195 -40
-47 3 -170 16 -275 30 -778 100 -1206 243 -1292 431 -38 83 -29 158 34 283
l48 95 63 3 c62 3 62 3 63 -25 l1 -28 7 25 7 25 207 3 207 2 0 245 0 245 -82
0 -83 0 45 30 c25 16 50 32 55 33 6 2 2 13 -7 24 -17 19 -11 28 200 299 l217
279 77 3 77 3 4 -148 3 -148 2 148 2 147 185 0 185 0 0 245 0 245 -52 0 -53 1
48 25 c50 26 54 33 35 52 -14 14 -8 21 212 245 l155 157 102 0 102 0 4 -87 3
-88 2 88 2 87 180 0 180 0 0 245 0 245 -175 0 c-96 0 -175 2 -175 3 0 2 9 30
20 62 25 73 25 75 -5 75 l-25 0 0 169 0 169 98 7 c53 3 130 10 170 16 120 15
118 15 232 -69 123 -91 220 -184 285 -274 53 -71 68 -87 40 -43 -68 112 -190
233 -338 338 -48 34 -84 63 -80 64 5 2 48 14 97 28 117 34 189 70 232 117 50
56 47 89 -14 148 -85 82 -284 139 -562 160 -80 6 -146 13 -147 14 -2 2 6 29
17 61 11 32 20 59 20 61 0 1 -10 4 -22 6 -21 3 -23 9 -26 76 -2 54 0 72 10 72
17 0 17 72 1 83 -10 6 -13 48 -13 152 l0 144 57 6 c154 18 269 61 333 125 71
71 76 145 15 224 l-34 44 42 7 c74 11 78 14 66 37 -6 11 -9 21 -7 22 2 1 19
13 38 26 124 83 223 196 291 332 56 111 48 110 -12 -2 -27 -52 -62 -110 -76
-130 -40 -52 -126 -133 -189 -176 -50 -35 -56 -36 -71 -22 -14 15 -20 12 -62
-34 -46 -50 -48 -51 -72 -35 -40 26 -145 57 -226 67 -42 6 -78 12 -81 15 -3 2
5 30 17 61 11 31 21 57 21 59 0 2 -10 5 -22 7 -21 3 -23 9 -26 86 -3 81 -2 83
18 72 14 -7 26 -8 38 -1 15 9 15 10 -4 11 -12 0 -24 7 -28 15 -4 11 1 15 19
15 15 0 25 6 25 14 0 18 -30 30 -44 16 -5 -5 -14 -10 -18 -10 -4 0 -8 70 -8
155 l0 155 180 0 180 0 0 250 0 250 -47 0 -48 1 48 25 c48 25 48 26 31 45 -18
19 -14 24 176 214 l195 195 122 0 122 0 4 -27 4 -28 2 28 1 27 165 0 165 0 0
245 0 245 -170 0 c-93 0 -170 4 -170 9 0 5 9 28 20 52 25 56 25 69 -1 69 -20
0 -21 3 -15 118 4 64 9 143 12 175 l6 57 38 0 c20 0 76 7 124 15 204 36 329
126 328 238 -2 108 -138 196 -359 231 l-71 11 34 58 c19 32 34 60 34 62 0 3
-9 5 -20 5 -13 0 -20 7 -20 18 0 10 23 130 50 267 28 137 50 250 50 252 0 2
26 3 58 3 174 1 354 85 398 187 42 98 -24 202 -164 259 l-55 22 57 32 c59 34
66 43 40 58 -13 7 17 46 160 210 l176 202 95 0 95 0 2 -4687 c2 -2579 4 -3708
5 -2510 l3 2178 20 -11 c14 -7 26 -8 38 -1 15 9 15 10 -4 11 -12 0 -24 7 -28
15 -4 11 1 15 19 15 15 0 25 6 25 14 0 18 -30 30 -44 16 -5 -5 -14 -10 -18
-10 -4 0 -8 1118 -8 2485 l0 2485 180 0 180 0 0 250 0 250 -175 0 c-96 0 -175
2 -175 5 0 2 9 27 20 55 25 64 25 68 -2 72 -23 3 -23 4 -23 173 l0 170 82 7
c140 11 272 55 350 114 38 29 73 91 73 129 0 67 -83 149 -191 189 -73 27 -216
56 -275 56 -19 0 -34 3 -34 8 0 4 9 31 20 60 22 57 20 72 -11 72 -17 0 -19 7
-19 73 0 79 5 93 27 75 10 -8 17 -8 25 0 9 9 8 12 -4 12 -19 0 -30 24 -21 46
4 10 13 14 26 10 15 -4 17 -2 8 7 -9 9 -16 9 -31 -1 -11 -6 -22 -12 -25 -12
-3 0 -4 71 -3 158 l3 157 67 7 c185 18 327 99 359 206 38 128 -124 254 -356
278 -36 4 -65 8 -65 9 0 1 9 28 20 60 21 62 19 75 -11 75 -19 0 -19 8 -17 263
l3 262 125 7 c69 4 153 12 188 18 l63 11 61 -37 c157 -96 359 -268 472 -404
29 -35 33 -37 15 -10 -63 98 -345 345 -486 426 -18 10 -33 21 -33 25 0 3 26
12 58 19 125 27 238 87 272 143 26 42 25 65 -4 108 -63 92 -311 167 -609 185
-64 4 -117 10 -117 13 0 3 9 30 20 59 22 57 20 72 -11 72 -17 0 -19 7 -19 70
0 49 4 70 13 70 16 0 16 72 -1 85 -9 8 -12 47 -10 155 l3 145 67 7 c186 18
327 99 359 207 10 34 9 47 -5 85 -20 51 -73 104 -134 132 -23 10 -42 22 -42
25 0 4 25 17 55 29 59 24 64 30 40 50 -13 11 -4 24 63 94 90 94 183 208 251
310 52 77 131 217 131 232 0 5 -24 -34 -53 -86 -69 -125 -144 -231 -260 -365
-130 -151 -143 -162 -167 -147 -18 11 -22 6 -51 -49 -28 -56 -32 -61 -57 -55
-15 3 -64 12 -109 18 -46 7 -83 16 -83 20 0 4 9 31 20 60 11 29 20 54 20 55 0
1 -10 3 -22 5 l-23 3 -3 373 c-2 372 -2 373 18 362 14 -7 26 -8 38 -1 15 9 15
10 -4 11 -12 0 -24 7 -28 15 -4 11 1 15 19 15 15 0 25 6 25 14 0 18 -30 30
-44 16 -5 -5 -14 -10 -18 -10 -5 0 -7 201 -6 448 l3 447 178 3 177 2 0 245 0
245 -27 1 c-25 0 -24 2 14 17 53 22 59 28 43 47 -11 13 -11 18 1 29 8 7 107
93 222 190 114 98 207 180 207 182 0 13 -36 -16 -235 -187z m-237 -526 l2
-233 -355 0 -355 0 0 228 c0 126 3 232 7 235 4 4 162 6 352 5 l346 -3 3 -232z
m-358 -1093 c0 -843 0 -850 -20 -850 -24 0 -24 5 0 -65 11 -32 19 -59 18 -60
-2 -1 -39 -6 -83 -13 -107 -15 -179 -39 -244 -83 l-55 -37 -53 45 c-29 25 -53
42 -53 37 0 -5 -4 -15 -9 -22 -6 -11 -21 -7 -72 19 -163 82 -293 199 -353 319
-20 40 -36 67 -36 60 0 -7 15 -40 33 -73 60 -114 183 -226 338 -310 76 -40 95
-57 65 -57 -7 0 -16 -9 -19 -19 -5 -19 -6 -19 -63 -2 -89 27 -212 78 -281 117
-136 76 -269 204 -308 297 -34 82 -12 215 55 333 l31 54 65 0 c54 0 64 -3 65
-17 1 -17 2 -17 6 0 4 15 23 17 209 17 l204 0 0 245 0 245 -77 0 -78 0 50 31
c65 41 63 38 41 54 -18 13 -17 16 21 62 22 26 115 140 208 253 242 295 213
270 312 270 l83 0 0 -850z m-572 -67 l2 -233 -355 0 -355 0 0 228 c0 126 3
232 7 235 4 4 162 6 352 5 l346 -3 3 -232z m761 -950 c230 -59 312 -216 176
-336 -31 -27 -105 -63 -170 -83 -45 -14 -92 -18 -190 -18 -115 0 -139 3 -209
27 -175 61 -247 157 -197 261 67 137 357 210 590 149z m129 -1159 c194 -28
369 -94 415 -156 25 -33 24 -83 0 -111 -56 -63 -208 -122 -398 -153 -151 -25
-506 -25 -650 -1 -208 36 -334 85 -393 152 -40 45 -40 75 -1 120 121 137 613
208 1027 149z m-129 -1161 c230 -59 312 -216 176 -336 -31 -27 -105 -63 -170
-83 -44 -14 -94 -19 -185 -19 -110 0 -135 3 -210 28 -232 76 -287 232 -121
345 121 83 338 110 510 65z m-71 -1144 c363 -40 507 -244 265 -376 -105 -58
-196 -76 -373 -76 -170 0 -259 17 -363 68 -258 129 -123 342 243 384 108 12
120 12 228 0z m242 -1199 l0 -230 -355 0 -355 0 0 230 0 230 355 0 355 0 0
-230z m-1062 -750 c196 -32 323 -144 293 -257 -31 -114 -198 -195 -406 -196
-233 -1 -415 98 -415 227 0 49 13 79 54 118 95 93 292 137 474 108z m-188
-1164 c243 -44 375 -171 297 -287 -36 -53 -101 -96 -188 -124 -272 -86 -615
-26 -716 124 -119 176 252 351 607 287z m148 -1193 l2 -233 -355 0 -355 0 0
228 c0 126 3 232 7 235 4 4 162 6 352 5 l346 -3 3 -232z m-938 -973 l0 -230
-355 0 -355 0 0 230 0 230 355 0 355 0 0 -230z m-360 -515 c0 -258 -1 -265
-20 -265 -25 0 -25 -7 0 -71 12 -28 19 -54 16 -56 -3 -3 -34 -8 -69 -10 l-64
-5 -6 38 c-4 22 -7 52 -7 67 0 24 -3 27 -27 25 -26 -3 -30 2 -46 52 -42 124
-33 233 30 385 43 105 44 105 123 105 l70 0 0 -265z m230 -444 c137 -47 210
-117 210 -201 0 -126 -160 -218 -395 -227 -186 -7 -322 30 -414 112 -131 119
-31 275 211 330 96 22 304 14 388 -14z m140 -1156 c197 -35 353 -105 385 -172
14 -30 14 -36 0 -66 -32 -68 -187 -137 -390 -173 -144 -26 -567 -26 -710 0
-193 35 -347 97 -389 157 -77 111 128 225 484 268 118 15 509 6 620 -14z m-12
-1177 l-3 -233 -350 0 -350 0 -3 233 -2 232 355 0 355 0 -2 -232z m-920 -975
l2 -233 -355 0 -355 0 0 228 c0 126 3 232 7 235 4 4 162 6 352 5 l346 -3 3
-232z m-880 -1160 l2 -233 -355 0 -355 0 0 228 c0 126 3 232 7 235 4 4 162 6
352 5 l346 -3 3 -232z m1817 -949 c127 -33 227 -108 241 -182 32 -172 -266
-304 -558 -248 -288 55 -382 257 -175 376 130 75 324 96 492 54z"/>
<path d="M4245 39108 c-2 -7 -5 -37 -7 -66 l-3 -52 75 1 c41 0 69 3 63 6 -15
6 -18 43 -3 43 5 0 17 -11 26 -25 9 -14 23 -25 31 -25 8 0 3 9 -14 24 -27 23
-27 25 -10 44 17 18 17 21 2 36 -10 10 -33 16 -61 16 -24 0 -47 0 -51 0 -5 0
-11 -26 -14 -57 l-6 -58 -1 57 c-2 53 -17 85 -27 56z"/>
<path d="M2195 29418 c-2 -7 -5 -37 -7 -66 l-3 -52 75 1 c41 0 69 3 63 6 -15
6 -18 43 -3 43 5 0 17 -11 26 -25 9 -14 23 -25 31 -25 8 0 3 9 -14 24 -27 23
-27 25 -10 44 17 18 17 21 2 36 -10 10 -33 16 -61 16 -24 0 -47 0 -51 0 -5 0
-11 -26 -14 -57 l-6 -58 -1 57 c-2 53 -17 85 -27 56z"/>
<path d="M5645 30900 c0 -4861 2 -5941 5 -3450 3 1994 6 3620 8 3614 3 -18 32
-25 50 -14 15 8 14 9 -4 10 -12 0 -24 7 -28 15 -4 11 1 15 19 15 15 0 25 6 25
14 0 22 -31 28 -51 10 -18 -17 -19 74 -22 3422 -1 1891 -2 255 -2 -3636z"/>
<path d="M3435 27310 c0 -810 1 -947 5 -515 3 325 6 585 8 579 3 -18 32 -25
50 -14 15 8 14 9 -4 10 -12 0 -24 7 -28 15 -4 11 1 15 19 15 29 0 34 24 8 35
-12 4 -24 -1 -35 -15 -17 -21 -18 0 -21 487 -1 279 -2 11 -2 -597z"/>
<path d="M2933 24863 c3 -5 176 -147 385 -318 366 -299 380 -311 366 -332 -13
-21 -11 -22 42 -40 l56 -19 -124 -26 c-154 -34 -275 -91 -313 -146 -29 -42
-31 -62 -10 -102 45 -87 244 -162 503 -190 129 -14 442 -9 567 10 l80 12 588
-273 c540 -252 588 -276 584 -296 -5 -26 9 -33 69 -33 51 0 54 -7 18 -41 -37
-34 -54 -72 -54 -119 0 -52 18 -87 71 -134 80 -73 199 -110 354 -109 258 0
456 133 416 278 l-9 34 46 -5 c26 -3 55 -7 64 -9 12 -2 18 5 20 22 3 23 13 28
118 59 355 102 629 255 767 427 28 34 53 69 57 77 4 8 -3 2 -15 -15 -163 -213
-445 -376 -846 -489 l-82 -23 -14 20 c-14 21 -14 21 -64 -11 -27 -18 -53 -32
-57 -32 -4 0 -19 14 -33 30 -14 17 -61 48 -104 69 l-80 39 51 37 c48 35 50 39
35 55 -15 16 -12 25 39 116 31 55 56 103 56 109 0 5 -26 -38 -59 -95 -32 -58
-62 -104 -67 -103 -5 1 -16 4 -25 8 -12 4 -18 -7 -30 -57 l-15 -63 -59 5 c-86
7 -162 6 -226 -2 l-57 -8 -17 65 c-19 68 -23 73 -44 53 -15 -15 -13 -17 -93
131 -32 58 -58 103 -58 98 0 -10 73 -152 104 -202 l25 -40 -21 -16 c-20 -16
-20 -17 35 -55 l55 -38 -66 -28 -66 -28 -49 48 c-46 45 -49 46 -63 28 -13 -18
-16 -19 -46 -5 -18 9 -279 130 -581 269 -301 140 -544 257 -540 260 5 3 35 14
68 24 145 44 235 114 235 183 0 30 -8 44 -44 79 -113 108 -440 174 -798 161
l-167 -7 -31 53 c-18 28 -34 53 -35 55 -2 2 -12 -2 -23 -9 -18 -11 -56 18
-401 299 -210 172 -384 312 -387 312 -3 0 -3 -3 -1 -7z m1291 -713 c327 -24
562 -111 582 -216 5 -27 0 -38 -30 -71 -129 -144 -641 -214 -1046 -144 -178
31 -285 71 -355 132 -28 25 -35 38 -35 69 0 54 29 84 123 129 135 65 310 97
582 109 22 1 103 -3 179 -8z m2044 -985 c89 -20 179 -71 220 -124 67 -88 31
-189 -93 -257 -89 -50 -184 -68 -319 -61 -128 6 -203 28 -283 83 -54 37 -93
98 -93 144 0 93 120 189 275 220 68 13 223 11 293 -5z"/>
<path d="M3785 23988 c-2 -7 -5 -37 -7 -66 l-3 -52 75 1 c41 0 69 3 63 6 -15
6 -18 43 -3 43 5 0 17 -11 26 -25 9 -14 23 -25 31 -25 8 0 3 9 -14 24 -27 23
-27 25 -10 44 17 18 17 21 2 36 -10 10 -33 16 -61 16 -24 0 -47 0 -51 0 -5 0
-11 -26 -14 -57 l-6 -58 -1 57 c-2 53 -17 85 -27 56z"/>
<path d="M1140 20315 l0 -2245 3625 0 3625 0 0 2245 0 2245 -3625 0 -3625 0 0
-2245z m1318 2098 l3 -133 -656 0 -655 0 0 128 c0 71 3 132 7 135 3 4 297 6
652 5 l646 -3 3 -132z m5920 0 l3 -133 -2956 0 -2955 0 0 128 c0 71 3 132 7
135 3 4 1332 6 2952 5 l2946 -3 3 -132z m-5918 -283 l0 -130 -655 0 -655 0 0
130 0 130 655 0 655 0 0 -130z m1250 0 l0 -130 -620 0 -620 0 0 130 0 130 620
0 620 0 0 -130z m990 0 l0 -130 -490 0 -490 0 0 130 0 130 490 0 490 0 0 -130z
m610 0 l0 -130 -300 0 -300 0 0 130 0 130 300 0 300 0 0 -130z m610 0 l0 -130
-300 0 -300 0 0 130 0 130 300 0 300 0 0 -130z m620 0 l0 -130 -305 0 -305 0
0 130 0 130 305 0 305 0 0 -130z m610 0 l0 -130 -300 0 -300 0 0 130 0 130
300 0 300 0 0 -130z m610 0 l0 -130 -300 0 -300 0 0 130 0 130 300 0 300 0 0
-130z m620 0 l0 -130 -305 0 -305 0 0 130 0 130 305 0 305 0 0 -130z m-5920
-280 l0 -130 -655 0 -655 0 0 130 0 130 655 0 655 0 0 -130z m1250 0 l0 -130
-620 0 -620 0 0 130 0 130 620 0 620 0 0 -130z m990 0 l0 -130 -490 0 -490 0
0 130 0 130 490 0 490 0 0 -130z m610 0 l0 -130 -300 0 -300 0 0 130 0 130
300 0 300 0 0 -130z m610 0 l0 -130 -300 0 -300 0 0 130 0 130 300 0 300 0 0
-130z m620 0 l0 -130 -305 0 -305 0 0 130 0 130 305 0 305 0 0 -130z m610 0
l0 -130 -300 0 -300 0 0 130 0 130 300 0 300 0 0 -130z m610 0 l0 -130 -300 0
-300 0 0 130 0 130 300 0 300 0 0 -130z m620 0 l0 -130 -305 0 -305 0 0 130 0
130 305 0 305 0 0 -130z m-5920 -280 l0 -130 -655 0 -655 0 0 130 0 130 655 0
655 0 0 -130z m1250 0 l0 -130 -620 0 -620 0 0 130 0 130 620 0 620 0 0 -130z
m990 0 l0 -130 -490 0 -490 0 0 130 0 130 490 0 490 0 0 -130z m610 0 l0 -130
-300 0 -300 0 0 130 0 130 300 0 300 0 0 -130z m610 0 l0 -130 -300 0 -300 0
0 130 0 130 300 0 300 0 0 -130z m620 0 l0 -130 -305 0 -305 0 0 130 0 130
305 0 305 0 0 -130z m610 0 l0 -130 -300 0 -300 0 0 130 0 130 300 0 300 0 0
-130z m610 0 l0 -130 -300 0 -300 0 0 130 0 130 300 0 300 0 0 -130z m620 0
l0 -130 -305 0 -305 0 0 130 0 130 305 0 305 0 0 -130z m-5920 -280 l0 -130
-655 0 -655 0 0 130 0 130 655 0 655 0 0 -130z m1250 0 l0 -130 -620 0 -620 0
0 130 0 130 620 0 620 0 0 -130z m990 0 l0 -130 -490 0 -490 0 0 130 0 130
490 0 490 0 0 -130z m610 0 l0 -130 -300 0 -300 0 0 130 0 130 300 0 300 0 0
-130z m610 0 l0 -130 -300 0 -300 0 0 130 0 130 300 0 300 0 0 -130z m620 0
l0 -130 -305 0 -305 0 0 130 0 130 305 0 305 0 0 -130z m610 0 l0 -130 -300 0
-300 0 0 130 0 130 300 0 300 0 0 -130z m610 0 l0 -130 -300 0 -300 0 0 130 0
130 300 0 300 0 0 -130z m620 0 l0 -130 -305 0 -305 0 0 130 0 130 305 0 305
0 0 -130z m-5920 -280 l0 -130 -655 0 -655 0 0 130 0 130 655 0 655 0 0 -130z
m1250 0 l0 -130 -620 0 -620 0 0 130 0 130 620 0 620 0 0 -130z m990 0 l0
-130 -490 0 -490 0 0 130 0 130 490 0 490 0 0 -130z m610 0 l0 -130 -300 0
-300 0 0 130 0 130 300 0 300 0 0 -130z m610 0 l0 -130 -300 0 -300 0 0 130 0
130 300 0 300 0 0 -130z m620 0 l0 -130 -305 0 -305 0 0 130 0 130 305 0 305
0 0 -130z m610 0 l0 -130 -300 0 -300 0 0 130 0 130 300 0 300 0 0 -130z m610
0 l0 -130 -300 0 -300 0 0 130 0 130 300 0 300 0 0 -130z m620 0 l0 -130 -305
0 -305 0 0 130 0 130 305 0 305 0 0 -130z m-5920 -280 l0 -130 -655 0 -655 0
0 130 0 130 655 0 655 0 0 -130z m1250 0 l0 -130 -620 0 -620 0 0 130 0 130
620 0 620 0 0 -130z m990 0 l0 -130 -490 0 -490 0 0 130 0 130 490 0 490 0 0
-130z m610 0 l0 -130 -300 0 -300 0 0 130 0 130 300 0 300 0 0 -130z m610 0
l0 -130 -300 0 -300 0 0 130 0 130 300 0 300 0 0 -130z m620 0 l0 -130 -305 0
-305 0 0 130 0 130 305 0 305 0 0 -130z m610 0 l0 -130 -300 0 -300 0 0 130 0
130 300 0 300 0 0 -130z m610 0 l0 -130 -300 0 -300 0 0 130 0 130 300 0 300
0 0 -130z m620 0 l0 -130 -305 0 -305 0 0 130 0 130 305 0 305 0 0 -130z
m-5920 -280 l0 -130 -655 0 -655 0 0 130 0 130 655 0 655 0 0 -130z m1250 0
l0 -130 -620 0 -620 0 0 130 0 130 620 0 620 0 0 -130z m990 0 l0 -130 -490 0
-490 0 0 130 0 130 490 0 490 0 0 -130z m610 0 l0 -130 -300 0 -300 0 0 130 0
130 300 0 300 0 0 -130z m610 0 l0 -130 -300 0 -300 0 0 130 0 130 300 0 300
0 0 -130z m620 0 l0 -130 -305 0 -305 0 0 130 0 130 305 0 305 0 0 -130z m610
0 l0 -130 -300 0 -300 0 0 130 0 130 300 0 300 0 0 -130z m610 0 l0 -130 -300
0 -300 0 0 130 0 130 300 0 300 0 0 -130z m620 0 l0 -130 -305 0 -305 0 0 130
0 130 305 0 305 0 0 -130z m-5920 -280 l0 -130 -655 0 -655 0 0 130 0 130 655
0 655 0 0 -130z m1250 0 l0 -130 -620 0 -620 0 0 130 0 130 620 0 620 0 0
-130z m990 0 l0 -130 -490 0 -490 0 0 130 0 130 490 0 490 0 0 -130z m610 0
l0 -130 -300 0 -300 0 0 130 0 130 300 0 300 0 0 -130z m610 0 l0 -130 -300 0
-300 0 0 130 0 130 300 0 300 0 0 -130z m620 0 l0 -130 -305 0 -305 0 0 130 0
130 305 0 305 0 0 -130z m610 0 l0 -130 -300 0 -300 0 0 130 0 130 300 0 300
0 0 -130z m610 0 l0 -130 -300 0 -300 0 0 130 0 130 300 0 300 0 0 -130z m620
0 l0 -130 -305 0 -305 0 0 130 0 130 305 0 305 0 0 -130z m-5920 -280 l0 -130
-655 0 -655 0 0 130 0 130 655 0 655 0 0 -130z m1250 0 l0 -130 -620 0 -620 0
0 130 0 130 620 0 620 0 0 -130z m990 0 l0 -130 -490 0 -490 0 0 130 0 130
490 0 490 0 0 -130z m610 0 l0 -130 -300 0 -300 0 0 130 0 130 300 0 300 0 0
-130z m610 0 l0 -130 -300 0 -300 0 0 130 0 130 300 0 300 0 0 -130z m620 0
l0 -130 -305 0 -305 0 0 130 0 130 305 0 305 0 0 -130z m610 0 l0 -130 -300 0
-300 0 0 130 0 130 300 0 300 0 0 -130z m610 0 l0 -130 -300 0 -300 0 0 130 0
130 300 0 300 0 0 -130z m620 0 l0 -130 -305 0 -305 0 0 130 0 130 305 0 305
0 0 -130z m-5920 -280 l0 -130 -655 0 -655 0 0 130 0 130 655 0 655 0 0 -130z
m1250 0 l0 -130 -620 0 -620 0 0 130 0 130 620 0 620 0 0 -130z m990 0 l0
-130 -490 0 -490 0 0 130 0 130 490 0 490 0 0 -130z m610 0 l0 -130 -300 0
-300 0 0 130 0 130 300 0 300 0 0 -130z m610 0 l0 -130 -300 0 -300 0 0 130 0
130 300 0 300 0 0 -130z m620 0 l0 -130 -305 0 -305 0 0 130 0 130 305 0 305
0 0 -130z m610 0 l0 -130 -300 0 -300 0 0 130 0 130 300 0 300 0 0 -130z m610
0 l0 -130 -300 0 -300 0 0 130 0 130 300 0 300 0 0 -130z m620 0 l0 -130 -305
0 -305 0 0 130 0 130 305 0 305 0 0 -130z m-5920 -280 l0 -130 -655 0 -655 0
0 130 0 130 655 0 655 0 0 -130z m1250 0 l0 -130 -620 0 -620 0 0 130 0 130
620 0 620 0 0 -130z m990 0 l0 -130 -490 0 -490 0 0 130 0 130 490 0 490 0 0
-130z m610 0 l0 -130 -300 0 -300 0 0 130 0 130 300 0 300 0 0 -130z m610 0
l0 -130 -300 0 -300 0 0 130 0 130 300 0 300 0 0 -130z m620 0 l0 -130 -305 0
-305 0 0 130 0 130 305 0 305 0 0 -130z m610 0 l0 -130 -300 0 -300 0 0 130 0
130 300 0 300 0 0 -130z m610 0 l0 -130 -300 0 -300 0 0 130 0 130 300 0 300
0 0 -130z m620 0 l0 -130 -305 0 -305 0 0 130 0 130 305 0 305 0 0 -130z
m-5920 -280 l0 -130 -655 0 -655 0 0 130 0 130 655 0 655 0 0 -130z m1250 0
l0 -130 -620 0 -620 0 0 130 0 130 620 0 620 0 0 -130z m990 0 l0 -130 -490 0
-490 0 0 130 0 130 490 0 490 0 0 -130z m610 0 l0 -130 -300 0 -300 0 0 130 0
130 300 0 300 0 0 -130z m610 0 l0 -130 -300 0 -300 0 0 130 0 130 300 0 300
0 0 -130z m620 0 l0 -130 -305 0 -305 0 0 130 0 130 305 0 305 0 0 -130z m610
0 l0 -130 -300 0 -300 0 0 130 0 130 300 0 300 0 0 -130z m610 0 l0 -130 -300
0 -300 0 0 130 0 130 300 0 300 0 0 -130z m620 0 l0 -130 -305 0 -305 0 0 130
0 130 305 0 305 0 0 -130z m-5920 -280 l0 -130 -655 0 -655 0 0 130 0 130 655
0 655 0 0 -130z m1250 0 l0 -130 -620 0 -620 0 0 130 0 130 620 0 620 0 0
-130z m990 0 l0 -130 -490 0 -490 0 0 130 0 130 490 0 490 0 0 -130z m610 0
l0 -130 -300 0 -300 0 0 130 0 130 300 0 300 0 0 -130z m610 0 l0 -130 -300 0
-300 0 0 130 0 130 300 0 300 0 0 -130z m620 0 l0 -130 -305 0 -305 0 0 130 0
130 305 0 305 0 0 -130z m610 0 l0 -130 -300 0 -300 0 0 130 0 130 300 0 300
0 0 -130z m610 0 l0 -130 -300 0 -300 0 0 130 0 130 300 0 300 0 0 -130z m620
0 l0 -130 -305 0 -305 0 0 130 0 130 305 0 305 0 0 -130z m-5920 -280 l0 -130
-655 0 -655 0 0 130 0 130 655 0 655 0 0 -130z m1250 0 l0 -130 -620 0 -620 0
0 130 0 130 620 0 620 0 0 -130z m990 0 l0 -130 -490 0 -490 0 0 130 0 130
490 0 490 0 0 -130z m610 0 l0 -130 -300 0 -300 0 0 130 0 130 300 0 300 0 0
-130z m610 0 l0 -130 -300 0 -300 0 0 130 0 130 300 0 300 0 0 -130z m620 0
l0 -130 -305 0 -305 0 0 130 0 130 305 0 305 0 0 -130z m610 0 l0 -130 -300 0
-300 0 0 130 0 130 300 0 300 0 0 -130z m610 0 l0 -130 -300 0 -300 0 0 130 0
130 300 0 300 0 0 -130z m620 0 l0 -130 -305 0 -305 0 0 130 0 130 305 0 305
0 0 -130z m-5920 -280 l0 -130 -655 0 -655 0 0 130 0 130 655 0 655 0 0 -130z
m1250 0 l0 -130 -620 0 -620 0 0 130 0 130 620 0 620 0 0 -130z m990 0 l0
-130 -490 0 -490 0 0 130 0 130 490 0 490 0 0 -130z m610 0 l0 -130 -300 0
-300 0 0 130 0 130 300 0 300 0 0 -130z m610 0 l0 -130 -300 0 -300 0 0 130 0
130 300 0 300 0 0 -130z m620 0 l0 -130 -305 0 -305 0 0 130 0 130 305 0 305
0 0 -130z m610 0 l0 -130 -300 0 -300 0 0 130 0 130 300 0 300 0 0 -130z m610
0 l0 -130 -300 0 -300 0 0 130 0 130 300 0 300 0 0 -130z m620 0 l0 -130 -305
0 -305 0 0 130 0 130 305 0 305 0 0 -130z"/>
<path d="M2050 17906 c-129 -27 -241 -83 -286 -141 -108 -142 59 -291 368
-328 l98 -11 0 -173 c0 -166 -1 -173 -20 -173 -24 0 -24 -7 -6 -51 7 -19 17
-44 20 -56 l7 -23 -180 0 -181 0 0 -245 0 -245 110 0 c69 0 110 -4 110 -10 0
-6 -11 -33 -25 -60 -14 -27 -25 -53 -25 -57 1 -4 17 22 36 60 l34 67 143 0
c78 0 147 -4 153 -8 6 -4 70 -88 144 -186 113 -153 131 -182 121 -198 -16 -25
-16 -25 31 -55 l42 -28 -80 -5 -79 -5 0 -245 0 -245 295 -3 295 -2 195 -195
c185 -185 194 -196 177 -212 -16 -17 -15 -19 35 -45 l53 -27 -52 -1 -53 0 0
-222 0 -223 -76 -49 c-208 -136 -425 -344 -497 -478 -17 -32 -17 -32 0 -8 142
194 263 313 472 458 72 51 101 63 101 42 0 -6 67 -10 180 -10 l180 0 0 -265 0
-265 -25 0 c-14 0 -25 -2 -25 -3 0 -2 9 -30 20 -62 11 -32 20 -61 20 -65 0 -4
-24 -10 -52 -13 -75 -9 -116 -22 -178 -59 -95 -58 -140 -153 -111 -240 16 -47
83 -113 148 -143 29 -14 87 -31 128 -38 l75 -12 0 -262 0 -263 -26 0 c-28 0
-28 -6 2 -79 23 -56 21 -58 -68 -64 -110 -8 -187 -29 -277 -75 -206 -103 -181
-269 54 -357 70 -27 213 -55 277 -55 l38 0 -2 -172 c-3 -171 -3 -173 -25 -176
-13 -2 -23 -4 -23 -5 0 -1 9 -26 20 -55 11 -29 20 -57 20 -62 0 -6 -66 -10
-175 -10 l-175 0 0 -245 0 -245 175 0 175 0 2 -247 2 -248 6 245 5 245 140 3
140 2 255 -201 c140 -110 256 -204 258 -209 2 -4 -2 -11 -7 -15 -19 -11 -12
-23 22 -35 l32 -12 -3 -254 -3 -254 58 0 58 0 -295 -295 c-276 -276 -295 -293
-312 -278 -17 15 -20 12 -49 -51 -23 -48 -36 -66 -46 -62 -8 4 -56 11 -107 17
l-93 12 13 56 c8 31 14 59 14 63 0 11 -43 14 -72 5 l-26 -8 25 -55 c13 -29 22
-58 18 -64 -3 -5 -21 -10 -38 -10 -90 0 -235 -58 -295 -118 -153 -153 3 -331
321 -367 l57 -6 -2 -262 -3 -262 -22 -3 c-13 -2 -23 -5 -23 -6 0 -2 9 -29 20
-61 11 -32 19 -60 17 -61 -2 -2 -56 -8 -121 -14 -275 -26 -478 -115 -501 -219
-20 -92 109 -188 310 -231 33 -8 62 -15 63 -16 2 -1 -29 -40 -68 -86 -67 -76
-150 -191 -179 -245 -23 -45 -3 -22 34 38 36 59 118 165 192 246 l38 43 158
-13 159 -12 55 -170 c55 -169 55 -169 34 -183 -20 -14 -20 -14 14 -59 19 -25
35 -50 35 -54 0 -5 -61 -9 -135 -9 l-135 0 0 -245 0 -245 278 0 277 0 158
-192 c135 -164 156 -194 143 -204 -23 -16 -21 -20 32 -51 l47 -28 -72 -3 -73
-3 0 -244 0 -245 158 0 c110 0 162 -4 170 -12 9 -9 12 -9 12 0 0 8 24 12 79
12 79 0 80 -1 104 -32 45 -60 337 -516 337 -527 0 -5 -7 -14 -16 -19 -14 -8
-8 -16 36 -51 l52 -41 -101 0 -101 0 0 -245 0 -245 106 0 c85 0 105 -3 101
-13 -3 -8 -70 -122 -149 -253 -201 -333 -498 -865 -628 -1124 -70 -141 -11
-39 122 212 189 354 341 623 523 923 l151 250 130 3 c115 2 132 0 146 -15 8
-10 84 -135 167 -278 142 -242 151 -260 134 -273 -17 -13 -15 -17 30 -58 l49
-44 -106 0 -106 0 0 -233 0 -233 -579 -337 c-318 -185 -585 -337 -594 -337 -8
0 -18 6 -21 13 -3 7 -21 -6 -50 -37 l-44 -48 -87 23 -87 22 53 47 c52 46 53
47 31 59 -22 12 -21 12 44 142 36 72 61 129 57 126 -4 -3 -35 -60 -68 -126
-54 -109 -62 -121 -84 -119 -23 3 -26 -1 -35 -62 l-11 -64 -60 3 c-33 1 -61 4
-63 6 -2 1 4 30 12 63 9 33 16 63 16 67 0 3 -31 4 -70 1 -50 -3 -70 -1 -71 7
0 7 -4 2 -9 -11 -5 -12 -14 -22 -20 -22 -17 0 -11 -16 25 -61 42 -53 43 -59 9
-59 -14 0 -68 -14 -121 -32 l-96 -31 -43 49 c-39 43 -45 47 -54 31 -6 -9 -15
-17 -20 -17 -5 0 -69 40 -142 89 -146 98 -256 191 -343 291 -70 80 -83 92 -62
61 71 -106 245 -261 427 -380 63 -41 117 -76 119 -78 3 -2 -1 -9 -7 -15 -20
-20 -14 -27 36 -33 77 -11 81 -13 49 -41 l-28 -24 -57 40 c-53 39 -57 40 -64
20 -4 -11 -12 -20 -17 -20 -5 0 -68 20 -139 45 -343 119 -593 263 -771 444
-60 61 -66 65 -32 23 90 -109 270 -241 461 -337 100 -50 346 -149 438 -176 35
-10 42 -16 42 -37 0 -24 2 -24 60 -20 64 5 66 3 48 -37 -14 -30 -14 -30 -73
-5 -58 25 -65 25 -65 0 0 -25 -3 -25 -220 -5 -624 57 -1088 190 -1406 401 -98
64 -217 178 -269 257 -38 57 -63 82 -30 30 246 -387 816 -617 1735 -701 173
-16 184 -18 190 -38 l5 -22 58 18 c54 17 59 17 63 2 17 -54 41 -96 67 -118
179 -151 591 -152 762 -3 39 35 74 98 75 136 0 21 1 21 53 7 71 -19 80 -18 74
6 -6 23 2 26 98 35 428 40 986 173 1320 315 275 117 387 192 594 397 l153 153
264 0 264 0 0 245 0 245 -206 0 -206 0 7 70 c7 69 7 70 -17 70 -23 0 -25 6
-41 98 -27 153 -46 288 -57 407 -6 71 -10 876 -10 2298 l0 2187 27 0 c21 0 24
3 15 12 -16 16 -15 68 1 68 9 0 8 3 -2 9 -18 12 -3 34 18 26 11 -4 13 -3 5 5
-13 13 -44 3 -44 -16 0 -8 -4 -14 -10 -14 -6 0 -11 757 -12 2178 l-3 2177 -22
64 c-43 127 -124 212 -268 284 -38 20 -149 67 -245 105 -96 38 -222 91 -280
117 -248 112 -451 178 -855 279 -379 95 -596 132 -905 156 -278 21 -270 20
-270 41 0 23 -14 24 -70 4 -72 -25 -70 -29 -70 105 l0 120 -292 2 -293 3 -33
62 c-30 57 -35 62 -52 50 -18 -11 -38 6 -208 176 l-187 187 58 0 57 0 0 250 0
250 -265 0 -264 0 -17 58 c-20 69 -28 79 -49 62 -8 -7 -17 -11 -19 -9 -29 35
-266 358 -266 362 0 4 41 7 90 7 l90 0 0 245 0 245 -179 0 -180 0 20 57 c24
70 24 73 -1 73 -19 0 -20 7 -20 174 l0 173 78 7 c249 23 422 123 422 246 0 88
-98 167 -265 213 -92 25 -340 33 -435 13z m421 -25 c151 -39 250 -109 265
-186 28 -151 -285 -279 -598 -245 -258 28 -421 137 -388 259 22 82 143 152
324 187 99 19 298 12 397 -15z m119 -1176 l0 -235 -350 0 -350 0 0 235 0 235
350 0 350 0 0 -235z m710 -975 l0 -230 -355 0 -355 0 0 230 0 230 355 0 355 0
0 -230z m948 -972 l-3 -233 -350 0 -350 0 -3 233 -2 232 355 0 355 0 -2 -232z
m84 -48 c63 -24 68 -24 68 -5 0 19 3 19 214 0 343 -32 725 -89 931 -141 120
-31 300 -100 414 -160 299 -158 467 -348 531 -600 20 -80 20 -88 17 -4674 -3
-3201 -7 -4631 -15 -4715 -6 -66 -14 -153 -17 -193 l-7 -73 -71 3 -72 3 -14
65 c-7 36 -15 66 -16 68 -2 2 -12 -1 -22 -7 -18 -9 -34 15 -171 247 -83 141
-154 265 -157 274 -7 16 2 18 99 18 l106 0 0 245 0 245 -254 0 -253 0 -15 68
c-8 37 -19 66 -24 65 -5 -1 -16 -4 -24 -7 -11 -4 -61 65 -185 258 -93 145
-171 269 -173 275 -3 8 28 11 97 11 l101 0 0 245 0 245 -277 2 -276 3 -20 60
c-24 73 -23 72 -48 56 -12 -7 -22 -11 -23 -9 -2 2 -71 85 -155 185 l-152 183
81 0 80 0 0 245 0 245 -212 2 -213 3 -3 68 c-3 62 -5 67 -26 67 -20 0 -27 15
-74 163 -29 90 -52 169 -52 175 0 7 16 12 39 12 61 0 209 28 294 56 129 43
217 117 217 184 0 66 -87 140 -215 184 -77 25 -223 52 -347 62 l-66 5 19 56
c24 70 24 73 -1 73 -18 0 -20 7 -20 75 0 53 4 75 13 75 7 0 12 15 12 40 1 26
-3 40 -12 40 -10 0 -13 34 -13 149 l0 150 48 6 c195 25 315 83 362 176 50 97
-3 193 -142 259 l-57 27 60 28 c56 27 58 29 42 47 -16 18 -4 32 282 318 l300
300 295 2 295 3 0 245 0 245 -322 3 -323 2 -36 55 c-20 30 -39 55 -41 55 -2 0
-11 -5 -21 -11 -16 -10 -52 15 -255 176 -130 103 -239 191 -243 196 -3 5 6 9
20 9 l26 0 0 245 0 245 -175 0 c-96 0 -175 4 -175 8 0 5 9 34 19 65 l20 56
-22 3 c-21 3 -22 7 -25 174 l-2 171 79 7 c242 20 432 127 431 243 -1 69 -82
150 -194 192 -71 26 -194 51 -256 51 -56 0 -58 4 -35 70 20 56 19 70 -5 70
-19 0 -20 7 -20 92 0 91 0 91 20 73 16 -14 23 -16 32 -7 9 9 8 12 -4 12 -19 0
-30 24 -21 46 3 9 13 14 24 11 11 -3 17 -1 13 4 -8 14 -25 11 -46 -8 -17 -16
-18 -10 -18 143 l0 160 68 10 c128 20 230 83 274 168 42 82 3 188 -90 247 -54
34 -159 69 -208 69 -40 0 -42 9 -14 80 25 63 25 60 -5 60 -25 0 -25 1 -25 80
0 64 3 78 14 74 11 -4 13 3 9 36 -5 37 -4 42 13 38 23 -4 31 -43 14 -64 -10
-11 -9 -14 6 -14 15 0 19 8 19 40 1 35 -2 40 -27 45 -17 4 -28 13 -28 23 0 15
-2 15 -10 2 -7 -10 -10 32 -10 128 l0 142 180 0 180 0 0 110 c0 66 4 110 10
110 5 0 33 -9 62 -20z m1555 -230 c177 -52 361 -119 537 -197 93 -41 230 -98
306 -128 328 -127 429 -206 480 -373 20 -63 20 -110 20 -4386 0 -2723 4 -4382
10 -4486 11 -178 29 -328 61 -510 11 -63 17 -116 12 -117 -34 -12 -34 -21 -4
-70 17 -28 31 -53 31 -57 0 -3 -65 -6 -145 -6 l-145 0 0 -245 c0 -241 0 -245
21 -245 11 0 18 -4 15 -9 -17 -27 -366 -246 -531 -332 -315 -166 -813 -326
-1359 -439 -122 -25 -132 -25 -139 0 -5 20 -8 19 -63 -14 l-58 -34 -45 39
c-24 21 -48 39 -52 39 -5 0 -9 4 -9 9 0 4 24 12 53 17 32 6 51 14 50 22 -2 7
-4 17 -5 23 -2 7 254 161 567 345 l570 333 378 0 377 1 0 245 0 245 -170 0
-171 0 5 32 c8 48 25 312 36 558 14 299 14 8867 0 8976 -32 255 -174 460 -433
629 -74 48 -145 85 -297 152 -44 20 -11 14 97 -17z m-1896 -660 c124 -23 227
-100 250 -185 32 -117 -92 -236 -275 -265 -152 -24 -336 37 -394 132 -113 184
133 371 419 318z m142 -1179 c43 -11 105 -35 138 -53 279 -148 54 -380 -371
-381 -184 0 -335 37 -431 107 -172 126 -36 296 276 346 93 14 298 4 388 -19z
m115 -1178 l2 -233 -355 0 -355 0 0 228 c0 126 3 232 7 235 4 4 162 6 352 5
l346 -3 3 -232z m1202 -973 l0 -230 -355 0 -355 0 0 230 0 230 355 0 355 0 0
-230z m-1317 -949 c134 -35 213 -89 243 -166 16 -42 16 -48 0 -90 -46 -119
-226 -192 -449 -182 -230 10 -387 101 -387 224 0 73 41 128 132 174 115 59
318 76 461 40z m127 -1166 c168 -37 287 -102 316 -172 19 -44 1 -87 -52 -131
-91 -75 -269 -121 -504 -129 -239 -8 -418 20 -556 88 -249 123 -112 297 281
358 93 15 426 6 515 -14z m358 -1177 l-3 -233 -350 0 -350 0 -3 233 -2 232
355 0 355 0 -2 -232z m790 -975 l2 -233 -355 0 -355 0 0 228 c0 126 3 232 7
235 4 4 162 6 352 5 l346 -3 3 -232z m730 -1160 l2 -233 -355 0 -355 0 0 228
c0 126 3 232 7 235 4 4 162 6 352 5 l346 -3 3 -232z m670 -1160 l2 -233 -355
0 -355 0 0 228 c0 126 3 232 7 235 4 4 162 6 352 5 l346 -3 3 -232z m960 0 l2
-233 -355 0 -355 0 0 228 c0 126 3 232 7 235 4 4 162 6 352 5 l346 -3 3 -232z
m-548 -254 c0 -18 -241 -252 -321 -311 -101 -75 -181 -122 -314 -181 -359
-162 -821 -282 -1315 -342 -174 -21 -192 -20 -188 7 2 19 13 24 68 35 153 30
437 99 595 143 542 155 839 290 1255 574 113 77 130 85 173 86 27 0 47 -5 47
-11z m-2532 -695 c112 -25 216 -92 242 -154 22 -53 8 -116 -36 -161 -137 -141
-470 -170 -683 -62 -97 49 -136 96 -136 162 0 174 313 284 613 215z"/>
<path d="M3765 8238 c-2 -7 -5 -37 -7 -66 l-3 -52 75 1 c41 0 69 3 63 6 -15 6
-18 43 -3 43 5 0 17 -11 26 -25 9 -14 23 -25 31 -25 8 0 3 9 -14 24 -27 23
-27 25 -10 44 17 18 17 21 2 36 -10 10 -33 16 -61 16 -24 0 -47 0 -51 0 -5 0
-11 -26 -14 -57 l-6 -58 -1 57 c-2 53 -17 85 -27 56z"/>
<path d="M1895 9820 c0 -4095 2 -5048 5 -2975 3 1678 6 3045 8 3039 3 -18 32
-25 50 -14 15 8 14 9 -4 10 -12 0 -24 7 -28 15 -4 11 1 15 19 15 15 0 25 6 25
14 0 22 -31 28 -51 10 -18 -17 -19 62 -22 2947 -1 1630 -2 253 -2 -3061z"/>
<path d="M2825 8750 c0 -2698 1 -3808 2 -2467 l3 2438 20 -11 c14 -7 26 -8 38
-1 15 9 15 10 -4 11 -12 0 -24 7 -28 15 -4 11 1 15 19 15 15 0 25 6 25 14 0
18 -30 30 -44 16 -5 -5 -14 -10 -18 -10 -4 0 -9 1099 -11 2443 -1 1343 -2 235
-2 -2463z"/>
<path d="M3335 5545 c0 -1239 1 -1478 5 -830 3 501 6 905 8 899 3 -18 32 -25
50 -14 15 8 14 9 -4 10 -12 0 -24 7 -28 15 -4 11 1 15 19 15 15 0 25 6 25 14
0 22 -31 28 -51 10 -18 -17 -19 6 -22 802 -1 450 -2 36 -2 -921z"/>
<path d="M1250 1225 l0 -1125 3515 0 3515 0 0 1125 0 1125 -3515 0 -3515 0 0
-1125z m688 978 l3 -133 -341 0 -340 0 0 128 c0 71 3 132 7 135 4 4 155 6 337
5 l331 -3 3 -132z m6330 0 l3 -133 -3161 0 -3160 0 0 128 c0 71 3 132 7 135 3
4 1424 6 3157 5 l3151 -3 3 -132z m-6328 -283 l0 -130 -340 0 -340 0 0 130 0
130 340 0 340 0 0 -130z m1230 0 l0 -130 -610 0 -610 0 0 130 0 130 610 0 610
0 0 -130z m1160 0 l0 -130 -575 0 -575 0 0 130 0 130 575 0 575 0 0 -130z
m1210 0 l0 -130 -600 0 -600 0 0 130 0 130 600 0 600 0 0 -130z m1150 0 l0
-130 -570 0 -570 0 0 130 0 130 570 0 570 0 0 -130z m800 0 l0 -130 -395 0
-395 0 0 130 0 130 395 0 395 0 0 -130z m780 0 l0 -130 -385 0 -385 0 0 130 0
130 385 0 385 0 0 -130z m-6330 -280 l0 -130 -340 0 -340 0 0 130 0 130 340 0
340 0 0 -130z m1230 0 l0 -130 -610 0 -610 0 0 130 0 130 610 0 610 0 0 -130z
m1160 0 l0 -130 -575 0 -575 0 0 130 0 130 575 0 575 0 0 -130z m1210 0 l0
-130 -600 0 -600 0 0 130 0 130 600 0 600 0 0 -130z m1150 0 l0 -130 -570 0
-570 0 0 130 0 130 570 0 570 0 0 -130z m800 0 l0 -130 -395 0 -395 0 0 130 0
130 395 0 395 0 0 -130z m780 0 l0 -130 -385 0 -385 0 0 130 0 130 385 0 385
0 0 -130z m-6330 -280 l0 -130 -340 0 -340 0 0 130 0 130 340 0 340 0 0 -130z
m1230 0 l0 -130 -610 0 -610 0 0 130 0 130 610 0 610 0 0 -130z m1160 0 l0
-130 -575 0 -575 0 0 130 0 130 575 0 575 0 0 -130z m1210 0 l0 -130 -600 0
-600 0 0 130 0 130 600 0 600 0 0 -130z m1150 0 l0 -130 -570 0 -570 0 0 130
0 130 570 0 570 0 0 -130z m800 0 l0 -130 -395 0 -395 0 0 130 0 130 395 0
395 0 0 -130z m780 0 l0 -130 -385 0 -385 0 0 130 0 130 385 0 385 0 0 -130z
m-6330 -280 l0 -130 -340 0 -340 0 0 130 0 130 340 0 340 0 0 -130z m1230 0
l0 -130 -610 0 -610 0 0 130 0 130 610 0 610 0 0 -130z m1160 0 l0 -130 -575
0 -575 0 0 130 0 130 575 0 575 0 0 -130z m1210 0 l0 -130 -600 0 -600 0 0
130 0 130 600 0 600 0 0 -130z m1150 0 l0 -130 -570 0 -570 0 0 130 0 130 570
0 570 0 0 -130z m800 0 l0 -130 -395 0 -395 0 0 130 0 130 395 0 395 0 0 -130z
m780 0 l0 -130 -385 0 -385 0 0 130 0 130 385 0 385 0 0 -130z m-6330 -280 l0
-130 -340 0 -340 0 0 130 0 130 340 0 340 0 0 -130z m1230 0 l0 -130 -610 0
-610 0 0 130 0 130 610 0 610 0 0 -130z m1160 0 l0 -130 -575 0 -575 0 0 130
0 130 575 0 575 0 0 -130z m1210 0 l0 -130 -600 0 -600 0 0 130 0 130 600 0
600 0 0 -130z m1150 0 l0 -130 -570 0 -570 0 0 130 0 130 570 0 570 0 0 -130z
m800 0 l0 -130 -395 0 -395 0 0 130 0 130 395 0 395 0 0 -130z m780 0 l0 -130
-385 0 -385 0 0 130 0 130 385 0 385 0 0 -130z m-6330 -280 l0 -130 -340 0
-340 0 0 130 0 130 340 0 340 0 0 -130z m1230 0 l0 -130 -610 0 -610 0 0 130
0 130 610 0 610 0 0 -130z m1160 0 l0 -130 -575 0 -575 0 0 130 0 130 575 0
575 0 0 -130z m1210 0 l0 -130 -600 0 -600 0 0 130 0 130 600 0 600 0 0 -130z
m1150 0 l0 -130 -570 0 -570 0 0 130 0 130 570 0 570 0 0 -130z m800 0 l0
-130 -395 0 -395 0 0 130 0 130 395 0 395 0 0 -130z m780 0 l0 -130 -385 0
-385 0 0 130 0 130 385 0 385 0 0 -130z m-6330 -280 l0 -130 -340 0 -340 0 0
130 0 130 340 0 340 0 0 -130z m1230 0 l0 -130 -610 0 -610 0 0 130 0 130 610
0 610 0 0 -130z m1160 0 l0 -130 -575 0 -575 0 0 130 0 130 575 0 575 0 0
-130z m1210 0 l0 -130 -600 0 -600 0 0 130 0 130 600 0 600 0 0 -130z m1150 0
l0 -130 -570 0 -570 0 0 130 0 130 570 0 570 0 0 -130z m800 0 l0 -130 -395 0
-395 0 0 130 0 130 395 0 395 0 0 -130z m780 0 l0 -130 -385 0 -385 0 0 130 0
130 385 0 385 0 0 -130z"/>
</g>
</svg>
