<?xml version="1.0" standalone="no"?>
<!DOCTYPE svg PUBLIC "-//W3C//DTD SVG 20010904//EN"
 "http://www.w3.org/TR/2001/REC-SVG-20010904/DTD/svg10.dtd">
<svg version="1.0" xmlns="http://www.w3.org/2000/svg"
 width="1442.000000pt" height="7706.000000pt" viewBox="0 0 1442.000000 7706.000000"
 preserveAspectRatio="xMidYMid meet">
<metadata>
Created by potrace 1.12, written by Peter Selinger 2001-2015
</metadata>
<g transform="translate(0.000000,7706.000000) scale(0.100000,-0.100000)"
fill="#000000" stroke="none">
<path d="M170 76300 c0 -67 4 -110 10 -110 6 0 10 20 10 45 l0 45 44 0 c77 0
118 59 72 105 -21 21 -35 25 -81 25 l-55 0 0 -110z"/>
<path d="M969 76391 c-21 -17 -24 -28 -24 -89 0 -55 4 -74 19 -91 56 -62 128
17 111 121 -12 71 -59 97 -106 59z"/>
<path d="M541 76324 c-28 -35 -26 -77 3 -111 22 -26 27 -27 55 -16 24 9 31 9
31 -1 0 -31 -54 -48 -77 -25 -6 6 -17 9 -24 7 -20 -7 27 -48 54 -48 12 0 33 7
45 16 20 14 22 23 22 110 0 56 -4 94 -10 94 -5 0 -10 -5 -10 -10 0 -7 -6 -7
-19 0 -31 16 -48 12 -70 -16z"/>
<path d="M1530 75740 c0 -38 -12 -52 -25 -30 -11 18 -43 10 -64 -16 -28 -36
-27 -79 4 -109 28 -29 42 -31 67 -8 17 15 18 15 18 0 0 -10 5 -17 10 -17 6 0
10 43 10 110 0 67 -4 110 -10 110 -5 0 -10 -18 -10 -40z"/>
<path d="M230 75702 c-17 -14 -23 -29 -23 -62 0 -33 6 -48 23 -62 51 -41 110
-8 110 62 0 70 -59 103 -110 62z"/>
<path d="M1280 75702 c-32 -26 -32 -98 0 -124 51 -41 110 -8 110 62 0 70 -59
103 -110 62z"/>
<path d="M710 63270 c0 -91 3 -110 15 -110 11 0 15 11 15 42 0 33 3 39 12 30
35 -35 88 7 88 68 0 61 -53 103 -88 68 -9 -9 -12 -9 -12 0 0 7 -7 12 -15 12
-12 0 -15 -19 -15 -110z"/>
<path d="M1060 63360 c-41 -41 -15 -140 36 -140 8 0 24 5 35 10 22 12 27 -8 7
-28 -14 -14 -68 -16 -68 -2 0 6 -7 10 -15 10 -22 0 -18 -17 7 -34 31 -22 64
-20 88 4 17 17 20 33 20 110 0 53 -4 90 -10 90 -5 0 -10 -5 -10 -10 0 -7 -6
-7 -19 0 -29 15 -49 12 -71 -10z"/>
<path d="M511 62995 c-171 -39 -271 -98 -308 -183 -55 -130 140 -265 418 -288
l79 -7 -2 -171 c-3 -167 -4 -171 -25 -174 l-22 -3 20 -56 c10 -31 19 -60 19
-65 0 -4 -79 -8 -175 -8 l-175 0 0 -245 0 -245 180 0 180 0 0 -175 0 -175 -25
0 c-30 0 -30 4 -4 -65 12 -31 19 -59 16 -62 -3 -2 -37 -9 -75 -13 -292 -37
-428 -238 -259 -381 58 -50 169 -88 300 -104 l47 -6 0 -265 0 -264 -26 0 c-21
0 -25 -3 -19 -17 21 -51 37 -105 32 -109 -2 -2 -44 -9 -93 -14 -357 -40 -514
-226 -317 -376 72 -55 197 -92 366 -110 l57 -5 0 -170 0 -169 -25 0 c-14 0
-25 -2 -25 -3 0 -2 9 -30 20 -62 11 -32 20 -62 20 -67 0 -4 -79 -8 -175 -8
l-175 0 0 -245 0 -245 110 0 109 0 -40 -87 c-154 -334 -195 -639 -117 -868 58
-169 189 -370 360 -550 76 -81 80 -86 64 -104 -16 -17 -14 -19 46 -45 l62 -27
-54 -30 c-93 -51 -132 -101 -132 -173 0 -104 92 -184 259 -227 42 -10 98 -19
125 -19 l48 0 0 -265 c0 -250 -1 -265 -18 -265 -30 0 -31 -9 -11 -67 10 -31
19 -60 19 -65 0 -4 -26 -8 -57 -8 -90 -1 -283 -26 -380 -50 -163 -41 -259 -97
-290 -168 -13 -31 -12 -37 5 -70 50 -98 288 -180 572 -198 l97 -7 -23 -106
c-13 -58 -33 -169 -46 -246 l-23 -140 -2 -14785 c-2 -9571 0 -14804 7 -14838
56 -304 378 -562 898 -719 88 -26 93 -29 87 -52 l-6 -24 69 7 69 7 -5 -54 c-3
-38 1 -65 13 -90 17 -35 73 -94 111 -115 16 -9 8 -20 -76 -98 -112 -103 -315
-310 -438 -446 -81 -90 -88 -96 -104 -81 -21 19 -18 23 -49 -52 -23 -55 -28
-60 -55 -58 -112 10 -255 5 -313 -10 -340 -91 -340 -364 0 -453 79 -21 243
-23 319 -5 118 29 220 94 256 162 18 36 18 102 0 138 -22 42 -92 100 -152 127
-30 13 -54 26 -54 28 0 2 25 18 56 36 50 28 54 33 39 44 -12 9 -15 18 -9 28
20 35 331 361 446 468 179 167 158 153 212 138 25 -7 46 -15 46 -18 0 -4 -14
-19 -31 -36 -45 -43 -54 -63 -34 -78 16 -11 14 -22 -24 -140 -51 -155 -84
-295 -105 -437 -14 -96 -16 -862 -16 -7770 0 -6712 2 -7672 15 -7726 43 -183
198 -396 405 -559 51 -40 59 -50 43 -55 -10 -3 -57 -18 -105 -33 -133 -41
-228 -117 -228 -181 0 -89 162 -178 404 -222 115 -22 453 -24 571 -4 289 48
455 151 420 260 -9 28 -67 81 -118 108 l-42 22 49 1 c46 0 48 1 44 25 -5 24 5
28 930 336 754 251 938 310 951 300 46 -33 150 -74 223 -87 228 -41 487 57
514 195 4 17 10 34 14 36 4 3 30 -2 56 -10 64 -19 74 -19 74 4 0 21 -7 20 265
41 681 53 1371 235 1747 461 137 83 306 237 410 375 l33 43 260 3 260 3 0 245
0 245 -198 3 -197 2 5 23 c25 112 24 124 -8 111 -19 -7 -22 7 -42 191 -34 315
-35 404 -35 2601 l0 2204 28 1 c15 0 21 3 15 6 -17 6 -17 70 -1 76 10 4 10 6
1 6 -7 1 -13 8 -13 17 0 11 6 15 20 11 11 -3 18 -1 14 4 -9 16 -32 10 -48 -13
-14 -20 -16 193 -18 2163 -3 2448 4 2215 -77 2384 -140 295 -489 517 -1036
660 -199 53 -447 94 -767 130 l-58 6 0 135 0 134 -274 0 -274 0 -22 57 c-29
72 -35 80 -55 63 -9 -8 -19 -9 -24 -4 -4 5 -75 88 -156 184 l-148 175 77 3 76
3 0 244 0 245 -325 0 -324 0 -41 60 c-22 33 -43 60 -47 60 -3 0 -11 -7 -17
-15 -9 -13 -72 32 -383 272 -308 238 -369 289 -348 291 l25 3 0 245 0 244
-180 0 c-99 0 -180 1 -180 3 0 1 9 26 20 55 25 66 25 82 0 82 -19 0 -20 7 -20
169 l0 170 58 5 c101 10 239 44 299 73 72 35 128 90 144 142 10 35 9 44 -11
85 -12 26 -36 57 -54 70 -83 64 -223 108 -381 121 -89 7 -264 -10 -280 -27 -7
-8 -3 -9 15 -4 14 4 84 10 157 13 207 9 371 -30 481 -113 83 -64 82 -165 -1
-228 -107 -82 -272 -121 -477 -113 -192 7 -334 52 -412 130 -102 101 -26 229
170 287 43 13 60 33 19 23 -38 -10 -146 -61 -174 -83 -98 -77 -98 -183 0 -260
68 -54 215 -100 370 -116 l57 -5 0 -170 c0 -162 -1 -169 -20 -169 -25 0 -25
-3 0 -75 11 -32 20 -60 20 -62 0 -1 -81 -3 -180 -3 l-180 0 2 -242 3 -243 116
-3 116 -3 -52 -122 c-103 -239 -162 -449 -184 -649 -8 -68 -11 -1902 -11
-6056 0 -6503 -4 -6045 56 -6192 134 -331 548 -596 1174 -754 125 -31 135 -35
136 -57 0 -13 4 -23 10 -22 5 0 34 4 64 8 l55 7 -3 -51 c-3 -41 1 -60 22 -95
l26 -44 -931 -311 c-856 -285 -932 -308 -936 -291 -8 28 -19 25 -76 -21 -35
-27 -58 -39 -72 -36 -129 32 -231 48 -333 54 -137 7 -129 0 -96 82 19 46 18
61 -6 61 -20 0 -20 7 -20 6665 l0 6665 30 0 c51 0 179 30 235 55 64 28 133 89
152 132 57 138 -103 279 -341 300 l-74 6 18 51 c10 28 21 59 25 69 6 14 2 17
-19 17 l-26 0 0 113 c0 63 3 182 7 265 l6 152 179 0 178 0 0 245 0 245 -170 0
c-102 0 -170 4 -170 10 0 5 9 32 20 60 25 64 25 70 -1 70 -22 0 -22 1 -15 167
4 93 8 169 9 170 1 1 49 7 106 13 280 31 446 148 401 284 -13 39 -70 96 -127
124 -103 53 -324 91 -433 76 -49 -7 -39 -9 85 -15 200 -9 330 -48 413 -124
126 -113 39 -242 -210 -312 -49 -13 -101 -17 -233 -18 -147 0 -181 3 -248 23
-183 53 -278 143 -247 236 13 40 71 96 129 125 47 25 175 61 213 61 15 0 30 5
33 11 9 14 -70 2 -155 -23 -232 -71 -307 -211 -175 -326 65 -58 185 -104 300
-117 33 -3 76 -8 97 -11 l36 -5 -4 -137 c-6 -181 -10 -202 -34 -202 -24 0 -25
-14 -5 -70 26 -74 35 -70 -165 -70 l-180 0 0 -245 0 -245 100 0 100 0 -24 -47
c-59 -118 -79 -193 -79 -293 0 -68 6 -113 21 -160 21 -64 20 -72 -13 -83 -5
-2 9 -23 33 -48 23 -24 42 -47 42 -50 0 -3 -19 -12 -43 -19 -111 -33 -209
-114 -222 -183 -25 -130 135 -250 360 -273 l65 -7 0 -6663 c0 -6657 0 -6664
-20 -6664 -25 0 -25 -7 0 -72 11 -29 20 -56 20 -60 0 -5 -30 -8 -66 -8 -36 0
-107 -5 -158 -11 l-93 -12 -49 37 c-227 173 -390 393 -429 581 -13 61 -15 587
-15 3953 0 3697 1 3882 18 3882 14 0 17 7 14 44 -3 33 -7 43 -18 39 -12 -4
-14 524 -14 3710 0 3268 2 3730 15 3832 20 150 44 256 102 438 44 138 48 148
69 143 26 -7 34 13 34 87 l0 48 53 -6 c102 -13 254 30 326 91 93 80 107 192
34 276 -14 15 -12 17 19 22 18 3 47 7 63 8 25 3 30 7 27 28 -2 24 27 39 599
303 l602 279 138 -17 c170 -21 483 -16 624 10 184 34 340 100 379 160 9 13 16
40 16 59 0 92 -149 173 -393 216 -60 10 -110 20 -113 22 -2 3 19 15 46 28 28
13 50 26 50 28 0 3 -6 13 -14 21 -12 14 19 51 269 316 236 250 287 299 307
296 12 -2 91 -4 173 -4 132 -1 158 2 215 22 91 32 158 77 191 130 34 53 37
101 10 153 l-18 37 64 -6 c64 -6 65 -6 61 18 -3 23 6 27 157 80 298 104 527
208 710 322 111 69 280 200 403 312 l93 85 289 0 290 0 0 245 0 245 -298 0
-298 0 -32 66 c-31 63 -34 65 -51 50 -17 -15 -35 0 -311 266 l-293 283 56 3
57 3 0 244 0 245 -279 0 -279 0 -27 65 c-27 64 -38 75 -50 55 -3 -5 -10 -10
-14 -10 -4 0 -80 83 -169 185 l-162 185 75 0 75 0 0 245 0 245 -190 0 -190 0
6 28 c3 15 10 43 15 62 12 49 12 50 -15 50 -22 0 -24 5 -35 103 -6 56 -14 132
-18 169 l-6 66 54 5 c30 3 104 10 164 16 270 27 488 114 511 204 34 139 -215
241 -668 273 l-86 6 19 55 c24 70 24 73 -1 73 -18 0 -20 7 -20 75 0 54 4 75
13 75 8 0 11 14 9 45 -2 25 -8 42 -13 39 -5 -3 -9 59 -9 145 l0 150 48 6 c198
24 326 84 372 176 64 124 -42 246 -259 297 l-70 16 42 49 c38 46 40 50 23 63
-12 8 -16 20 -12 31 3 10 50 132 104 270 l97 253 225 2 225 3 0 245 0 245
-325 3 -325 2 -30 47 c-17 26 -33 51 -36 56 -4 5 -15 4 -26 -4 -21 -13 -14
-18 -496 363 l-22 18 33 0 32 0 0 245 0 245 -179 0 -180 0 20 57 c24 70 24 73
-1 73 -19 0 -20 7 -20 173 l0 173 98 11 c156 19 294 78 348 149 39 50 44 118
12 164 -63 93 -245 169 -405 170 -60 0 -61 3 -38 70 20 56 19 70 -3 70 -17 0
-20 12 -25 122 -4 66 -7 185 -7 263 l0 141 78 11 c145 21 267 84 309 158 66
117 -11 234 -196 297 -55 19 -88 23 -196 23 -71 0 -143 -2 -158 -5 -27 -5 -30
-1 -53 54 -29 72 -28 70 -52 57 -17 -9 -38 11 -186 182 l-167 192 70 3 71 3 0
249 0 250 -179 0 -180 0 20 57 c24 71 24 73 -6 73 l-25 0 0 165 c0 91 0 168 0
173 0 4 33 10 75 14 247 23 415 122 415 244 0 119 -179 220 -426 240 l-81 7
18 61 c24 77 24 76 -4 76 l-24 0 -6 197 c-4 108 -7 226 -7 263 l0 67 71 7
c141 13 270 75 320 155 48 76 35 146 -41 215 -77 70 -225 116 -370 116 l-70 0
2 68 c3 65 2 67 -22 67 -23 0 -29 13 -111 265 l-86 265 121 12 c277 27 474 94
533 182 29 43 29 68 -1 112 -63 92 -311 167 -609 185 -64 4 -117 10 -117 13 0
3 9 30 20 59 22 57 20 72 -11 72 -17 0 -19 7 -19 70 0 60 2 70 18 70 14 0 17
7 14 44 -3 34 -7 43 -18 39 -12 -4 -14 18 -12 148 l3 154 67 7 c135 13 251 60
311 127 71 78 71 154 0 232 l-35 39 28 0 c16 0 46 3 66 6 33 6 37 9 32 29 -5
20 7 30 99 85 232 138 395 290 551 514 l88 126 244 0 244 0 0 245 0 245 -315
0 -315 0 -28 44 c-15 24 -32 52 -37 61 -9 15 -14 16 -32 5 -19 -12 -45 8 -354
271 l-334 284 38 3 37 3 0 245 0 244 -264 0 -264 0 -22 66 c-18 52 -25 64 -39
59 -9 -4 -19 -7 -23 -8 -3 -1 -68 79 -143 178 l-137 180 86 3 86 3 0 244 0
245 -175 0 c-96 0 -175 3 -175 8 0 4 9 31 20 60 26 67 25 72 -5 72 l-25 0 0
170 c0 131 3 170 13 170 7 0 51 5 97 10 239 29 400 126 400 240 0 122 -174
218 -443 245 -64 6 -67 8 -61 28 35 107 35 107 10 107 l-24 0 -6 188 c-3 103
-9 222 -12 264 l-5 77 48 6 c196 26 317 86 363 180 69 142 -81 274 -348 307
-91 11 -93 12 -87 35 3 13 8 43 11 67 6 42 5 44 -14 39 -25 -6 -25 -5 -47 167
-24 196 -34 176 98 183 290 16 540 95 597 189 26 43 25 66 -4 109 -41 60 -178
120 -351 153 -91 18 -263 36 -336 36 -27 0 -49 3 -49 8 0 4 9 31 20 60 22 57
20 72 -11 72 -17 0 -19 7 -19 70 0 60 2 70 18 70 14 0 17 7 14 44 -3 34 -7 43
-18 39 -12 -4 -14 18 -12 148 l3 154 75 7 c130 13 226 49 295 110 41 35 75 96
75 130 -1 37 -35 102 -69 130 l-31 27 47 6 c79 11 84 14 73 36 -9 16 -6 22 20
37 230 127 423 305 568 526 51 76 92 142 92 147 0 5 108 9 240 9 l240 0 0 245
0 245 -314 0 -315 0 -36 60 c-38 62 -48 70 -62 45 -7 -11 -85 50 -347 273
l-338 287 41 3 41 3 0 244 0 245 -267 2 -266 3 -20 60 c-24 73 -23 72 -47 58
-16 -11 -32 6 -153 170 l-135 182 89 3 89 3 0 244 0 245 -175 0 c-133 0 -175
3 -175 13 0 6 9 35 20 63 20 54 18 64 -12 64 -17 0 -18 12 -18 169 l0 170 58
6 c106 11 179 25 237 45 206 71 273 207 155 314 -74 67 -187 108 -346 126 -54
6 -100 12 -102 15 -2 2 3 25 12 51 22 64 21 83 -3 77 -17 -4 -20 3 -25 79 -3
45 -8 165 -12 264 l-6 181 24 6 c13 4 36 7 52 7 43 0 145 29 201 57 94 46 145
111 145 183 0 98 -98 183 -258 225 -65 16 -201 24 -282 15 l-45 -5 -19 65
c-10 36 -20 66 -21 68 -2 2 -12 -1 -23 -7 -19 -10 -33 6 -156 177 -110 153
-132 188 -118 193 9 4 60 12 112 19 179 23 341 81 406 146 63 64 40 141 -61
199 -102 61 -315 109 -529 121 l-112 7 22 62 c24 65 23 75 -8 75 -16 0 -18 9
-18 70 0 60 2 70 18 70 14 0 17 7 14 44 -3 33 -7 43 -18 39 -12 -4 -14 21 -14
149 l0 155 73 6 c200 16 357 119 357 235 0 110 -126 212 -293 237 l-47 7 45
53 c44 51 45 53 25 66 -20 14 -19 19 81 274 55 143 103 266 106 273 4 9 59 12
229 12 l224 0 0 245 0 245 -291 0 -290 0 -31 65 c-28 61 -32 65 -47 51 -16
-14 -32 0 -202 172 l-184 187 63 3 62 3 0 244 0 245 -175 0 c-133 0 -175 3
-175 13 0 6 9 35 20 63 20 54 18 64 -12 64 -17 0 -18 12 -18 169 l0 170 58 6
c160 17 258 43 337 90 56 32 103 87 110 129 24 128 -140 237 -399 266 -49 5
-91 12 -93 14 -3 3 4 32 15 65 l21 61 -25 0 c-24 0 -24 1 -24 93 1 67 3 87 11
75 12 -21 32 -23 48 -5 8 11 6 13 -11 13 -14 -1 -24 6 -26 18 -6 27 13 42 33
26 8 -7 15 -8 15 -2 0 5 -7 13 -16 16 -21 8 -20 8 -38 -10 -15 -14 -16 -1 -16
145 l0 160 48 6 c146 19 233 50 296 106 57 50 76 85 76 139 0 54 -19 89 -76
139 -64 56 -133 81 -296 106 -21 3 -38 10 -38 15 0 6 9 33 20 62 11 29 20 54
20 56 0 1 -11 2 -25 2 l-25 0 0 175 0 175 180 0 180 0 0 245 0 245 -175 0
c-96 0 -175 4 -175 8 0 5 9 34 19 65 l20 57 -25 0 -24 0 0 174 0 173 79 7
c340 28 526 208 367 354 -54 50 -102 75 -197 103 -97 28 -351 36 -448 14z
m336 -6 c151 -20 291 -86 334 -156 31 -50 22 -113 -21 -158 -148 -153 -578
-187 -818 -66 -82 41 -132 99 -132 152 0 57 30 101 98 144 126 79 336 112 539
84z m211 -1196 l2 -233 -355 0 -355 0 0 235 0 235 353 -2 352 -3 3 -232z
m-148 -771 c122 -40 210 -124 210 -202 0 -79 -89 -163 -215 -203 -59 -19 -92
-22 -210 -21 -117 1 -150 4 -199 22 -127 47 -206 124 -206 202 0 94 114 185
275 220 72 16 273 5 345 -18z m34 -1157 c136 -38 234 -103 256 -171 31 -94
-69 -187 -262 -241 -49 -13 -101 -17 -233 -18 -147 0 -181 3 -248 23 -183 53
-278 143 -247 236 13 39 71 96 127 125 43 22 131 49 201 61 74 14 338 4 406
-15z m114 -1177 l-3 -233 -352 -3 -353 -2 0 235 0 235 355 0 355 0 -2 -232z
m56 -444 c177 -182 188 -196 172 -212 -15 -15 -13 -18 36 -44 l53 -27 -57 -1
-58 0 0 -245 0 -245 105 0 c58 0 105 -2 105 -5 0 -3 -25 -57 -55 -120 -30 -63
-77 -181 -104 -262 -45 -136 -51 -148 -71 -145 -22 4 -23 2 -18 -66 l5 -69
-91 -6 c-50 -4 -112 -13 -138 -21 l-47 -14 -33 64 c-31 60 -33 62 -51 46 -18
-16 -22 -14 -79 48 -215 236 -336 428 -390 616 -28 101 -30 278 -5 407 24 120
77 278 133 398 l47 99 176 0 176 -1 189 -195z m864 -531 l2 -233 -355 0 -355
0 0 235 0 235 353 -2 352 -3 3 -232z m-458 -255 c0 -7 -45 -128 -99 -268 -93
-239 -116 -282 -135 -252 -13 22 103 336 172 465 33 61 62 87 62 55z m-155
-694 c341 -87 317 -355 -38 -428 -228 -47 -486 26 -554 157 -36 71 6 163 100
217 130 75 324 96 492 54z m123 -1160 c196 -28 342 -82 400 -149 52 -58 42
-103 -34 -156 -232 -159 -890 -185 -1242 -49 -153 59 -202 138 -131 210 136
135 602 202 1007 144z m-4 -651 c119 -167 137 -197 123 -205 -26 -14 -21 -23
33 -58 50 -32 63 -50 36 -50 -34 0 -130 -46 -172 -83 -55 -48 -74 -84 -74
-137 0 -52 18 -87 70 -134 64 -58 171 -96 311 -111 l56 -6 6 -172 c4 -95 7
-214 7 -264 0 -86 -1 -93 -20 -93 -24 0 -25 4 1 -64 12 -31 19 -59 16 -62 -3
-3 -43 -10 -89 -15 -235 -26 -398 -125 -398 -242 0 -67 80 -147 187 -187 61
-23 168 -45 266 -56 l57 -5 0 -170 0 -169 -25 0 c-14 0 -25 -2 -25 -3 0 -2 9
-30 20 -62 11 -32 20 -62 20 -67 0 -4 -79 -8 -175 -8 l-175 0 0 -245 0 -245
156 0 156 0 -7 -47 c-86 -572 -83 -1028 10 -1393 85 -335 263 -728 527 -1163
56 -92 59 -99 44 -116 -16 -18 -14 -21 35 -56 l51 -38 -75 -27 c-42 -15 -84
-33 -94 -40 -43 -33 -86 -77 -99 -102 -41 -78 7 -178 112 -235 71 -38 196 -73
266 -73 l48 0 0 -265 c0 -258 -1 -265 -20 -265 -25 0 -25 -12 -1 -82 l19 -55
-120 -7 c-218 -12 -443 -62 -544 -121 -175 -102 -97 -238 179 -310 51 -13 113
-27 140 -31 26 -3 47 -7 47 -8 0 0 -47 -49 -104 -107 -170 -175 -272 -350
-302 -519 -11 -62 -13 -1897 -14 -10967 0 -7680 3 -10914 11 -10968 20 -145
83 -295 194 -461 54 -81 63 -99 50 -106 -25 -15 -18 -25 40 -58 l56 -32 -43
-27 c-24 -15 -55 -42 -70 -59 -15 -18 -30 -32 -35 -32 -5 0 -32 16 -60 35 -61
41 -63 41 -63 15 0 -27 -9 -26 -131 14 -463 151 -742 356 -837 616 l-27 75 -3
7324 c-2 6175 0 7322 12 7306 9 -13 19 -16 32 -11 18 8 18 9 -4 17 -30 11 -28
29 3 29 14 0 25 4 25 9 0 13 -29 35 -37 27 -3 -3 -1 -6 5 -6 7 0 12 -4 12 -10
0 -5 -7 -10 -15 -10 -8 0 -15 6 -15 13 0 8 -4 7 -10 -3 -6 -10 -9 2613 -7
7465 2 7031 3 7486 20 7585 19 120 54 297 68 353 l10 37 107 -1 107 0 139
-196z m539 -318 c152 -32 267 -124 267 -215 0 -90 -116 -183 -269 -216 -85
-18 -227 -18 -313 0 -233 50 -337 205 -217 325 48 48 128 88 213 106 82 18
235 18 319 0z m121 -1170 c136 -38 234 -103 256 -171 31 -94 -69 -187 -262
-241 -49 -13 -101 -17 -233 -18 -147 0 -181 3 -248 23 -183 53 -278 143 -247
236 13 39 71 96 127 125 43 22 131 49 201 61 74 14 338 4 406 -15z m114 -1177
l-3 -233 -352 -3 -353 -2 0 235 0 235 355 0 355 0 -2 -232z m-48 -435 c134
-179 139 -187 123 -205 -19 -21 -23 -16 47 -61 l35 -22 -85 -5 -85 -5 -3 -242
-2 -243 184 0 184 0 6 -82 c5 -71 47 -1512 46 -1590 0 -21 -5 -28 -20 -28 -25
0 -25 -7 0 -71 12 -28 19 -53 18 -54 -2 -2 -31 -6 -65 -10 l-62 -7 -10 39 c-5
21 -13 50 -17 66 -7 30 -8 31 -33 18 -14 -8 -30 11 -103 132 -295 487 -475
920 -538 1291 -56 329 -48 703 26 1219 l7 47 103 0 104 0 140 -187z m750 -538
l0 -235 -350 0 -350 0 0 235 0 235 350 0 350 0 0 -235z m252 -533 c186 -159
340 -291 344 -295 4 -3 1 -14 -6 -22 -16 -19 -7 -28 45 -46 38 -13 39 -14 13
-17 l-28 -3 0 -244 0 -244 46 -3 46 -3 -313 -280 c-374 -335 -357 -321 -372
-306 -18 18 -24 14 -57 -46 -18 -32 -33 -59 -34 -60 -1 -2 -34 4 -72 12 -38 8
-86 15 -106 15 -21 0 -38 2 -38 3 0 2 9 30 20 62 11 32 20 60 20 62 0 1 -11 3
-25 3 -25 0 -25 1 -26 88 0 48 -10 427 -23 842 -13 415 -21 758 -19 763 2 4
59 7 126 7 l122 -1 337 -287z m1086 -629 l2 -233 -355 0 -355 0 0 235 0 235
353 -2 352 -3 3 -232z m-504 -290 c-148 -258 -324 -440 -558 -582 -90 -54
-101 -59 -110 -43 -5 9 -10 19 -12 21 -2 2 -25 -20 -51 -49 l-49 -53 -48 25
-47 24 62 27 c59 25 61 28 46 45 -15 17 3 35 326 325 l342 306 63 1 64 0 -28
-47z m-936 -659 c106 -24 206 -85 237 -145 8 -15 15 -49 15 -74 0 -39 -5 -51
-41 -90 -134 -146 -471 -179 -688 -68 -97 49 -136 96 -136 162 0 173 313 283
613 215z m132 -1161 c203 -27 375 -91 423 -156 92 -122 -140 -241 -543 -278
-401 -37 -864 54 -937 184 -23 40 -15 68 30 111 138 133 610 197 1027 139z
m-292 -458 c9 -7 45 -339 37 -342 -36 -12 -37 -20 -11 -71 14 -28 26 -56 26
-62 0 -5 -16 -10 -36 -10 -99 0 -252 -66 -310 -133 -128 -151 34 -320 337
-352 l57 -6 6 -147 c3 -81 9 -200 12 -264 l6 -118 -27 0 c-18 0 -25 -4 -22
-12 3 -7 14 -36 26 -65 l20 -52 -47 -5 c-92 -11 -212 -37 -264 -57 -105 -40
-188 -124 -188 -189 0 -65 83 -149 187 -189 57 -22 177 -48 266 -57 l57 -5 0
-170 c0 -162 -1 -169 -20 -169 -25 0 -25 -12 -1 -83 l20 -57 -180 0 -179 0 0
-245 0 -245 155 0 c124 0 155 -3 155 -14 0 -7 -9 -71 -19 -142 -38 -251 -46
-366 -46 -664 0 -323 9 -410 64 -635 78 -317 261 -741 485 -1124 61 -106 73
-141 46 -141 -21 0 -8 -17 41 -55 l52 -39 -54 -17 c-72 -21 -112 -43 -160 -86
-77 -70 -90 -137 -40 -214 51 -81 181 -143 326 -156 l75 -6 0 -263 c0 -257 -1
-264 -20 -264 -25 0 -25 -12 -1 -83 l20 -57 -57 0 c-94 0 -300 -28 -404 -54
-388 -99 -384 -288 8 -387 62 -15 146 -31 187 -35 41 -4 80 -10 86 -13 8 -5
-8 -40 -46 -102 -104 -173 -189 -374 -236 -559 l-22 -85 -5 -7135 c-5 -6780
-6 -7138 -23 -7192 -43 -140 -144 -332 -225 -428 -26 -30 -31 -33 -46 -21 -20
17 -18 20 -46 -56 -12 -35 -24 -63 -25 -63 -1 0 -20 6 -41 14 -84 29 -173 30
-310 1 -31 -7 -32 -6 -49 46 -22 67 -30 76 -50 59 -10 -9 -19 -10 -23 -4 -127
182 -186 294 -229 430 l-28 89 0 10970 c0 10530 1 10973 18 11033 45 158 133
298 290 459 l110 113 156 -7 c86 -3 157 -7 159 -8z m314 -524 c78 -25 154 -75
186 -121 29 -43 30 -112 2 -158 -28 -45 -126 -106 -207 -128 -96 -27 -315 -27
-393 0 -83 28 -131 54 -172 94 -117 111 -44 248 167 315 76 24 90 26 225 23
95 -3 141 -8 192 -25z m63 -1155 c294 -81 353 -259 121 -367 -98 -45 -171 -61
-316 -66 -360 -14 -619 132 -521 294 39 62 135 113 271 144 107 24 350 21 445
-5z m115 -1181 l0 -235 -352 2 -353 3 -3 233 -2 232 355 0 355 0 0 -235z m-48
-422 c163 -216 154 -201 132 -217 -16 -12 -12 -17 37 -50 l54 -36 -88 0 -87 0
0 -245 0 -245 180 0 180 0 0 -850 c0 -843 0 -850 -20 -850 -25 0 -25 -3 -1
-73 l20 -57 -27 0 c-15 0 -44 -3 -64 -6 -40 -7 -38 -10 -62 98 -5 21 -11 26
-32 25 -23 -2 -33 11 -96 118 -105 181 -279 536 -346 707 -144 364 -189 582
-199 948 -6 247 5 439 44 718 l27 192 106 0 107 0 135 -177z m768 -548 l0
-235 -355 0 -355 0 0 228 c0 126 3 232 7 235 3 4 163 7 355 7 l348 0 0 -235z
m252 -536 c189 -161 345 -294 347 -295 2 -2 -3 -12 -13 -23 -16 -18 -15 -19
35 -37 49 -18 51 -19 23 -24 l-29 -5 -3 -242 -2 -242 42 -3 43 -3 -335 -284
c-184 -156 -345 -293 -358 -305 -24 -21 -24 -21 -38 -1 -17 23 -16 24 -61 -58
-24 -43 -30 -48 -53 -43 -14 3 -61 11 -105 18 -44 6 -82 13 -83 14 -2 2 5 28
17 59 26 68 26 63 -1 67 l-23 3 -3 835 c-1 459 0 841 3 848 3 9 38 12 129 12
l124 0 344 -291z m1078 -624 l0 -235 -350 0 -350 0 0 235 0 235 350 0 350 0 0
-235z m-490 -251 c0 -14 -126 -188 -201 -277 -116 -140 -277 -269 -462 -372
-65 -36 -69 -37 -82 -19 -13 18 -17 16 -63 -30 l-50 -48 -41 18 c-47 22 -50
30 -18 38 13 3 40 13 61 21 36 15 37 17 22 34 -16 18 1 34 349 330 l366 311
60 0 c32 0 59 -3 59 -6z m-1012 -700 c66 -17 149 -58 185 -93 41 -37 57 -73
57 -124 0 -84 -85 -158 -235 -203 -45 -14 -92 -18 -190 -18 -114 0 -140 4
-210 27 -100 34 -170 84 -196 140 -24 54 -24 71 2 124 65 134 357 207 587 147z
m130 -1160 c194 -28 369 -94 415 -156 26 -35 24 -84 -5 -115 -202 -217 -1149
-230 -1418 -21 -103 81 -38 177 163 242 217 71 560 91 845 50z m-152 -728 c84
-251 90 -275 73 -279 -27 -7 -24 -18 16 -68 41 -52 43 -59 11 -59 -37 0 -156
-39 -203 -67 -83 -48 -132 -129 -119 -198 9 -45 78 -120 138 -151 63 -32 187
-64 249 -64 l47 0 6 -47 c3 -27 8 -148 12 -270 6 -222 6 -223 -15 -223 -26 0
-26 -7 -1 -65 11 -26 20 -50 20 -54 0 -4 -42 -12 -94 -19 -249 -31 -409 -135
-393 -254 8 -59 52 -107 138 -150 91 -47 168 -67 280 -75 l86 -6 7 -105 c3
-58 6 -136 6 -174 0 -61 -2 -68 -20 -68 -11 0 -20 -6 -20 -14 0 -8 9 -35 20
-61 11 -26 20 -48 20 -51 0 -2 -78 -5 -172 -6 l-173 -3 0 -245 0 -245 178 -3
177 -2 0 -4653 c0 -3200 3 -4672 11 -4717 57 -355 384 -651 947 -856 121 -45
132 -51 129 -71 -4 -22 -1 -23 60 -23 58 0 64 -2 58 -17 -36 -89 -31 -123 30
-191 31 -35 65 -58 110 -78 36 -16 64 -32 63 -36 -3 -9 -480 -517 -527 -562
-24 -23 -34 -27 -43 -18 -19 19 -24 15 -52 -51 l-27 -63 -152 4 c-251 7 -507
-32 -657 -100 -75 -33 -116 -69 -137 -116 -13 -31 -12 -37 5 -70 26 -50 97
-96 200 -129 48 -15 90 -30 94 -33 6 -4 -1100 -523 -1165 -546 -12 -4 -23 0
-32 12 -13 18 -16 16 -64 -30 l-49 -49 -36 22 c-20 13 -36 24 -36 26 0 2 25
19 55 37 49 29 53 34 39 49 -13 15 -8 26 52 115 77 113 142 244 176 354 l23
75 3 3644 c2 3059 4 3642 16 3626 9 -13 19 -16 32 -11 18 8 18 9 -3 17 -31 11
-29 29 2 29 14 0 25 4 25 9 0 13 -29 35 -37 27 -3 -3 -1 -6 5 -6 7 0 12 -4 12
-10 0 -5 -7 -10 -15 -10 -8 0 -15 6 -15 13 0 8 -4 7 -10 -3 -6 -10 -9 1200 -7
3465 l2 3480 27 102 c48 180 126 358 242 555 l51 88 115 0 115 0 91 -274z
m394 -433 c123 -31 220 -101 242 -174 49 -164 -247 -306 -540 -259 -263 43
-384 211 -245 342 30 29 105 68 165 87 98 32 265 33 378 4z m-35 -1143 c456
-51 536 -320 128 -432 -112 -31 -354 -31 -465 0 -144 39 -240 103 -258 173
-37 136 175 255 475 268 17 0 71 -4 120 -9z m275 -1200 l0 -230 -355 0 -355 0
0 230 0 230 355 0 355 0 0 -230z m1 -427 c205 -236 194 -220 178 -239 -11 -13
-9 -19 11 -35 14 -10 37 -24 53 -30 15 -6 27 -14 27 -18 0 -3 -25 -17 -55 -30
-66 -28 -138 -89 -155 -131 -17 -42 -8 -121 19 -159 51 -71 165 -125 308 -144
l82 -11 5 -51 c3 -27 7 -146 8 -262 l3 -213 -23 0 c-25 0 -25 -7 4 -79 22 -53
19 -61 -25 -61 -22 0 -72 -6 -113 -14 -221 -43 -344 -149 -309 -267 31 -102
194 -187 397 -205 l74 -7 0 -173 c0 -167 -1 -174 -20 -174 -11 0 -20 -2 -20
-3 0 -2 9 -30 20 -62 11 -32 20 -60 20 -61 0 -2 -80 -5 -177 -6 l-178 -3 -3
-242 -2 -243 156 0 157 0 -7 -57 c-4 -32 -12 -96 -18 -143 -17 -139 -14 -409
6 -534 46 -286 175 -522 433 -797 58 -61 61 -67 46 -82 -16 -16 -13 -19 45
-44 l63 -27 -52 -24 c-67 -32 -125 -90 -140 -141 -41 -137 122 -258 384 -286
l57 -6 -2 -262 -3 -262 -22 -3 c-13 -2 -23 -5 -23 -6 0 -2 9 -29 20 -61 11
-32 19 -59 17 -61 -1 -1 -67 -8 -147 -14 -278 -21 -477 -78 -562 -160 -61 -59
-64 -92 -12 -150 42 -46 109 -80 223 -113 l81 -23 -93 -61 c-188 -124 -331
-269 -406 -413 -75 -144 -71 -62 -71 -1366 0 -1277 -2 -1220 59 -1362 81 -190
236 -377 454 -545 53 -41 74 -64 67 -71 -21 -21 -9 -33 45 -46 61 -15 75 -25
46 -35 -10 -3 -26 -14 -36 -25 -10 -11 -21 -20 -25 -20 -3 0 -31 18 -60 40
-53 39 -55 40 -62 19 -7 -17 -13 -20 -36 -14 -132 33 -464 188 -609 284 -109
73 -248 201 -309 286 -24 34 -59 95 -78 136 -71 150 -66 -255 -66 4900 l0
4649 98 0 98 0 155 -177z m612 -328 c180 -38 291 -136 274 -242 -22 -133 -262
-232 -495 -203 -182 23 -313 104 -329 204 -8 51 3 82 47 130 94 102 316 151
503 111z m116 -1175 c280 -80 332 -253 110 -366 -128 -64 -361 -87 -528 -50
-253 54 -358 203 -227 322 53 49 146 88 254 109 106 20 293 13 391 -15z m121
-1175 l0 -235 -350 0 -350 0 0 235 0 235 350 0 350 0 0 -235z m192 -449 c246
-195 256 -204 242 -224 -14 -20 -12 -22 26 -33 29 -9 37 -15 30 -24 -7 -8 -9
-101 -8 -251 l3 -239 107 -3 108 -3 -44 -87 c-47 -95 -106 -244 -141 -362 -20
-66 -25 -75 -46 -75 -23 0 -24 -3 -21 -66 l4 -66 -86 -8 c-47 -4 -109 -13
-136 -20 l-51 -13 -29 51 c-16 29 -31 57 -33 62 -2 6 -11 4 -22 -5 -16 -13
-24 -8 -100 72 -149 156 -281 350 -338 497 -66 169 -89 313 -88 552 0 140 21
391 36 437 3 9 46 12 167 12 l163 -1 257 -203z m1008 -526 l0 -230 -350 0
-350 0 0 230 0 230 350 0 350 0 0 -230z m-454 -267 c-48 -130 -202 -523 -206
-523 -3 0 -12 4 -20 10 -35 22 169 530 213 530 14 0 17 -5 13 -17z m-173 -678
c137 -29 246 -100 269 -176 43 -144 -157 -269 -432 -269 -401 0 -585 263 -284
405 31 15 84 33 118 40 82 18 245 18 329 0z m197 -1170 c187 -34 342 -97 384
-156 69 -99 -85 -200 -389 -255 -143 -26 -566 -26 -710 0 -205 37 -367 109
-395 177 -43 104 162 208 490 248 119 15 509 6 620 -14z m-635 -434 c44 -6
128 -13 187 -17 l108 -6 5 -32 c4 -29 35 -298 35 -311 0 -3 -9 -5 -20 -5 -26
0 -25 -10 5 -70 14 -27 25 -52 25 -55 0 -3 -74 -5 -165 -5 l-165 0 0 -245 0
-245 166 0 167 0 -6 -37 c-14 -88 -68 -606 -87 -824 -39 -465 -45 -1131 -14
-1680 7 -117 7 -120 -14 -126 -27 -7 -27 -9 2 -76 l25 -55 -62 -6 c-33 -4 -94
-18 -134 -31 l-74 -23 -41 54 c-22 30 -43 54 -46 54 -2 0 -10 -8 -17 -17 -12
-16 -22 -10 -106 59 -114 92 -258 240 -322 329 -65 92 -124 213 -147 305 -19
73 -20 112 -20 703 0 528 2 622 14 606 9 -13 19 -16 32 -11 18 8 18 9 -3 17
-31 11 -29 29 2 29 14 0 25 4 25 9 0 13 -29 35 -37 27 -3 -3 -1 -6 5 -6 7 0
12 -4 12 -10 0 -5 -7 -10 -15 -10 -8 0 -15 6 -15 13 0 8 -4 7 -10 -3 -6 -10
-10 171 -10 520 0 575 0 579 54 695 63 139 226 310 412 433 91 61 114 72 139
68 17 -3 66 -10 110 -15z m735 -746 l0 -235 -352 2 -353 3 -3 233 -2 232 355
0 355 0 0 -235z m12 -438 c156 -179 166 -193 151 -209 -19 -21 -21 -19 37 -49
l45 -24 -67 -3 -68 -3 0 -244 0 -245 150 0 c83 0 150 -4 150 -9 0 -15 -79
-285 -108 -371 -96 -277 -275 -693 -485 -1123 -92 -190 -103 -208 -123 -203
-20 5 -23 1 -29 -37 -13 -89 -16 -99 -32 -93 -8 3 -34 6 -58 6 l-44 0 20 67
c10 38 19 69 19 70 0 2 -11 3 -24 3 -23 0 -24 3 -30 98 -13 219 -19 1189 -7
1387 18 316 70 855 107 1128 l7 47 111 0 111 -1 167 -192z m816 -534 l2 -233
-355 0 -355 0 0 235 0 235 353 -2 352 -3 3 -232z m-24 -341 c56 -54 191 -184
300 -290 154 -148 197 -195 188 -204 -19 -19 -15 -26 36 -52 l47 -25 -47 -1
-48 0 0 -238 0 -238 -207 -121 c-394 -230 -773 -433 -991 -534 -89 -41 -93
-41 -107 -23 -13 18 -16 17 -64 -30 l-50 -49 -53 21 c-29 12 -73 26 -98 32
l-44 12 48 46 c43 40 47 47 32 57 -9 7 -16 15 -16 17 0 3 54 118 119 254 271
566 436 970 531 1299 22 77 42 146 45 153 3 9 41 12 142 12 l137 0 100 -98z
m1196 -817 l0 -235 -355 0 -355 0 0 228 c0 126 3 232 7 235 3 4 163 7 355 7
l348 0 0 -235z m-605 -264 c-61 -59 -233 -203 -320 -268 -223 -167 -505 -305
-883 -432 -122 -41 -142 -43 -142 -15 0 17 -12 18 -27 3 -8 -8 -13 -5 -18 12
-4 13 -3 25 2 26 5 2 119 59 254 126 256 129 585 310 854 470 160 95 160 95
230 96 69 1 69 1 50 -18z m-1675 -688 c123 -31 220 -101 242 -174 49 -164
-247 -306 -540 -259 -263 43 -384 211 -245 342 30 29 105 68 165 87 98 32 265
33 378 4z m-942 -1159 c196 -28 342 -82 400 -149 52 -58 42 -103 -34 -156
-232 -159 -890 -185 -1242 -49 -153 59 -202 138 -131 210 136 135 602 202
1007 144z m-2164 -984 c85 -33 162 -110 171 -170 13 -92 -56 -185 -174 -232
-47 -19 -75 -23 -176 -23 -151 0 -214 22 -292 99 -81 81 -85 162 -10 243 45
49 76 68 157 95 79 26 242 20 324 -12z m-1079 -1159 c121 -43 205 -126 205
-201 0 -76 -84 -158 -205 -201 -84 -29 -265 -37 -358 -15 -112 26 -211 86
-242 147 -19 36 -19 102 0 138 30 58 128 119 233 146 85 22 288 14 367 -14z
m1773 -1173 l-3 -233 -352 -3 -353 -2 0 235 0 235 355 0 355 0 -2 -232z m1302
-3 l0 -235 -350 0 -350 0 0 235 0 235 350 0 350 0 0 -235z m-1664 -337 c-3
-50 -6 -169 -6 -265 0 -166 -1 -173 -20 -173 -24 0 -25 -8 -3 -76 9 -30 15
-55 12 -58 -2 -2 -32 -6 -66 -9 l-62 -5 -7 69 c-4 38 -9 69 -11 69 -2 0 -13
-5 -23 -10 -17 -9 -21 -4 -36 42 -9 29 -19 94 -21 144 -6 104 7 160 64 287
l36 77 75 0 75 0 -7 -92z m1984 -199 c206 -160 377 -295 378 -300 2 -5 -2 -16
-8 -24 -10 -12 -7 -17 16 -25 48 -17 70 -29 57 -29 -10 -1 -13 -57 -13 -246
l0 -245 279 0 278 0 162 -192 c150 -178 160 -193 145 -209 -14 -16 -12 -19 33
-46 l48 -28 -72 -3 -73 -3 0 -162 0 -163 -137 -38 c-291 -81 -573 -203 -763
-327 -123 -81 -282 -239 -339 -336 -24 -39 -55 -105 -69 -145 l-27 -73 -6
-1840 c-6 -1800 -8 -1918 -39 -2245 -29 -300 -75 -592 -175 -1098 -115 -588
-149 -826 -186 -1282 -17 -209 -25 -3384 -9 -3495 45 -311 293 -578 748 -808
99 -50 141 -77 139 -87 -1 -8 -10 -14 -20 -14 -10 1 -17 -5 -17 -15 0 -10 -3
-20 -6 -23 -7 -8 -270 61 -408 107 -146 49 -320 124 -427 186 -276 157 -436
340 -506 574 -17 57 -18 329 -21 6045 -2 3944 1 6020 7 6087 22 221 92 465
204 706 l40 87 206 0 206 -1 375 -290z m-1847 -404 c136 -28 237 -90 269 -162
27 -61 18 -103 -34 -159 -127 -138 -454 -172 -662 -68 -156 78 -183 210 -63
304 105 83 324 120 490 85z m2997 -220 l0 -235 -352 2 -353 3 -3 233 -2 232
355 0 355 0 0 -235z m800 -970 l0 -235 -355 0 -355 0 0 228 c0 126 3 232 7
235 3 4 163 7 355 7 l348 0 0 -235z m257 -65 c960 -122 1535 -434 1653 -896
20 -76 20 -132 20 -4388 0 -2566 4 -4393 10 -4514 9 -185 28 -407 49 -554 7
-51 6 -58 -9 -58 -30 0 -30 -11 0 -71 l30 -58 -157 -3 -158 -3 0 -245 0 -245
35 -5 35 -5 -92 -67 c-123 -90 -256 -177 -373 -244 -360 -203 -960 -380 -1661
-488 -200 -31 -199 -31 -199 -6 0 26 -10 25 -78 -9 l-57 -29 -27 38 c-31 44
-25 50 49 50 42 0 45 1 39 23 -5 22 4 28 137 87 350 156 764 373 1086 568
l126 77 375 5 375 5 0 245 0 245 -157 3 c-87 1 -158 6 -158 10 0 4 9 70 20
147 10 77 27 219 37 315 17 166 18 415 18 4630 0 3677 -2 4465 -13 4510 -23
92 -106 248 -176 330 -164 191 -473 380 -819 501 -61 21 -68 26 -64 46 4 22 2
23 -69 23 -72 0 -74 1 -74 25 0 23 4 25 45 25 24 0 115 -9 202 -20z m-977
-105 l0 -75 180 0 180 0 0 -265 c0 -258 -1 -265 -20 -265 -25 0 -25 -12 -1
-83 l20 -57 -33 0 c-48 0 -177 -35 -233 -64 -63 -31 -119 -93 -133 -147 -22
-81 35 -171 142 -223 66 -32 159 -56 215 -56 l43 0 0 -265 c0 -258 -1 -265
-20 -265 -25 0 -25 -12 -1 -82 l19 -55 -73 -7 c-202 -18 -365 -103 -396 -205
-14 -46 -8 -74 23 -122 53 -78 210 -145 366 -156 l82 -6 0 -173 c0 -167 -1
-174 -20 -174 -25 0 -25 -16 0 -79 l20 -51 -178 -2 -177 -3 -3 -243 c-2 -239
-2 -244 18 -249 18 -5 7 -20 -77 -107 -217 -223 -309 -396 -368 -690 -34 -170
-45 -298 -45 -522 0 -187 -1 -194 -20 -194 -25 0 -25 2 5 -66 14 -31 25 -58
25 -59 0 -1 -27 -5 -60 -9 -117 -13 -225 -62 -287 -129 -67 -72 -67 -148 -2
-222 59 -66 187 -119 320 -131 l69 -7 0 -263 0 -264 -25 0 c-30 0 -31 -5 -5
-72 11 -29 20 -56 20 -60 0 -5 -35 -8 -77 -8 -166 -1 -399 -45 -518 -99 -69
-32 -130 -86 -137 -124 -17 -86 96 -168 300 -218 l93 -22 -33 -26 c-230 -178
-393 -399 -433 -586 -13 -60 -15 -310 -15 -1793 0 -1910 -4 -1790 66 -1960 67
-162 144 -270 318 -450 92 -94 117 -125 108 -134 -20 -20 -14 -26 41 -44 28
-9 55 -19 60 -21 7 -4 -57 -53 -70 -53 -3 0 -28 21 -56 47 -48 45 -51 46 -58
25 -5 -12 -13 -22 -18 -22 -19 0 -279 138 -361 191 -312 204 -484 427 -520
675 -13 92 -13 2917 0 3249 22 542 60 838 204 1573 109 552 153 852 176 1177
6 88 13 176 16 195 3 19 9 872 12 1895 l7 1860 28 80 c83 235 280 426 603 588
172 87 336 148 619 231 77 23 75 25 75 -59z m793 10 c51 -39 57 -41 57 -21 0
28 18 26 112 -8 496 -179 825 -439 936 -738 l27 -73 3 -4450 c3 -4852 6 -4583
-51 -4995 l-22 -155 -76 -3 -77 -3 -7 48 c-12 88 -15 94 -37 82 -11 -6 -21 -9
-23 -7 -7 8 -285 527 -285 532 0 3 50 6 110 6 l110 0 0 250 0 250 -254 0 -253
0 -7 32 c-3 18 -11 49 -16 70 -10 34 -13 37 -30 26 -10 -7 -21 -10 -24 -8 -2
3 -81 124 -176 270 l-171 265 100 3 101 3 0 249 0 250 -276 2 -277 3 -12 35
c-32 89 -35 93 -50 80 -8 -6 -19 -10 -25 -8 -5 1 -77 84 -159 183 l-149 180
79 3 79 3 0 244 0 245 -191 0 c-177 0 -190 1 -185 18 7 24 25 105 26 115 0 5
-10 7 -22 5 -17 -2 -24 3 -26 17 -1 11 -10 88 -20 171 l-17 150 140 12 c384
32 626 154 561 281 -53 102 -298 183 -599 198 -142 7 -134 0 -101 82 19 46 18
61 -6 61 -18 0 -20 7 -20 75 0 54 4 75 13 75 8 0 11 14 9 45 -2 25 -8 42 -13
39 -5 -3 -9 59 -9 145 l0 151 30 0 c17 0 65 7 107 16 179 37 293 128 293 235
0 66 -77 155 -167 190 l-28 11 55 25 c67 30 66 29 50 48 -16 20 -57 -19 362
343 l337 292 310 0 311 0 0 245 0 245 -239 0 -239 0 -5 23 c-3 12 -9 43 -12
70 -7 44 -9 47 -33 45 -24 -3 -33 10 -118 162 -51 91 -93 168 -93 173 -1 4 49
7 109 7 l110 0 0 250 0 250 -176 0 -175 0 7 23 c3 12 13 37 20 56 19 45 18 49
-8 53 -23 3 -23 4 -23 173 l0 170 76 7 c234 21 399 122 399 243 0 103 -112
186 -305 226 -49 10 -107 19 -127 19 -21 0 -38 3 -38 8 0 4 9 31 20 60 22 57
20 72 -11 72 -19 0 -19 8 -17 263 l3 262 65 7 c189 21 327 113 338 226 11 124
-113 224 -317 254 -42 6 -77 12 -79 13 -1 1 7 28 18 60 21 62 19 75 -11 75
-18 0 -19 7 -18 113 1 68 4 97 8 73 8 -54 28 -58 23 -5 -3 32 -1 40 9 37 9 -3
14 -19 14 -41 0 -26 4 -37 15 -37 12 0 14 10 12 45 -2 25 -8 43 -12 40 -14 -9
-40 6 -41 24 0 10 -2 11 -6 4 -2 -7 -9 -13 -14 -13 -6 0 -8 58 -7 143 l3 142
178 3 177 2 0 60 c0 33 4 60 9 60 4 0 29 -16 54 -35z m-256 -791 c111 -29 191
-87 219 -159 23 -61 12 -106 -36 -159 -78 -85 -226 -132 -385 -123 -199 12
-347 96 -362 207 -8 55 2 85 44 131 99 110 323 154 520 103z m28 -1161 c136
-29 253 -106 271 -178 33 -130 -154 -246 -421 -262 -274 -16 -515 91 -515 229
0 49 20 88 62 120 137 105 376 141 603 91z m155 -1183 l0 -230 -355 0 -355 0
0 230 0 230 355 0 355 0 0 -230z m-128 -434 c95 -175 102 -195 63 -196 -5 0
13 -22 40 -50 l49 -50 -112 0 -112 0 0 -244 0 -245 42 -3 41 -3 -328 -285
c-381 -330 -363 -316 -378 -301 -18 18 -25 13 -53 -36 -42 -74 -37 -71 -106
-57 -35 8 -89 14 -120 14 -32 0 -58 3 -58 8 0 4 7 32 15 62 19 71 19 70 -10
70 l-25 0 0 184 c0 206 11 340 40 499 56 296 161 495 377 714 l102 103 217 -2
217 -3 99 -179z m648 -541 l0 -235 -352 2 -353 3 -3 233 -2 232 355 0 355 0 0
-235z m-1517 -940 c136 -28 237 -90 269 -162 27 -61 18 -103 -34 -159 -127
-138 -454 -172 -662 -68 -93 47 -136 102 -136 177 0 155 300 268 563 212z m63
-1156 c309 -30 524 -122 524 -223 0 -49 -32 -82 -123 -125 -151 -72 -342 -104
-617 -104 -331 2 -600 67 -688 168 -75 84 -11 162 183 224 190 61 472 85 721
60z m-303 -465 c64 -4 117 -7 117 -8 0 -1 9 -75 20 -166 11 -91 20 -168 20
-172 0 -5 -9 -8 -20 -8 -26 0 -25 -7 5 -72 l25 -53 -165 -3 -165 -2 0 -245 0
-245 182 0 181 0 -6 -207 c-12 -363 -60 -736 -132 -1025 -45 -178 -62 -220
-118 -297 -66 -89 -82 -147 -82 -306 0 -284 89 -1151 189 -1838 l23 -157 -24
-6 -23 -6 30 -56 c16 -31 30 -59 30 -64 0 -4 -13 -8 -28 -8 -24 0 -72 -11
-157 -35 -15 -5 -24 2 -38 27 -10 18 -26 44 -36 58 -16 20 -21 22 -35 11 -14
-12 -22 -8 -61 23 -123 102 -285 309 -360 461 -96 196 -89 104 -92 1165 -3
800 -2 932 10 916 10 -14 20 -17 33 -12 18 8 18 9 -3 17 -31 11 -29 29 2 29
14 0 25 4 25 9 0 13 -29 35 -37 27 -3 -3 -1 -6 5 -6 7 0 12 -4 12 -10 0 -5 -7
-10 -15 -10 -8 0 -15 6 -15 13 0 8 -4 7 -10 -3 -14 -21 -13 1579 0 1651 36
188 180 395 400 571 l74 60 61 -6 c33 -3 113 -9 178 -12z m557 -729 l0 -235
-355 0 -355 0 0 228 c0 126 3 232 7 235 3 4 163 7 355 7 l348 0 0 -235z m-10
-437 c155 -186 159 -192 142 -211 -9 -11 -12 -22 -7 -24 6 -1 28 -14 50 -28
l40 -24 -72 -1 -73 0 0 -250 0 -250 165 0 c156 0 165 -1 165 -19 0 -41 -61
-379 -96 -529 -38 -166 -132 -463 -182 -573 -17 -38 -56 -94 -91 -135 -73 -81
-110 -155 -179 -354 -102 -296 -187 -692 -232 -1080 -19 -167 -16 -158 -55
-158 -42 0 -35 -23 -74 253 -67 464 -118 923 -146 1290 -9 116 -20 246 -25
290 -26 215 -3 347 83 473 57 83 77 136 122 323 70 295 125 759 125 1070 0 64
3 119 7 122 3 4 44 7 89 7 l84 0 160 -192z m800 -538 l0 -230 -355 0 -355 0 0
230 0 230 355 0 355 0 0 -230z m-34 -523 c96 -148 174 -272 174 -276 0 -5 -7
-14 -15 -21 -13 -11 -8 -18 32 -49 l46 -36 -94 -5 -94 -5 0 -245 0 -245 97 -3
97 -3 -183 -277 c-244 -371 -303 -466 -414 -672 -52 -96 -119 -220 -149 -275
-91 -165 -235 -372 -334 -479 -38 -41 -50 -49 -60 -38 -7 6 -15 12 -19 12 -3
0 -16 -27 -30 -61 -24 -58 -26 -60 -55 -54 -16 4 -54 10 -82 14 -29 4 -55 10
-58 13 -3 3 5 30 19 61 25 58 25 67 -5 67 -14 0 -17 7 -14 33 3 17 12 91 20
162 50 406 140 808 246 1097 59 161 93 225 153 288 62 64 82 101 141 254 92
240 183 610 226 924 l13 93 84 -3 85 -3 173 -268z m764 -637 l0 -230 -355 0
-355 0 0 230 0 230 355 0 355 0 0 -230z m-83 -524 c136 -252 145 -270 127
-283 -17 -12 -15 -16 26 -58 l43 -44 -109 -3 -109 -3 -3 -242 -2 -241 -188
-110 c-262 -153 -453 -257 -649 -355 -184 -92 -532 -251 -537 -246 -2 2 -7 12
-13 22 -9 16 -15 14 -62 -29 l-52 -47 -49 24 c-27 13 -49 27 -50 30 0 4 12 12
28 18 15 6 38 20 52 30 20 16 22 22 11 34 -10 13 1 32 71 119 156 192 233 314
393 617 134 255 194 353 478 784 l170 258 139 -3 139 -3 146 -269z m693 -636
l0 -230 -350 0 -350 0 0 230 0 230 350 0 350 0 0 -230z m960 0 l0 -230 -350 0
-350 0 0 230 0 230 350 0 350 0 0 -230z m-542 -282 c-42 -60 -229 -247 -302
-302 -91 -70 -180 -120 -336 -188 -449 -198 -980 -311 -1703 -362 -76 -6 -78
-5 -75 16 3 20 15 24 153 45 723 110 1336 289 1699 494 111 63 316 199 411
273 64 49 75 54 123 55 l53 1 -23 -32z m-2761 -679 c78 -28 152 -83 176 -129
26 -51 18 -120 -20 -168 -36 -45 -156 -108 -232 -122 -181 -33 -381 11 -475
105 -119 119 -29 274 192 330 88 22 279 14 359 -16z m-2849 -950 c302 -32 510
-134 487 -238 -18 -85 -197 -167 -437 -202 -46 -6 -159 -12 -253 -11 -250 0
-435 34 -568 105 -185 98 -128 225 135 301 71 20 162 36 283 50 70 7 263 5
353 -5z"/>
<path d="M290 3295 l0 -3225 6980 0 6980 0 0 3225 0 3225 -6980 0 -6980 0 0
-3225z m1320 3085 l0 -130 -650 0 -650 0 0 130 0 130 650 0 650 0 0 -130z
m12630 0 l0 -130 -6305 0 -6305 0 0 130 0 130 6305 0 6305 0 0 -130z m-12630
-280 l0 -130 -650 0 -650 0 0 130 0 130 650 0 650 0 0 -130z m1390 0 l0 -130
-685 0 -685 0 0 130 0 130 685 0 685 0 0 -130z m1160 0 l0 -130 -570 0 -570 0
0 130 0 130 570 0 570 0 0 -130z m1370 0 l0 -130 -675 0 -675 0 0 130 0 130
675 0 675 0 0 -130z m1150 0 l0 -130 -565 0 -565 0 0 130 0 130 565 0 565 0 0
-130z m800 0 l0 -130 -390 0 -390 0 0 130 0 130 390 0 390 0 0 -130z m780 0
l0 -130 -380 0 -380 0 0 130 0 130 380 0 380 0 0 -130z m620 0 l0 -130 -300 0
-300 0 0 130 0 130 300 0 300 0 0 -130z m610 0 l0 -130 -295 0 -295 0 0 130 0
130 295 0 295 0 0 -130z m530 0 l0 -130 -255 0 -255 0 0 130 0 130 255 0 255
0 0 -130z m620 0 l0 -130 -300 0 -300 0 0 130 0 130 300 0 300 0 0 -130z m610
0 l0 -130 -295 0 -295 0 0 130 0 130 295 0 295 0 0 -130z m610 0 l0 -130 -295
0 -295 0 0 130 0 130 295 0 295 0 0 -130z m540 0 l0 -130 -260 0 -260 0 0 130
0 130 260 0 260 0 0 -130z m610 0 l0 -130 -295 0 -295 0 0 130 0 130 295 0
295 0 0 -130z m610 0 l0 -130 -295 0 -295 0 0 130 0 130 295 0 295 0 0 -130z
m620 0 l0 -130 -300 0 -300 0 0 130 0 130 300 0 300 0 0 -130z m-12630 -280
l0 -130 -650 0 -650 0 0 130 0 130 650 0 650 0 0 -130z m1390 0 l0 -130 -685
0 -685 0 0 130 0 130 685 0 685 0 0 -130z m1160 0 l0 -130 -570 0 -570 0 0
130 0 130 570 0 570 0 0 -130z m1370 0 l0 -130 -675 0 -675 0 0 130 0 130 675
0 675 0 0 -130z m1150 0 l0 -130 -565 0 -565 0 0 130 0 130 565 0 565 0 0
-130z m800 0 l0 -130 -390 0 -390 0 0 130 0 130 390 0 390 0 0 -130z m780 0
l0 -130 -380 0 -380 0 0 130 0 130 380 0 380 0 0 -130z m620 0 l0 -130 -300 0
-300 0 0 130 0 130 300 0 300 0 0 -130z m610 0 l0 -130 -295 0 -295 0 0 130 0
130 295 0 295 0 0 -130z m530 0 l0 -130 -255 0 -255 0 0 130 0 130 255 0 255
0 0 -130z m620 0 l0 -130 -300 0 -300 0 0 130 0 130 300 0 300 0 0 -130z m610
0 l0 -130 -295 0 -295 0 0 130 0 130 295 0 295 0 0 -130z m610 0 l0 -130 -295
0 -295 0 0 130 0 130 295 0 295 0 0 -130z m540 0 l0 -130 -260 0 -260 0 0 130
0 130 260 0 260 0 0 -130z m610 0 l0 -130 -295 0 -295 0 0 130 0 130 295 0
295 0 0 -130z m610 0 l0 -130 -295 0 -295 0 0 130 0 130 295 0 295 0 0 -130z
m620 0 l0 -130 -300 0 -300 0 0 130 0 130 300 0 300 0 0 -130z m-12630 -280
l0 -130 -650 0 -650 0 0 130 0 130 650 0 650 0 0 -130z m1390 0 l0 -130 -685
0 -685 0 0 130 0 130 685 0 685 0 0 -130z m1160 0 l0 -130 -570 0 -570 0 0
130 0 130 570 0 570 0 0 -130z m1370 0 l0 -130 -675 0 -675 0 0 130 0 130 675
0 675 0 0 -130z m1150 0 l0 -130 -565 0 -565 0 0 130 0 130 565 0 565 0 0
-130z m800 0 l0 -130 -390 0 -390 0 0 130 0 130 390 0 390 0 0 -130z m780 0
l0 -130 -380 0 -380 0 0 130 0 130 380 0 380 0 0 -130z m620 0 l0 -130 -300 0
-300 0 0 130 0 130 300 0 300 0 0 -130z m610 0 l0 -130 -295 0 -295 0 0 130 0
130 295 0 295 0 0 -130z m530 0 l0 -130 -255 0 -255 0 0 130 0 130 255 0 255
0 0 -130z m620 0 l0 -130 -300 0 -300 0 0 130 0 130 300 0 300 0 0 -130z m610
0 l0 -130 -295 0 -295 0 0 130 0 130 295 0 295 0 0 -130z m610 0 l0 -130 -295
0 -295 0 0 130 0 130 295 0 295 0 0 -130z m540 0 l0 -130 -260 0 -260 0 0 130
0 130 260 0 260 0 0 -130z m610 0 l0 -130 -295 0 -295 0 0 130 0 130 295 0
295 0 0 -130z m610 0 l0 -130 -295 0 -295 0 0 130 0 130 295 0 295 0 0 -130z
m620 0 l0 -130 -300 0 -300 0 0 130 0 130 300 0 300 0 0 -130z m-12630 -280
l0 -130 -650 0 -650 0 0 130 0 130 650 0 650 0 0 -130z m1390 0 l0 -130 -685
0 -685 0 0 130 0 130 685 0 685 0 0 -130z m1160 0 l0 -130 -570 0 -570 0 0
130 0 130 570 0 570 0 0 -130z m1370 0 l0 -130 -675 0 -675 0 0 130 0 130 675
0 675 0 0 -130z m1150 0 l0 -130 -565 0 -565 0 0 130 0 130 565 0 565 0 0
-130z m800 0 l0 -130 -390 0 -390 0 0 130 0 130 390 0 390 0 0 -130z m780 0
l0 -130 -380 0 -380 0 0 130 0 130 380 0 380 0 0 -130z m620 0 l0 -130 -300 0
-300 0 0 130 0 130 300 0 300 0 0 -130z m610 0 l0 -130 -295 0 -295 0 0 130 0
130 295 0 295 0 0 -130z m530 0 l0 -130 -255 0 -255 0 0 130 0 130 255 0 255
0 0 -130z m620 0 l0 -130 -300 0 -300 0 0 130 0 130 300 0 300 0 0 -130z m610
0 l0 -130 -295 0 -295 0 0 130 0 130 295 0 295 0 0 -130z m610 0 l0 -130 -295
0 -295 0 0 130 0 130 295 0 295 0 0 -130z m540 0 l0 -130 -260 0 -260 0 0 130
0 130 260 0 260 0 0 -130z m610 0 l0 -130 -295 0 -295 0 0 130 0 130 295 0
295 0 0 -130z m610 0 l0 -130 -295 0 -295 0 0 130 0 130 295 0 295 0 0 -130z
m620 0 l0 -130 -300 0 -300 0 0 130 0 130 300 0 300 0 0 -130z m-12630 -280
l0 -130 -650 0 -650 0 0 130 0 130 650 0 650 0 0 -130z m1390 0 l0 -130 -685
0 -685 0 0 130 0 130 685 0 685 0 0 -130z m1160 0 l0 -130 -570 0 -570 0 0
130 0 130 570 0 570 0 0 -130z m1370 0 l0 -130 -675 0 -675 0 0 130 0 130 675
0 675 0 0 -130z m1150 0 l0 -130 -565 0 -565 0 0 130 0 130 565 0 565 0 0
-130z m800 0 l0 -130 -390 0 -390 0 0 130 0 130 390 0 390 0 0 -130z m780 0
l0 -130 -380 0 -380 0 0 130 0 130 380 0 380 0 0 -130z m620 0 l0 -130 -300 0
-300 0 0 130 0 130 300 0 300 0 0 -130z m610 0 l0 -130 -295 0 -295 0 0 130 0
130 295 0 295 0 0 -130z m530 0 l0 -130 -255 0 -255 0 0 130 0 130 255 0 255
0 0 -130z m620 0 l0 -130 -300 0 -300 0 0 130 0 130 300 0 300 0 0 -130z m610
0 l0 -130 -295 0 -295 0 0 130 0 130 295 0 295 0 0 -130z m610 0 l0 -130 -295
0 -295 0 0 130 0 130 295 0 295 0 0 -130z m540 0 l0 -130 -260 0 -260 0 0 130
0 130 260 0 260 0 0 -130z m610 0 l0 -130 -295 0 -295 0 0 130 0 130 295 0
295 0 0 -130z m610 0 l0 -130 -295 0 -295 0 0 130 0 130 295 0 295 0 0 -130z
m620 0 l0 -130 -300 0 -300 0 0 130 0 130 300 0 300 0 0 -130z m-12630 -280
l0 -130 -650 0 -650 0 0 130 0 130 650 0 650 0 0 -130z m1390 0 l0 -130 -685
0 -685 0 0 130 0 130 685 0 685 0 0 -130z m1160 0 l0 -130 -570 0 -570 0 0
130 0 130 570 0 570 0 0 -130z m1370 0 l0 -130 -675 0 -675 0 0 130 0 130 675
0 675 0 0 -130z m1150 0 l0 -130 -565 0 -565 0 0 130 0 130 565 0 565 0 0
-130z m800 0 l0 -130 -390 0 -390 0 0 130 0 130 390 0 390 0 0 -130z m780 0
l0 -130 -380 0 -380 0 0 130 0 130 380 0 380 0 0 -130z m620 0 l0 -130 -300 0
-300 0 0 130 0 130 300 0 300 0 0 -130z m610 0 l0 -130 -295 0 -295 0 0 130 0
130 295 0 295 0 0 -130z m530 0 l0 -130 -255 0 -255 0 0 130 0 130 255 0 255
0 0 -130z m620 0 l0 -130 -300 0 -300 0 0 130 0 130 300 0 300 0 0 -130z m610
0 l0 -130 -295 0 -295 0 0 130 0 130 295 0 295 0 0 -130z m610 0 l0 -130 -295
0 -295 0 0 130 0 130 295 0 295 0 0 -130z m540 0 l0 -130 -260 0 -260 0 0 130
0 130 260 0 260 0 0 -130z m610 0 l0 -130 -295 0 -295 0 0 130 0 130 295 0
295 0 0 -130z m610 0 l0 -130 -295 0 -295 0 0 130 0 130 295 0 295 0 0 -130z
m620 0 l0 -130 -300 0 -300 0 0 130 0 130 300 0 300 0 0 -130z m-12630 -280
l0 -130 -650 0 -650 0 0 130 0 130 650 0 650 0 0 -130z m1390 0 l0 -130 -685
0 -685 0 0 130 0 130 685 0 685 0 0 -130z m1160 0 l0 -130 -570 0 -570 0 0
130 0 130 570 0 570 0 0 -130z m1370 0 l0 -130 -675 0 -675 0 0 130 0 130 675
0 675 0 0 -130z m1150 0 l0 -130 -565 0 -565 0 0 130 0 130 565 0 565 0 0
-130z m800 0 l0 -130 -390 0 -390 0 0 130 0 130 390 0 390 0 0 -130z m780 0
l0 -130 -380 0 -380 0 0 130 0 130 380 0 380 0 0 -130z m620 0 l0 -130 -300 0
-300 0 0 130 0 130 300 0 300 0 0 -130z m610 0 l0 -130 -295 0 -295 0 0 130 0
130 295 0 295 0 0 -130z m530 0 l0 -130 -255 0 -255 0 0 130 0 130 255 0 255
0 0 -130z m620 0 l0 -130 -300 0 -300 0 0 130 0 130 300 0 300 0 0 -130z m610
0 l0 -130 -295 0 -295 0 0 130 0 130 295 0 295 0 0 -130z m610 0 l0 -130 -295
0 -295 0 0 130 0 130 295 0 295 0 0 -130z m540 0 l0 -130 -260 0 -260 0 0 130
0 130 260 0 260 0 0 -130z m610 0 l0 -130 -295 0 -295 0 0 130 0 130 295 0
295 0 0 -130z m610 0 l0 -130 -295 0 -295 0 0 130 0 130 295 0 295 0 0 -130z
m620 0 l0 -130 -300 0 -300 0 0 130 0 130 300 0 300 0 0 -130z m-12630 -280
l0 -130 -650 0 -650 0 0 130 0 130 650 0 650 0 0 -130z m1390 0 l0 -130 -685
0 -685 0 0 130 0 130 685 0 685 0 0 -130z m1160 0 l0 -130 -570 0 -570 0 0
130 0 130 570 0 570 0 0 -130z m1370 0 l0 -130 -675 0 -675 0 0 130 0 130 675
0 675 0 0 -130z m1150 0 l0 -130 -565 0 -565 0 0 130 0 130 565 0 565 0 0
-130z m800 0 l0 -130 -390 0 -390 0 0 130 0 130 390 0 390 0 0 -130z m780 0
l0 -130 -380 0 -380 0 0 130 0 130 380 0 380 0 0 -130z m620 0 l0 -130 -300 0
-300 0 0 130 0 130 300 0 300 0 0 -130z m610 0 l0 -130 -295 0 -295 0 0 130 0
130 295 0 295 0 0 -130z m530 0 l0 -130 -255 0 -255 0 0 130 0 130 255 0 255
0 0 -130z m620 0 l0 -130 -300 0 -300 0 0 130 0 130 300 0 300 0 0 -130z m610
0 l0 -130 -295 0 -295 0 0 130 0 130 295 0 295 0 0 -130z m610 0 l0 -130 -295
0 -295 0 0 130 0 130 295 0 295 0 0 -130z m540 0 l0 -130 -260 0 -260 0 0 130
0 130 260 0 260 0 0 -130z m610 0 l0 -130 -295 0 -295 0 0 130 0 130 295 0
295 0 0 -130z m610 0 l0 -130 -295 0 -295 0 0 130 0 130 295 0 295 0 0 -130z
m620 0 l0 -130 -300 0 -300 0 0 130 0 130 300 0 300 0 0 -130z m-12630 -280
l0 -130 -650 0 -650 0 0 130 0 130 650 0 650 0 0 -130z m1390 0 l0 -130 -685
0 -685 0 0 130 0 130 685 0 685 0 0 -130z m1160 0 l0 -130 -570 0 -570 0 0
130 0 130 570 0 570 0 0 -130z m1370 0 l0 -130 -675 0 -675 0 0 130 0 130 675
0 675 0 0 -130z m1150 0 l0 -130 -565 0 -565 0 0 130 0 130 565 0 565 0 0
-130z m800 0 l0 -130 -390 0 -390 0 0 130 0 130 390 0 390 0 0 -130z m780 0
l0 -130 -380 0 -380 0 0 130 0 130 380 0 380 0 0 -130z m620 0 l0 -130 -300 0
-300 0 0 130 0 130 300 0 300 0 0 -130z m610 0 l0 -130 -295 0 -295 0 0 130 0
130 295 0 295 0 0 -130z m530 0 l0 -130 -255 0 -255 0 0 130 0 130 255 0 255
0 0 -130z m620 0 l0 -130 -300 0 -300 0 0 130 0 130 300 0 300 0 0 -130z m610
0 l0 -130 -295 0 -295 0 0 130 0 130 295 0 295 0 0 -130z m610 0 l0 -130 -295
0 -295 0 0 130 0 130 295 0 295 0 0 -130z m540 0 l0 -130 -260 0 -260 0 0 130
0 130 260 0 260 0 0 -130z m610 0 l0 -130 -295 0 -295 0 0 130 0 130 295 0
295 0 0 -130z m610 0 l0 -130 -295 0 -295 0 0 130 0 130 295 0 295 0 0 -130z
m620 0 l0 -130 -300 0 -300 0 0 130 0 130 300 0 300 0 0 -130z m-12630 -280
l0 -130 -650 0 -650 0 0 130 0 130 650 0 650 0 0 -130z m1390 0 l0 -130 -685
0 -685 0 0 130 0 130 685 0 685 0 0 -130z m1160 0 l0 -130 -570 0 -570 0 0
130 0 130 570 0 570 0 0 -130z m1370 0 l0 -130 -675 0 -675 0 0 130 0 130 675
0 675 0 0 -130z m1150 0 l0 -130 -565 0 -565 0 0 130 0 130 565 0 565 0 0
-130z m800 0 l0 -130 -390 0 -390 0 0 130 0 130 390 0 390 0 0 -130z m780 0
l0 -130 -380 0 -380 0 0 130 0 130 380 0 380 0 0 -130z m620 0 l0 -130 -300 0
-300 0 0 130 0 130 300 0 300 0 0 -130z m610 0 l0 -130 -295 0 -295 0 0 130 0
130 295 0 295 0 0 -130z m530 0 l0 -130 -255 0 -255 0 0 130 0 130 255 0 255
0 0 -130z m620 0 l0 -130 -300 0 -300 0 0 130 0 130 300 0 300 0 0 -130z m610
0 l0 -130 -295 0 -295 0 0 130 0 130 295 0 295 0 0 -130z m610 0 l0 -130 -295
0 -295 0 0 130 0 130 295 0 295 0 0 -130z m540 0 l0 -130 -260 0 -260 0 0 130
0 130 260 0 260 0 0 -130z m610 0 l0 -130 -295 0 -295 0 0 130 0 130 295 0
295 0 0 -130z m610 0 l0 -130 -295 0 -295 0 0 130 0 130 295 0 295 0 0 -130z
m620 0 l0 -130 -300 0 -300 0 0 130 0 130 300 0 300 0 0 -130z m-12630 -280
l0 -130 -650 0 -650 0 0 130 0 130 650 0 650 0 0 -130z m1390 0 l0 -130 -685
0 -685 0 0 130 0 130 685 0 685 0 0 -130z m1160 0 l0 -130 -570 0 -570 0 0
130 0 130 570 0 570 0 0 -130z m1370 0 l0 -130 -675 0 -675 0 0 130 0 130 675
0 675 0 0 -130z m1150 0 l0 -130 -565 0 -565 0 0 130 0 130 565 0 565 0 0
-130z m800 0 l0 -130 -390 0 -390 0 0 130 0 130 390 0 390 0 0 -130z m780 0
l0 -130 -380 0 -380 0 0 130 0 130 380 0 380 0 0 -130z m620 0 l0 -130 -300 0
-300 0 0 130 0 130 300 0 300 0 0 -130z m610 0 l0 -130 -295 0 -295 0 0 130 0
130 295 0 295 0 0 -130z m530 0 l0 -130 -255 0 -255 0 0 130 0 130 255 0 255
0 0 -130z m620 0 l0 -130 -300 0 -300 0 0 130 0 130 300 0 300 0 0 -130z m610
0 l0 -130 -295 0 -295 0 0 130 0 130 295 0 295 0 0 -130z m610 0 l0 -130 -295
0 -295 0 0 130 0 130 295 0 295 0 0 -130z m540 0 l0 -130 -260 0 -260 0 0 130
0 130 260 0 260 0 0 -130z m610 0 l0 -130 -295 0 -295 0 0 130 0 130 295 0
295 0 0 -130z m610 0 l0 -130 -295 0 -295 0 0 130 0 130 295 0 295 0 0 -130z
m620 0 l0 -130 -300 0 -300 0 0 130 0 130 300 0 300 0 0 -130z m-12630 -280
l0 -130 -650 0 -650 0 0 130 0 130 650 0 650 0 0 -130z m1390 0 l0 -130 -685
0 -685 0 0 130 0 130 685 0 685 0 0 -130z m1160 0 l0 -130 -570 0 -570 0 0
130 0 130 570 0 570 0 0 -130z m1370 0 l0 -130 -675 0 -675 0 0 130 0 130 675
0 675 0 0 -130z m1150 0 l0 -130 -565 0 -565 0 0 130 0 130 565 0 565 0 0
-130z m800 0 l0 -130 -390 0 -390 0 0 130 0 130 390 0 390 0 0 -130z m780 0
l0 -130 -380 0 -380 0 0 130 0 130 380 0 380 0 0 -130z m620 0 l0 -130 -300 0
-300 0 0 130 0 130 300 0 300 0 0 -130z m610 0 l0 -130 -295 0 -295 0 0 130 0
130 295 0 295 0 0 -130z m530 0 l0 -130 -255 0 -255 0 0 130 0 130 255 0 255
0 0 -130z m620 0 l0 -130 -300 0 -300 0 0 130 0 130 300 0 300 0 0 -130z m610
0 l0 -130 -295 0 -295 0 0 130 0 130 295 0 295 0 0 -130z m610 0 l0 -130 -295
0 -295 0 0 130 0 130 295 0 295 0 0 -130z m540 0 l0 -130 -260 0 -260 0 0 130
0 130 260 0 260 0 0 -130z m610 0 l0 -130 -295 0 -295 0 0 130 0 130 295 0
295 0 0 -130z m610 0 l0 -130 -295 0 -295 0 0 130 0 130 295 0 295 0 0 -130z
m620 0 l0 -130 -300 0 -300 0 0 130 0 130 300 0 300 0 0 -130z m-12630 -280
l0 -130 -650 0 -650 0 0 130 0 130 650 0 650 0 0 -130z m1390 0 l0 -130 -685
0 -685 0 0 130 0 130 685 0 685 0 0 -130z m1160 0 l0 -130 -570 0 -570 0 0
130 0 130 570 0 570 0 0 -130z m1370 0 l0 -130 -675 0 -675 0 0 130 0 130 675
0 675 0 0 -130z m1150 0 l0 -130 -565 0 -565 0 0 130 0 130 565 0 565 0 0
-130z m800 0 l0 -130 -390 0 -390 0 0 130 0 130 390 0 390 0 0 -130z m780 0
l0 -130 -380 0 -380 0 0 130 0 130 380 0 380 0 0 -130z m620 0 l0 -130 -300 0
-300 0 0 130 0 130 300 0 300 0 0 -130z m610 0 l0 -130 -295 0 -295 0 0 130 0
130 295 0 295 0 0 -130z m530 0 l0 -130 -255 0 -255 0 0 130 0 130 255 0 255
0 0 -130z m620 0 l0 -130 -300 0 -300 0 0 130 0 130 300 0 300 0 0 -130z m610
0 l0 -130 -295 0 -295 0 0 130 0 130 295 0 295 0 0 -130z m610 0 l0 -130 -295
0 -295 0 0 130 0 130 295 0 295 0 0 -130z m540 0 l0 -130 -260 0 -260 0 0 130
0 130 260 0 260 0 0 -130z m610 0 l0 -130 -295 0 -295 0 0 130 0 130 295 0
295 0 0 -130z m610 0 l0 -130 -295 0 -295 0 0 130 0 130 295 0 295 0 0 -130z
m620 0 l0 -130 -300 0 -300 0 0 130 0 130 300 0 300 0 0 -130z m-12630 -280
l0 -130 -650 0 -650 0 0 130 0 130 650 0 650 0 0 -130z m1390 0 l0 -130 -685
0 -685 0 0 130 0 130 685 0 685 0 0 -130z m1160 0 l0 -130 -570 0 -570 0 0
130 0 130 570 0 570 0 0 -130z m1370 0 l0 -130 -675 0 -675 0 0 130 0 130 675
0 675 0 0 -130z m1150 0 l0 -130 -565 0 -565 0 0 130 0 130 565 0 565 0 0
-130z m800 0 l0 -130 -390 0 -390 0 0 130 0 130 390 0 390 0 0 -130z m780 0
l0 -130 -380 0 -380 0 0 130 0 130 380 0 380 0 0 -130z m620 0 l0 -130 -300 0
-300 0 0 130 0 130 300 0 300 0 0 -130z m610 0 l0 -130 -295 0 -295 0 0 130 0
130 295 0 295 0 0 -130z m530 0 l0 -130 -255 0 -255 0 0 130 0 130 255 0 255
0 0 -130z m620 0 l0 -130 -300 0 -300 0 0 130 0 130 300 0 300 0 0 -130z m610
0 l0 -130 -295 0 -295 0 0 130 0 130 295 0 295 0 0 -130z m610 0 l0 -130 -295
0 -295 0 0 130 0 130 295 0 295 0 0 -130z m540 0 l0 -130 -260 0 -260 0 0 130
0 130 260 0 260 0 0 -130z m610 0 l0 -130 -295 0 -295 0 0 130 0 130 295 0
295 0 0 -130z m610 0 l0 -130 -295 0 -295 0 0 130 0 130 295 0 295 0 0 -130z
m620 0 l0 -130 -300 0 -300 0 0 130 0 130 300 0 300 0 0 -130z m-12630 -280
l0 -130 -650 0 -650 0 0 130 0 130 650 0 650 0 0 -130z m1390 0 l0 -130 -685
0 -685 0 0 130 0 130 685 0 685 0 0 -130z m1160 0 l0 -130 -570 0 -570 0 0
130 0 130 570 0 570 0 0 -130z m1370 0 l0 -130 -675 0 -675 0 0 130 0 130 675
0 675 0 0 -130z m1150 0 l0 -130 -565 0 -565 0 0 130 0 130 565 0 565 0 0
-130z m800 0 l0 -130 -390 0 -390 0 0 130 0 130 390 0 390 0 0 -130z m780 0
l0 -130 -380 0 -380 0 0 130 0 130 380 0 380 0 0 -130z m620 0 l0 -130 -300 0
-300 0 0 130 0 130 300 0 300 0 0 -130z m610 0 l0 -130 -295 0 -295 0 0 130 0
130 295 0 295 0 0 -130z m530 0 l0 -130 -255 0 -255 0 0 130 0 130 255 0 255
0 0 -130z m620 0 l0 -130 -300 0 -300 0 0 130 0 130 300 0 300 0 0 -130z m610
0 l0 -130 -295 0 -295 0 0 130 0 130 295 0 295 0 0 -130z m610 0 l0 -130 -295
0 -295 0 0 130 0 130 295 0 295 0 0 -130z m540 0 l0 -130 -260 0 -260 0 0 130
0 130 260 0 260 0 0 -130z m610 0 l0 -130 -295 0 -295 0 0 130 0 130 295 0
295 0 0 -130z m610 0 l0 -130 -295 0 -295 0 0 130 0 130 295 0 295 0 0 -130z
m620 0 l0 -130 -300 0 -300 0 0 130 0 130 300 0 300 0 0 -130z m-12630 -280
l0 -130 -650 0 -650 0 0 130 0 130 650 0 650 0 0 -130z m1390 0 l0 -130 -685
0 -685 0 0 130 0 130 685 0 685 0 0 -130z m1160 0 l0 -130 -570 0 -570 0 0
130 0 130 570 0 570 0 0 -130z m1370 0 l0 -130 -675 0 -675 0 0 130 0 130 675
0 675 0 0 -130z m1150 0 l0 -130 -565 0 -565 0 0 130 0 130 565 0 565 0 0
-130z m800 0 l0 -130 -390 0 -390 0 0 130 0 130 390 0 390 0 0 -130z m780 0
l0 -130 -380 0 -380 0 0 130 0 130 380 0 380 0 0 -130z m620 0 l0 -130 -300 0
-300 0 0 130 0 130 300 0 300 0 0 -130z m610 0 l0 -130 -295 0 -295 0 0 130 0
130 295 0 295 0 0 -130z m530 0 l0 -130 -255 0 -255 0 0 130 0 130 255 0 255
0 0 -130z m620 0 l0 -130 -300 0 -300 0 0 130 0 130 300 0 300 0 0 -130z m610
0 l0 -130 -295 0 -295 0 0 130 0 130 295 0 295 0 0 -130z m610 0 l0 -130 -295
0 -295 0 0 130 0 130 295 0 295 0 0 -130z m540 0 l0 -130 -260 0 -260 0 0 130
0 130 260 0 260 0 0 -130z m610 0 l0 -130 -295 0 -295 0 0 130 0 130 295 0
295 0 0 -130z m610 0 l0 -130 -295 0 -295 0 0 130 0 130 295 0 295 0 0 -130z
m620 0 l0 -130 -300 0 -300 0 0 130 0 130 300 0 300 0 0 -130z m-12630 -280
l0 -130 -650 0 -650 0 0 130 0 130 650 0 650 0 0 -130z m1390 0 l0 -130 -685
0 -685 0 0 130 0 130 685 0 685 0 0 -130z m1160 0 l0 -130 -570 0 -570 0 0
130 0 130 570 0 570 0 0 -130z m1370 0 l0 -130 -675 0 -675 0 0 130 0 130 675
0 675 0 0 -130z m1150 0 l0 -130 -565 0 -565 0 0 130 0 130 565 0 565 0 0
-130z m800 0 l0 -130 -390 0 -390 0 0 130 0 130 390 0 390 0 0 -130z m780 0
l0 -130 -380 0 -380 0 0 130 0 130 380 0 380 0 0 -130z m620 0 l0 -130 -300 0
-300 0 0 130 0 130 300 0 300 0 0 -130z m610 0 l0 -130 -295 0 -295 0 0 130 0
130 295 0 295 0 0 -130z m530 0 l0 -130 -255 0 -255 0 0 130 0 130 255 0 255
0 0 -130z m620 0 l0 -130 -300 0 -300 0 0 130 0 130 300 0 300 0 0 -130z m610
0 l0 -130 -295 0 -295 0 0 130 0 130 295 0 295 0 0 -130z m610 0 l0 -130 -295
0 -295 0 0 130 0 130 295 0 295 0 0 -130z m540 0 l0 -130 -260 0 -260 0 0 130
0 130 260 0 260 0 0 -130z m610 0 l0 -130 -295 0 -295 0 0 130 0 130 295 0
295 0 0 -130z m610 0 l0 -130 -295 0 -295 0 0 130 0 130 295 0 295 0 0 -130z
m620 0 l0 -130 -300 0 -300 0 0 130 0 130 300 0 300 0 0 -130z m-12630 -280
l0 -130 -650 0 -650 0 0 130 0 130 650 0 650 0 0 -130z m1390 0 l0 -130 -685
0 -685 0 0 130 0 130 685 0 685 0 0 -130z m1160 0 l0 -130 -570 0 -570 0 0
130 0 130 570 0 570 0 0 -130z m1370 0 l0 -130 -675 0 -675 0 0 130 0 130 675
0 675 0 0 -130z m1150 0 l0 -130 -565 0 -565 0 0 130 0 130 565 0 565 0 0
-130z m800 0 l0 -130 -390 0 -390 0 0 130 0 130 390 0 390 0 0 -130z m780 0
l0 -130 -380 0 -380 0 0 130 0 130 380 0 380 0 0 -130z m620 0 l0 -130 -300 0
-300 0 0 130 0 130 300 0 300 0 0 -130z m610 0 l0 -130 -295 0 -295 0 0 130 0
130 295 0 295 0 0 -130z m530 0 l0 -130 -255 0 -255 0 0 130 0 130 255 0 255
0 0 -130z m620 0 l0 -130 -300 0 -300 0 0 130 0 130 300 0 300 0 0 -130z m610
0 l0 -130 -295 0 -295 0 0 130 0 130 295 0 295 0 0 -130z m610 0 l0 -130 -295
0 -295 0 0 130 0 130 295 0 295 0 0 -130z m540 0 l0 -130 -260 0 -260 0 0 130
0 130 260 0 260 0 0 -130z m610 0 l0 -130 -295 0 -295 0 0 130 0 130 295 0
295 0 0 -130z m610 0 l0 -130 -295 0 -295 0 0 130 0 130 295 0 295 0 0 -130z
m620 0 l0 -130 -300 0 -300 0 0 130 0 130 300 0 300 0 0 -130z m-12630 -280
l0 -130 -650 0 -650 0 0 130 0 130 650 0 650 0 0 -130z m1390 0 l0 -130 -685
0 -685 0 0 130 0 130 685 0 685 0 0 -130z m1160 0 l0 -130 -570 0 -570 0 0
130 0 130 570 0 570 0 0 -130z m1370 0 l0 -130 -675 0 -675 0 0 130 0 130 675
0 675 0 0 -130z m1150 0 l0 -130 -565 0 -565 0 0 130 0 130 565 0 565 0 0
-130z m800 0 l0 -130 -390 0 -390 0 0 130 0 130 390 0 390 0 0 -130z m780 0
l0 -130 -380 0 -380 0 0 130 0 130 380 0 380 0 0 -130z m620 0 l0 -130 -300 0
-300 0 0 130 0 130 300 0 300 0 0 -130z m610 0 l0 -130 -295 0 -295 0 0 130 0
130 295 0 295 0 0 -130z m530 0 l0 -130 -255 0 -255 0 0 130 0 130 255 0 255
0 0 -130z m620 0 l0 -130 -300 0 -300 0 0 130 0 130 300 0 300 0 0 -130z m610
0 l0 -130 -295 0 -295 0 0 130 0 130 295 0 295 0 0 -130z m610 0 l0 -130 -295
0 -295 0 0 130 0 130 295 0 295 0 0 -130z m540 0 l0 -130 -260 0 -260 0 0 130
0 130 260 0 260 0 0 -130z m610 0 l0 -130 -295 0 -295 0 0 130 0 130 295 0
295 0 0 -130z m610 0 l0 -130 -295 0 -295 0 0 130 0 130 295 0 295 0 0 -130z
m620 0 l0 -130 -300 0 -300 0 0 130 0 130 300 0 300 0 0 -130z m-12630 -280
l0 -130 -650 0 -650 0 0 130 0 130 650 0 650 0 0 -130z m1390 0 l0 -130 -685
0 -685 0 0 130 0 130 685 0 685 0 0 -130z m1160 0 l0 -130 -570 0 -570 0 0
130 0 130 570 0 570 0 0 -130z m1370 0 l0 -130 -675 0 -675 0 0 130 0 130 675
0 675 0 0 -130z m1150 0 l0 -130 -565 0 -565 0 0 130 0 130 565 0 565 0 0
-130z m800 0 l0 -130 -390 0 -390 0 0 130 0 130 390 0 390 0 0 -130z m780 0
l0 -130 -380 0 -380 0 0 130 0 130 380 0 380 0 0 -130z m620 0 l0 -130 -300 0
-300 0 0 130 0 130 300 0 300 0 0 -130z m610 0 l0 -130 -295 0 -295 0 0 130 0
130 295 0 295 0 0 -130z m530 0 l0 -130 -255 0 -255 0 0 130 0 130 255 0 255
0 0 -130z m620 0 l0 -130 -300 0 -300 0 0 130 0 130 300 0 300 0 0 -130z m610
0 l0 -130 -295 0 -295 0 0 130 0 130 295 0 295 0 0 -130z m610 0 l0 -130 -295
0 -295 0 0 130 0 130 295 0 295 0 0 -130z m540 0 l0 -130 -260 0 -260 0 0 130
0 130 260 0 260 0 0 -130z m610 0 l0 -130 -295 0 -295 0 0 130 0 130 295 0
295 0 0 -130z m610 0 l0 -130 -295 0 -295 0 0 130 0 130 295 0 295 0 0 -130z
m620 0 l0 -130 -300 0 -300 0 0 130 0 130 300 0 300 0 0 -130z m-12630 -280
l0 -130 -650 0 -650 0 0 130 0 130 650 0 650 0 0 -130z m1390 0 l0 -130 -685
0 -685 0 0 130 0 130 685 0 685 0 0 -130z m1160 0 l0 -130 -570 0 -570 0 0
130 0 130 570 0 570 0 0 -130z m1370 0 l0 -130 -675 0 -675 0 0 130 0 130 675
0 675 0 0 -130z m1150 0 l0 -130 -565 0 -565 0 0 130 0 130 565 0 565 0 0
-130z m800 0 l0 -130 -390 0 -390 0 0 130 0 130 390 0 390 0 0 -130z m780 0
l0 -130 -380 0 -380 0 0 130 0 130 380 0 380 0 0 -130z m620 0 l0 -130 -300 0
-300 0 0 130 0 130 300 0 300 0 0 -130z m610 0 l0 -130 -295 0 -295 0 0 130 0
130 295 0 295 0 0 -130z m530 0 l0 -130 -255 0 -255 0 0 130 0 130 255 0 255
0 0 -130z m620 0 l0 -130 -300 0 -300 0 0 130 0 130 300 0 300 0 0 -130z m610
0 l0 -130 -295 0 -295 0 0 130 0 130 295 0 295 0 0 -130z m610 0 l0 -130 -295
0 -295 0 0 130 0 130 295 0 295 0 0 -130z m540 0 l0 -130 -260 0 -260 0 0 130
0 130 260 0 260 0 0 -130z m610 0 l0 -130 -295 0 -295 0 0 130 0 130 295 0
295 0 0 -130z m610 0 l0 -130 -295 0 -295 0 0 130 0 130 295 0 295 0 0 -130z
m620 0 l0 -130 -300 0 -300 0 0 130 0 130 300 0 300 0 0 -130z m-12630 -285
l0 -135 -650 0 -650 0 0 135 0 135 650 0 650 0 0 -135z m1390 0 l0 -135 -685
0 -685 0 0 135 0 135 685 0 685 0 0 -135z m1160 0 l0 -135 -570 0 -570 0 0
135 0 135 570 0 570 0 0 -135z m1370 0 l0 -135 -675 0 -675 0 0 135 0 135 675
0 675 0 0 -135z m1150 0 l0 -135 -565 0 -565 0 0 135 0 135 565 0 565 0 0
-135z m800 0 l0 -135 -390 0 -390 0 0 135 0 135 390 0 390 0 0 -135z m780 0
l0 -135 -380 0 -380 0 0 135 0 135 380 0 380 0 0 -135z m620 0 l0 -135 -300 0
-300 0 0 135 0 135 300 0 300 0 0 -135z m610 0 l0 -135 -295 0 -295 0 0 135 0
135 295 0 295 0 0 -135z m530 0 l0 -135 -255 0 -255 0 0 135 0 135 255 0 255
0 0 -135z m620 0 l0 -135 -300 0 -300 0 0 135 0 135 300 0 300 0 0 -135z m610
0 l0 -135 -295 0 -295 0 0 135 0 135 295 0 295 0 0 -135z m610 0 l0 -135 -295
0 -295 0 0 135 0 135 295 0 295 0 0 -135z m540 0 l0 -135 -260 0 -260 0 0 135
0 135 260 0 260 0 0 -135z m610 0 l0 -135 -295 0 -295 0 0 135 0 135 295 0
295 0 0 -135z m610 0 l0 -135 -295 0 -295 0 0 135 0 135 295 0 295 0 0 -135z
m620 0 l0 -135 -300 0 -300 0 0 135 0 135 300 0 300 0 0 -135z"/>
</g>
</svg>
